{"glyphs":{"0":{"ha":706,"x_min":97,"x_max":608,"o":"m 283 39 l 422 39 q 529 79 492 39 q 567 190 567 119 l 567 703 q 529 814 567 774 q 422 854 492 854 l 283 854 q 176 814 214 854 q 139 703 139 774 l 139 190 q 176 79 139 119 q 283 39 214 39 m 422 0 l 283 0 q 148 51 199 0 q 97 189 97 103 l 97 704 q 148 842 97 790 q 283 893 199 893 l 422 893 q 558 842 507 893 q 608 704 608 790 l 608 189 q 558 51 608 103 q 422 0 507 0 z "},"1":{"ha":433,"x_min":56,"x_max":308,"o":"m 56 747 l 56 756 q 71 782 56 774 l 258 886 q 281 893 272 893 l 297 893 q 308 881 308 893 l 308 13 q 297 0 308 0 l 278 0 q 267 13 267 0 l 267 847 l 78 740 q 56 747 56 725 z "},"2":{"ha":658,"x_min":83,"x_max":575,"o":"m 89 11 l 89 131 q 176 297 89 235 l 454 504 q 528 650 528 558 l 528 707 q 490 816 528 778 q 383 854 453 854 l 269 854 q 163 816 200 854 q 125 707 125 778 l 125 640 q 114 628 125 628 l 94 628 q 83 640 83 628 l 83 708 q 134 844 83 794 q 269 893 185 893 l 383 893 q 519 844 468 893 q 569 708 569 794 l 569 649 q 481 475 569 540 l 200 265 q 131 136 131 213 l 131 39 l 563 39 q 575 28 575 39 l 575 11 q 563 0 575 0 l 101 0 q 89 11 89 0 z "},"3":{"ha":685,"x_min":97,"x_max":588,"o":"m 315 469 l 401 469 q 508 508 471 469 q 546 617 546 546 l 546 707 q 508 816 546 778 q 401 854 471 854 l 283 854 q 176 816 214 854 q 139 707 139 778 l 139 654 q 128 642 139 642 l 108 642 q 97 654 97 642 l 97 708 q 148 844 97 794 q 283 893 199 893 l 401 893 q 537 844 486 893 q 588 708 588 794 l 588 615 q 471 450 588 485 q 588 285 588 419 l 588 185 q 537 49 588 99 q 401 0 486 0 l 283 0 q 148 49 199 0 q 97 185 97 99 l 97 254 q 108 267 97 267 l 128 267 q 139 254 139 267 l 139 186 q 176 77 139 115 q 283 39 214 39 l 401 39 q 508 77 471 39 q 546 186 546 115 l 546 283 q 508 392 546 354 q 401 431 471 431 l 315 431 q 303 442 303 431 l 303 458 q 315 469 303 469 z "},"4":{"ha":715,"x_min":69,"x_max":660,"o":"m 500 226 l 500 863 l 117 226 l 500 226 m 531 0 l 511 0 q 500 13 500 0 l 500 188 l 82 188 q 69 199 69 188 l 69 215 q 78 238 69 225 l 464 878 q 490 893 472 893 l 531 893 q 542 881 542 893 l 542 226 l 647 226 q 660 215 660 226 l 660 199 q 647 188 660 188 l 542 188 l 542 13 q 531 0 542 0 z "},"5":{"ha":661,"x_min":97,"x_max":578,"o":"m 392 515 l 258 515 q 197 503 221 515 q 165 478 174 492 q 149 453 157 465 q 133 442 142 442 l 108 442 q 97 454 97 442 l 97 881 q 108 893 97 893 l 551 893 q 564 882 564 893 l 564 865 q 551 854 564 854 l 139 854 l 139 486 q 258 554 165 554 l 392 554 q 527 505 476 554 q 578 369 578 456 l 578 189 q 527 51 578 103 q 392 0 476 0 l 283 0 q 148 51 199 0 q 97 189 97 103 l 97 244 q 108 257 97 257 l 128 257 q 139 244 139 257 l 139 190 q 176 79 139 119 q 283 39 214 39 l 392 39 q 499 79 461 39 q 536 190 536 119 l 536 368 q 499 477 536 439 q 392 515 461 515 z "},"6":{"ha":681,"x_min":83,"x_max":583,"o":"m 269 39 l 397 39 q 504 79 467 39 q 542 190 542 119 l 542 333 q 504 444 542 404 q 397 485 467 485 l 125 485 l 125 190 q 163 79 125 119 q 269 39 200 39 m 397 0 l 269 0 q 134 51 185 0 q 83 189 83 103 l 83 704 q 134 842 83 790 q 269 893 185 893 l 528 893 q 540 882 540 893 l 540 865 q 528 854 540 854 l 269 854 q 163 814 200 854 q 125 703 125 774 l 125 524 l 397 524 q 533 472 482 524 q 583 335 583 421 l 583 189 q 533 51 583 103 q 397 0 482 0 z "},"7":{"ha":510,"x_min":21,"x_max":482,"o":"m 151 0 l 138 0 q 129 19 121 0 l 436 854 l 33 854 q 21 865 21 854 l 21 882 q 33 893 21 893 l 469 893 q 482 882 482 893 l 482 868 q 478 849 482 858 l 171 13 q 151 0 167 0 z "},"8":{"ha":713,"x_min":97,"x_max":615,"o":"m 283 39 l 429 39 q 536 77 499 39 q 574 186 574 115 l 574 283 q 536 392 574 354 q 429 431 499 431 l 283 431 q 176 392 214 431 q 139 283 139 354 l 139 186 q 176 77 139 115 q 283 39 214 39 m 283 469 l 429 469 q 536 508 499 469 q 574 617 574 546 l 574 707 q 536 816 574 778 q 429 854 499 854 l 283 854 q 176 816 214 854 q 139 707 139 778 l 139 617 q 176 508 139 546 q 283 469 214 469 m 429 0 l 283 0 q 148 49 199 0 q 97 185 97 99 l 97 285 q 200 450 97 410 q 97 615 97 490 l 97 708 q 148 844 97 794 q 283 893 199 893 l 429 893 q 565 844 514 893 q 615 708 615 794 l 615 615 q 513 450 615 490 q 615 285 615 410 l 615 185 q 565 49 615 99 q 429 0 514 0 z "},"9":{"ha":681,"x_min":83,"x_max":583,"o":"m 269 408 l 542 408 l 542 703 q 504 814 542 774 q 397 854 467 854 l 269 854 q 163 814 200 854 q 125 703 125 774 l 125 560 q 163 449 125 489 q 269 408 200 408 m 397 0 l 139 0 q 126 11 126 0 l 126 28 q 139 39 126 39 l 397 39 q 504 79 467 39 q 542 190 542 119 l 542 369 l 269 369 q 134 421 185 369 q 83 558 83 472 l 83 704 q 134 842 83 790 q 269 893 185 893 l 397 893 q 533 842 482 893 q 583 704 583 790 l 583 189 q 533 51 583 103 q 397 0 482 0 z "},"\u0000":{"ha":0,"x_min":0,"x_max":0,"o":""},"\r":{"ha":0,"x_min":0,"x_max":0,"o":""}," ":{"ha":389,"x_min":0,"x_max":0,"o":""},"!":{"ha":329,"x_min":139,"x_max":190,"o":"m 139 764 l 139 881 q 150 893 139 893 l 179 893 q 190 881 190 893 l 190 764 q 185 482 190 640 q 177 303 181 324 q 167 282 174 282 l 161 282 q 151 297 154 282 q 139 764 139 389 m 188 178 l 188 13 q 176 0 188 0 l 153 0 q 142 13 142 0 l 142 178 q 153 190 142 190 l 176 190 q 188 178 188 190 z "},"\"":{"ha":450,"x_min":97,"x_max":353,"o":"m 124 613 l 119 613 q 107 626 107 613 l 97 879 q 110 893 97 893 l 133 893 q 146 879 146 893 l 136 626 q 124 613 136 613 m 331 613 l 326 613 q 314 626 314 613 l 304 879 q 317 893 304 893 l 340 893 q 353 879 353 893 l 343 626 q 331 613 343 613 z "},"#":{"ha":943,"x_min":83,"x_max":860,"o":"m 847 653 q 860 642 860 653 l 860 625 q 847 614 860 614 l 706 614 l 610 279 l 749 279 q 761 268 761 279 l 761 251 q 749 240 761 240 l 599 240 l 533 15 q 517 0 529 0 l 501 0 q 494 21 489 0 l 558 240 l 267 240 l 201 15 q 185 0 197 0 l 169 0 q 163 21 156 0 l 226 240 l 96 240 q 83 251 83 240 l 83 268 q 96 279 83 279 l 238 279 l 333 614 l 194 614 q 182 625 182 614 l 182 642 q 194 653 182 653 l 344 653 l 410 878 q 428 893 414 893 l 439 893 q 449 872 456 893 l 385 653 l 676 653 l 742 878 q 760 893 746 893 l 771 893 q 781 872 786 893 l 717 653 l 847 653 m 569 279 l 665 614 l 374 614 l 278 279 l 569 279 z "},"$":{"ha":692,"x_min":104,"x_max":588,"o":"m 375 -136 l 356 -136 q 344 -124 344 -136 l 344 0 l 290 0 q 155 51 206 0 q 104 189 104 103 l 104 236 q 115 249 104 249 l 135 249 q 146 236 146 249 l 146 190 q 183 79 146 119 q 290 39 221 39 l 401 39 q 508 79 471 39 q 546 190 546 119 l 546 289 q 510 401 546 368 q 399 433 474 433 l 299 433 q 155 473 206 433 q 104 611 104 513 l 104 707 q 155 844 104 793 q 290 896 206 896 l 344 896 l 344 1019 q 356 1032 344 1032 l 375 1032 q 386 1019 386 1032 l 386 896 l 401 896 q 537 844 486 896 q 588 707 588 793 l 588 665 q 576 653 588 653 l 557 653 q 546 665 546 653 l 546 706 q 508 817 546 776 q 401 857 471 857 l 290 857 q 183 817 221 857 q 146 706 146 776 l 146 611 q 181 502 146 533 q 290 471 215 471 l 403 471 q 588 292 588 471 l 588 189 q 537 51 588 103 q 401 0 486 0 l 386 0 l 386 -124 q 375 -136 386 -136 z "},"%":{"ha":988,"x_min":69,"x_max":918,"o":"m 757 368 l 735 368 q 640 339 667 368 q 614 238 614 310 l 614 171 q 640 69 614 99 q 735 39 667 39 l 757 39 q 851 69 825 39 q 876 171 876 99 l 876 238 q 851 339 876 310 q 757 368 825 368 m 735 407 l 757 407 q 879 367 840 407 q 918 239 918 326 l 918 169 q 879 41 918 82 q 757 0 840 0 l 735 0 q 612 41 651 0 q 572 169 572 82 l 572 239 q 611 366 572 325 q 735 407 650 407 m 254 861 l 232 861 q 138 832 164 861 q 111 731 111 803 l 111 664 q 138 562 111 592 q 232 532 164 532 l 254 532 q 348 562 322 532 q 374 664 374 592 l 374 731 q 348 832 374 803 q 254 861 322 861 m 232 900 l 254 900 q 376 860 338 900 q 415 732 415 819 l 415 663 q 376 534 415 575 q 254 493 338 493 l 232 493 q 109 534 149 493 q 69 663 69 575 l 69 732 q 108 859 69 818 q 232 900 147 900 m 304 0 l 290 0 q 283 17 276 0 l 665 878 q 683 893 672 893 l 697 893 q 703 874 711 893 l 322 15 q 304 0 315 0 z "},"&":{"ha":822,"x_min":111,"x_max":739,"o":"m 415 0 l 297 0 q 162 49 213 0 q 111 185 111 99 l 111 313 q 147 433 111 382 q 260 485 183 483 q 193 649 193 564 l 193 708 q 244 844 193 794 q 379 893 294 893 l 410 893 q 545 844 494 893 q 596 708 596 794 l 596 640 q 585 628 596 628 l 565 628 q 554 640 554 628 l 554 707 q 517 816 554 778 q 410 854 479 854 l 379 854 q 272 816 310 854 q 235 707 235 778 l 235 650 q 247 573 235 604 q 294 504 260 542 l 388 397 l 726 397 q 739 386 739 397 l 739 369 q 726 358 739 358 l 421 358 l 724 8 q 721 0 726 3 l 694 0 q 676 8 685 0 l 589 108 q 525 28 571 57 q 415 0 479 0 m 297 39 l 415 39 q 556 146 536 39 l 283 458 q 186 416 219 454 q 153 311 153 378 l 153 186 q 190 77 153 115 q 297 39 228 39 z "},"'":{"ha":257,"x_min":104,"x_max":153,"o":"m 131 613 l 126 613 q 114 626 114 613 l 104 879 q 117 893 104 893 l 140 893 q 153 879 153 893 l 143 626 q 131 613 139 613 z "},"(":{"ha":385,"x_min":83,"x_max":288,"o":"m 288 882 l 288 865 q 275 854 288 854 l 269 854 q 163 814 200 854 q 125 703 125 774 l 125 49 q 163 -62 125 -22 q 269 -103 200 -103 l 275 -103 q 288 -114 288 -103 l 288 -131 q 275 -142 288 -142 l 269 -142 q 134 -90 185 -142 q 83 47 83 -39 l 83 704 q 134 842 83 790 q 269 893 185 893 l 275 893 q 288 882 288 893 z "},")":{"ha":385,"x_min":83,"x_max":288,"o":"m 83 -131 l 83 -114 q 96 -103 83 -103 l 101 -103 q 208 -62 171 -103 q 246 49 246 -22 l 246 703 q 208 814 246 774 q 101 854 171 854 l 96 854 q 83 865 83 854 l 83 882 q 96 893 83 893 l 101 893 q 237 842 186 893 q 288 704 288 790 l 288 47 q 237 -90 288 -39 q 101 -142 186 -142 l 96 -142 q 83 -131 83 -142 z "},"*":{"ha":567,"x_min":106,"x_max":461,"o":"m 263 857 l 263 881 q 274 893 263 893 l 294 893 q 306 881 306 893 l 306 857 q 283 710 306 754 q 442 782 342 754 q 456 775 453 786 l 461 756 q 453 740 467 744 l 429 733 q 283 710 326 701 q 386 603 340 668 l 401 582 q 399 567 408 575 l 382 556 q 365 558 372 549 q 283 710 289 665 q 199 558 258 640 q 183 556 193 550 l 167 568 q 165 585 157 572 q 235 670 204 639 q 283 710 267 701 q 114 743 208 710 q 106 757 101 747 l 113 776 q 128 783 115 788 q 283 710 247 746 q 263 857 263 768 z "},"+":{"ha":711,"x_min":97,"x_max":614,"o":"m 376 465 l 601 465 q 614 454 614 465 l 614 438 q 601 426 614 426 l 376 426 l 376 200 q 365 188 376 188 l 346 188 q 335 200 335 188 l 335 426 l 110 426 q 97 438 97 426 l 97 454 q 110 465 97 465 l 335 465 l 335 692 q 346 704 335 704 l 365 704 q 376 692 376 704 l 376 465 z "},",":{"ha":260,"x_min":104,"x_max":156,"o":"m 156 178 l 156 68 q 119 -132 156 47 q 110 -140 117 -140 q 104 -132 104 -140 l 104 178 q 115 190 104 190 l 144 190 q 156 178 156 190 z "},"-":{"ha":433,"x_min":56,"x_max":378,"o":"m 365 425 l 68 425 q 56 436 56 425 l 56 453 q 68 464 56 464 l 365 464 q 378 453 378 464 l 378 436 q 365 425 378 425 z "},".":{"ha":260,"x_min":104,"x_max":156,"o":"m 156 178 l 156 13 q 144 0 156 0 l 115 0 q 104 13 104 0 l 104 178 q 115 190 104 190 l 144 190 q 156 178 156 190 z "},"/":{"ha":546,"x_min":99,"x_max":447,"o":"m 128 0 l 110 0 q 99 17 92 0 l 401 878 q 419 893 407 893 l 439 893 q 447 874 454 893 l 146 15 q 128 0 140 0 z "},":":{"ha":260,"x_min":104,"x_max":156,"o":"m 156 696 l 156 531 q 144 518 156 518 l 115 518 q 104 531 104 518 l 104 696 q 115 708 104 708 l 144 708 q 156 696 156 708 m 156 178 l 156 13 q 144 0 156 0 l 115 0 q 104 13 104 0 l 104 178 q 115 190 104 190 l 144 190 q 156 178 156 190 z "},";":{"ha":260,"x_min":104,"x_max":156,"o":"m 156 178 l 156 68 q 119 -132 156 47 q 110 -140 117 -140 q 104 -132 104 -140 l 104 178 q 115 190 104 190 l 144 190 q 156 178 156 190 m 156 696 l 156 531 q 144 518 156 518 l 115 518 q 104 531 104 518 l 104 696 q 115 708 104 708 l 144 708 q 156 696 156 708 z "},"<":{"ha":694,"x_min":89,"x_max":606,"o":"m 606 660 l 606 640 q 596 626 606 629 l 128 446 l 596 265 q 606 251 606 263 l 606 232 q 590 224 606 218 l 101 417 q 89 432 89 422 l 89 460 q 101 475 89 469 l 590 668 q 606 660 606 674 z "},"=":{"ha":725,"x_min":104,"x_max":621,"o":"m 117 586 l 608 586 q 621 575 621 586 l 621 558 q 608 547 621 547 l 117 547 q 104 558 104 547 l 104 575 q 117 586 104 586 m 117 344 l 608 344 q 621 333 621 344 l 621 317 q 608 306 621 306 l 117 306 q 104 317 104 306 l 104 333 q 117 344 104 344 z "},">":{"ha":725,"x_min":104,"x_max":621,"o":"m 104 640 l 104 660 q 119 668 104 674 l 608 475 q 621 460 621 469 l 621 432 q 608 417 621 422 l 119 224 q 104 232 104 218 l 104 251 q 114 265 104 263 l 582 446 l 114 626 q 104 640 104 629 z "},"?":{"ha":660,"x_min":111,"x_max":549,"o":"m 369 178 l 369 13 q 358 0 369 0 l 329 0 q 318 13 318 0 l 318 178 q 329 190 318 190 l 358 190 q 369 178 369 190 m 365 349 l 365 294 q 354 282 365 282 l 335 282 q 324 294 324 282 l 324 343 q 340 435 324 403 q 407 511 356 467 l 450 550 q 507 660 507 599 l 507 706 q 469 815 507 776 q 363 853 432 853 l 297 853 q 190 815 228 853 q 153 706 153 776 l 153 640 q 142 628 153 628 l 122 628 q 111 640 111 628 l 111 707 q 162 842 111 793 q 297 892 213 892 l 363 892 q 498 842 447 892 q 549 707 549 793 l 549 658 q 482 526 549 582 l 426 479 q 375 420 385 444 q 365 349 365 396 z "},"@":{"ha":1049,"x_min":125,"x_max":924,"o":"m 724 -81 l 471 -81 q 230 14 335 -81 q 125 274 125 108 l 125 483 q 230 743 125 649 q 471 838 335 838 l 738 838 q 873 786 822 838 q 924 649 924 735 l 924 304 q 873 167 924 218 q 738 115 822 115 l 706 115 q 678 127 689 115 q 667 156 667 139 l 667 190 l 661 190 q 511 118 622 118 q 376 169 426 118 q 325 307 325 221 l 325 450 q 376 588 325 536 q 511 639 426 639 l 697 639 q 708 626 708 639 l 708 165 q 721 154 708 154 l 738 154 q 844 194 807 154 q 882 306 882 235 l 882 647 q 844 758 882 718 q 738 799 807 799 l 468 799 q 257 711 347 799 q 167 485 167 624 l 167 272 q 257 46 167 133 q 468 -42 347 -42 l 724 -42 q 736 -53 736 -42 l 736 -69 q 724 -81 736 -81 m 667 301 l 667 589 q 654 600 667 600 l 511 600 q 404 560 442 600 q 367 449 367 519 l 367 308 q 404 197 367 238 q 511 157 442 157 l 513 157 q 624 194 582 157 q 667 301 667 232 z "},"A":{"ha":731,"x_min":43,"x_max":688,"o":"m 71 0 l 51 0 q 43 13 39 0 l 335 881 q 349 893 339 893 l 382 893 q 396 881 392 893 l 688 13 q 679 0 692 0 l 658 0 q 644 13 649 0 l 560 254 l 171 254 l 86 13 q 71 0 81 0 m 363 840 l 186 296 l 544 296 l 368 840 l 363 840 z "},"B":{"ha":756,"x_min":125,"x_max":651,"o":"m 179 39 l 465 39 q 572 77 535 39 q 610 186 610 115 l 610 285 q 451 432 610 432 l 179 432 q 167 421 167 432 l 167 50 q 179 39 167 39 m 179 471 l 451 471 q 562 509 522 471 q 601 618 601 547 l 601 707 q 564 816 601 778 q 457 854 526 854 l 179 854 q 167 843 167 854 l 167 482 q 179 471 167 471 m 125 13 l 125 881 q 136 893 125 893 l 457 893 q 592 844 542 893 q 643 708 643 794 l 643 617 q 521 451 643 488 q 611 403 571 449 q 651 286 651 357 l 651 185 q 601 49 651 99 q 465 0 550 0 l 136 0 q 125 13 125 0 z "},"C":{"ha":754,"x_min":111,"x_max":664,"o":"m 478 0 l 297 0 q 162 51 213 0 q 111 189 111 103 l 111 704 q 162 842 111 790 q 297 893 213 893 l 478 893 q 613 842 563 893 q 664 704 664 790 l 664 635 q 653 622 664 622 l 633 622 q 622 635 622 622 l 622 703 q 585 814 622 774 q 478 854 547 854 l 297 854 q 190 814 228 854 q 153 703 153 774 l 153 190 q 190 79 153 119 q 297 39 228 39 l 478 39 q 585 79 547 39 q 622 190 622 119 l 622 258 q 633 271 622 271 l 653 271 q 664 258 664 271 l 664 189 q 613 51 664 103 q 478 0 563 0 z "},"D":{"ha":775,"x_min":125,"x_max":664,"o":"m 179 39 l 478 39 q 585 79 547 39 q 622 190 622 119 l 622 703 q 585 814 622 774 q 478 854 547 854 l 179 854 q 167 843 167 854 l 167 50 q 179 39 167 39 m 125 13 l 125 881 q 136 893 125 893 l 478 893 q 613 842 563 893 q 664 704 664 790 l 664 189 q 613 51 664 103 q 478 0 563 0 l 136 0 q 125 13 125 0 z "},"E":{"ha":668,"x_min":125,"x_max":571,"o":"m 558 0 l 136 0 q 125 13 125 0 l 125 881 q 136 893 125 893 l 558 893 q 571 882 571 893 l 571 865 q 558 854 571 854 l 179 854 q 167 843 167 854 l 167 486 q 179 475 167 475 l 522 475 q 535 464 535 475 l 535 447 q 522 436 535 436 l 179 436 q 167 425 167 436 l 167 50 q 179 39 167 39 l 558 39 q 571 28 571 39 l 571 11 q 558 0 571 0 z "},"F":{"ha":642,"x_min":125,"x_max":572,"o":"m 156 0 l 136 0 q 125 13 125 0 l 125 881 q 136 893 125 893 l 560 893 q 572 882 572 893 l 572 865 q 560 854 572 854 l 179 854 q 167 843 167 854 l 167 474 q 179 463 167 463 l 522 463 q 535 451 535 463 l 535 435 q 522 424 535 424 l 179 424 q 167 413 167 424 l 167 13 q 156 0 167 0 z "},"G":{"ha":747,"x_min":111,"x_max":636,"o":"m 450 0 l 297 0 q 162 51 213 0 q 111 189 111 103 l 111 704 q 162 842 111 790 q 297 893 213 893 l 450 893 q 585 842 535 893 q 636 704 636 790 l 636 635 q 625 622 636 622 l 606 622 q 594 635 594 622 l 594 703 q 557 814 594 774 q 450 854 519 854 l 297 854 q 190 814 228 854 q 153 703 153 774 l 153 190 q 190 79 153 119 q 297 39 228 39 l 450 39 q 557 79 519 39 q 594 190 594 119 l 594 400 q 582 411 594 411 l 403 411 q 390 422 390 411 l 390 439 q 403 450 390 450 l 611 450 q 636 424 636 450 l 636 189 q 585 51 636 103 q 450 0 535 0 z "},"H":{"ha":789,"x_min":125,"x_max":664,"o":"m 156 0 l 136 0 q 125 13 125 0 l 125 881 q 136 893 125 893 l 156 893 q 167 881 167 893 l 167 486 q 179 475 167 475 l 610 475 q 622 486 622 475 l 622 881 q 633 893 622 893 l 653 893 q 664 881 664 893 l 664 13 q 653 0 664 0 l 633 0 q 622 13 622 0 l 622 425 q 610 436 622 436 l 179 436 q 167 425 167 436 l 167 13 q 156 0 167 0 z "},"I":{"ha":306,"x_min":132,"x_max":174,"o":"m 174 881 l 174 13 q 163 0 174 0 l 143 0 q 132 13 132 0 l 132 881 q 143 893 132 893 l 163 893 q 174 881 174 893 z "},"J":{"ha":685,"x_min":56,"x_max":567,"o":"m 536 893 l 556 893 q 567 882 567 893 l 567 189 q 516 51 567 103 q 381 0 465 0 l 242 0 q 106 51 157 0 q 56 189 56 103 l 56 300 q 67 313 56 313 l 86 313 q 97 300 97 313 l 97 190 q 135 79 97 119 q 242 39 172 39 l 381 39 q 488 79 450 39 q 525 190 525 119 l 525 881 q 536 893 525 893 z "},"K":{"ha":726,"x_min":125,"x_max":682,"o":"m 156 0 l 136 0 q 125 13 125 0 l 125 881 q 136 893 125 893 l 156 893 q 167 881 167 893 l 167 336 l 172 336 q 193 371 181 354 l 583 881 q 606 893 593 893 l 632 893 q 635 881 646 893 l 351 504 l 682 13 q 676 0 690 0 l 654 0 q 633 13 642 0 l 325 471 l 167 281 l 167 13 q 156 0 167 0 z "},"L":{"ha":628,"x_min":125,"x_max":586,"o":"m 574 0 l 136 0 q 125 13 125 0 l 125 881 q 136 893 125 893 l 156 893 q 167 881 167 893 l 167 53 q 179 42 167 42 l 574 42 q 586 31 586 42 l 586 11 q 574 0 586 0 z "},"M":{"ha":956,"x_min":125,"x_max":831,"o":"m 781 893 l 819 893 q 831 881 831 893 l 831 13 q 819 0 831 0 l 800 0 q 789 13 789 0 l 789 813 l 783 813 l 508 206 q 492 194 503 194 l 465 194 q 449 206 454 194 l 172 814 l 167 814 l 167 13 q 156 0 167 0 l 136 0 q 125 13 125 0 l 125 881 q 136 893 125 893 l 175 893 q 185 888 182 893 l 475 246 l 481 246 l 771 888 q 781 893 774 893 z "},"N":{"ha":803,"x_min":125,"x_max":678,"o":"m 156 0 l 136 0 q 125 13 125 0 l 125 881 q 136 893 125 893 l 156 893 q 165 888 163 893 l 631 100 l 636 100 l 636 881 q 647 893 636 893 l 667 893 q 678 881 678 893 l 678 13 q 667 0 678 0 l 653 0 q 636 11 643 0 l 172 796 l 167 796 l 167 13 q 156 0 167 0 z "},"O":{"ha":768,"x_min":111,"x_max":657,"o":"m 297 39 l 471 39 q 578 79 540 39 q 615 190 615 119 l 615 703 q 578 814 615 774 q 471 854 540 854 l 297 854 q 190 814 228 854 q 153 703 153 774 l 153 190 q 190 79 153 119 q 297 39 228 39 m 471 0 l 297 0 q 162 51 213 0 q 111 189 111 103 l 111 704 q 162 842 111 790 q 297 893 213 893 l 471 893 q 606 842 556 893 q 657 704 657 790 l 657 189 q 606 51 657 103 q 471 0 556 0 z "},"P":{"ha":726,"x_min":125,"x_max":636,"o":"m 156 0 l 136 0 q 125 13 125 0 l 125 881 q 136 893 125 893 l 450 893 q 585 842 535 893 q 636 704 636 790 l 636 533 q 585 396 636 447 q 450 344 535 344 l 179 344 q 167 333 167 344 l 167 13 q 156 0 167 0 m 179 383 l 450 383 q 557 424 519 383 q 594 535 594 464 l 594 703 q 557 814 594 774 q 450 854 519 854 l 179 854 q 167 843 167 854 l 167 394 q 179 383 167 383 z "},"Q":{"ha":768,"x_min":111,"x_max":657,"o":"m 297 39 l 471 39 q 578 79 540 39 q 615 190 615 119 l 615 703 q 578 814 615 774 q 471 854 540 854 l 297 854 q 190 814 228 854 q 153 703 153 774 l 153 190 q 190 79 153 119 q 297 39 228 39 m 572 -185 l 550 -185 q 529 -172 538 -185 l 422 0 l 297 0 q 162 51 213 0 q 111 189 111 103 l 111 704 q 162 842 111 790 q 297 893 213 893 l 471 893 q 606 842 556 893 q 657 704 657 790 l 657 189 q 606 51 657 103 q 471 0 556 0 l 578 -172 q 572 -185 586 -185 z "},"R":{"ha":736,"x_min":125,"x_max":651,"o":"m 156 0 l 136 0 q 125 13 125 0 l 125 881 q 136 893 125 893 l 449 893 q 584 842 533 893 q 635 704 635 790 l 635 565 q 593 438 635 488 q 481 379 551 389 l 481 374 l 651 13 q 646 0 658 0 l 621 0 q 603 13 610 0 l 433 376 l 179 376 q 167 365 167 376 l 167 13 q 156 0 167 0 m 179 415 l 449 415 q 556 456 518 415 q 593 567 593 496 l 593 703 q 556 814 593 774 q 449 854 518 854 l 179 854 q 167 843 167 854 l 167 426 q 179 415 167 415 z "},"S":{"ha":789,"x_min":125,"x_max":664,"o":"m 125 189 l 125 244 q 136 257 125 257 l 156 257 q 167 244 167 257 l 167 190 q 204 79 167 119 q 311 39 242 39 l 478 39 q 585 79 547 39 q 622 190 622 119 l 622 260 q 571 363 622 325 q 447 419 519 401 q 301 453 374 436 q 176 511 228 471 q 125 621 125 551 l 125 704 q 176 842 125 790 q 311 893 226 893 l 478 893 q 613 842 563 893 q 664 704 664 790 l 664 663 q 653 650 664 650 l 633 650 q 622 663 622 650 l 622 703 q 585 814 622 774 q 478 854 547 854 l 311 854 q 204 814 242 854 q 167 703 167 774 l 167 622 q 342 481 167 519 q 488 447 415 465 q 613 383 561 428 q 664 263 664 338 l 664 189 q 613 51 664 103 q 478 0 563 0 l 311 0 q 176 51 226 0 q 125 189 125 103 z "},"T":{"ha":575,"x_min":28,"x_max":547,"o":"m 297 0 l 278 0 q 267 13 267 0 l 267 843 q 254 854 267 854 l 40 854 q 28 865 28 854 l 28 882 q 40 893 28 893 l 535 893 q 547 882 547 893 l 547 865 q 535 854 547 854 l 321 854 q 308 843 308 854 l 308 13 q 297 0 308 0 z "},"U":{"ha":764,"x_min":118,"x_max":646,"o":"m 615 893 l 635 893 q 646 882 646 893 l 646 189 q 595 51 646 103 q 460 0 544 0 l 304 0 q 169 51 219 0 q 118 189 118 103 l 118 881 q 129 893 118 893 l 149 893 q 160 881 160 893 l 160 190 q 197 79 160 119 q 304 39 235 39 l 460 39 q 567 79 529 39 q 604 190 604 119 l 604 881 q 615 893 604 893 z "},"V":{"ha":686,"x_min":43,"x_max":643,"o":"m 360 0 l 326 0 q 313 13 317 0 l 43 881 q 51 893 39 893 l 72 893 q 86 881 82 893 l 340 61 l 346 61 l 600 881 q 614 893 604 893 l 635 893 q 643 881 647 893 l 374 13 q 360 0 369 0 z "},"W":{"ha":1097,"x_min":50,"x_max":1047,"o":"m 304 0 l 267 0 q 251 13 256 0 l 50 881 q 61 893 47 893 l 81 893 q 94 881 90 893 l 282 53 l 288 53 l 519 881 q 535 893 524 893 l 561 893 q 576 881 572 893 l 810 53 l 815 53 l 1003 881 q 1018 893 1006 893 l 1039 893 q 1047 881 1051 893 l 846 13 q 832 0 843 0 l 794 0 q 779 13 783 0 l 551 832 l 546 832 l 318 13 q 304 0 314 0 z "},"X":{"ha":686,"x_min":53,"x_max":635,"o":"m 81 0 l 58 0 q 53 13 46 0 l 317 475 l 68 881 q 75 893 61 893 l 94 893 q 114 881 107 893 l 342 507 l 347 507 l 574 881 q 592 893 581 893 l 614 893 q 619 881 626 893 l 372 476 l 635 13 q 629 0 642 0 l 607 0 q 592 10 597 0 l 346 440 l 340 440 l 96 10 q 81 0 90 0 z "},"Y":{"ha":675,"x_min":43,"x_max":632,"o":"m 347 0 l 328 0 q 317 13 317 0 l 317 340 l 43 881 q 50 893 36 893 l 75 893 q 90 881 85 893 l 335 394 l 340 394 l 585 881 q 600 893 590 893 l 625 893 q 632 881 639 893 l 358 340 l 358 13 q 347 0 358 0 z "},"Z":{"ha":654,"x_min":56,"x_max":599,"o":"m 56 11 l 56 35 q 58 47 56 43 l 536 849 l 536 854 l 82 854 q 69 865 69 854 l 69 882 q 82 893 69 893 l 572 893 q 585 882 585 893 l 585 856 q 582 844 585 849 l 104 44 l 104 39 l 586 39 q 599 28 599 39 l 599 11 q 586 0 599 0 l 68 0 q 56 11 56 0 z "},"[":{"ha":385,"x_min":83,"x_max":288,"o":"m 275 -142 l 94 -142 q 83 -129 83 -142 l 83 881 q 94 893 83 893 l 275 893 q 288 882 288 893 l 288 865 q 275 854 288 854 l 138 854 q 125 843 125 854 l 125 -92 q 138 -103 125 -103 l 275 -103 q 288 -114 288 -103 l 288 -131 q 275 -142 288 -142 z "},"\\":{"ha":546,"x_min":99,"x_max":447,"o":"m 107 893 l 126 893 q 144 878 139 893 l 447 17 q 436 0 453 0 l 418 0 q 400 15 406 0 l 99 874 q 107 893 92 893 z "},"]":{"ha":385,"x_min":83,"x_max":288,"o":"m 83 -131 l 83 -114 q 96 -103 83 -103 l 233 -103 q 246 -92 246 -103 l 246 843 q 233 854 246 854 l 96 854 q 83 865 83 854 l 83 882 q 96 893 83 893 l 276 893 q 288 881 288 893 l 288 -129 q 276 -142 288 -142 l 96 -142 q 83 -131 83 -142 z "},"^":{"ha":629,"x_min":86,"x_max":543,"o":"m 110 507 l 96 507 q 86 524 76 507 l 272 878 q 299 893 281 893 l 331 893 q 357 878 349 893 l 543 524 q 533 507 553 507 l 519 507 q 500 519 508 507 l 314 869 l 129 519 q 110 507 121 507 z "},"_":{"ha":517,"x_min":0,"x_max":517,"o":"m 504 -133 l 13 -133 q 0 -122 0 -133 l 0 -106 q 13 -94 0 -94 l 504 -94 q 517 -106 517 -94 l 517 -122 q 504 -133 517 -133 z "},"`":{"ha":363,"x_min":97,"x_max":263,"o":"m 258 797 l 247 797 q 228 808 236 797 l 100 964 q 98 973 96 969 q 106 976 100 976 l 147 976 q 168 964 161 976 l 263 810 q 258 797 269 797 z "},"a":{"ha":692,"x_min":97,"x_max":581,"o":"m 386 0 l 283 0 q 148 51 199 0 q 97 189 97 103 l 97 519 q 148 657 97 606 q 283 708 199 708 l 569 708 q 581 696 581 708 l 581 13 q 569 0 581 0 l 550 0 q 539 13 539 0 l 539 72 l 533 72 q 386 0 494 0 m 539 183 l 539 658 q 526 669 539 669 l 283 669 q 176 629 214 669 q 139 518 139 589 l 139 190 q 176 79 139 119 q 283 39 214 39 l 383 39 q 496 76 453 39 q 539 183 539 114 z "},"b":{"ha":692,"x_min":111,"x_max":594,"o":"m 165 39 l 408 39 q 515 79 478 39 q 553 190 553 119 l 553 532 q 515 643 553 603 q 408 683 478 683 l 308 683 q 196 646 239 683 q 153 539 153 608 l 153 50 q 165 39 153 39 m 111 13 l 111 964 q 122 976 111 976 l 142 976 q 153 964 153 976 l 153 650 l 158 650 q 306 722 197 722 l 408 722 q 544 671 493 722 q 594 533 594 619 l 594 189 q 544 51 594 103 q 408 0 493 0 l 122 0 q 111 13 111 0 z "},"c":{"ha":542,"x_min":97,"x_max":493,"o":"m 493 28 l 493 11 q 481 0 493 0 l 283 0 q 148 51 199 0 q 97 189 97 103 l 97 519 q 148 657 97 606 q 283 708 199 708 l 481 708 q 493 697 493 708 l 493 681 q 481 669 493 669 l 283 669 q 176 629 214 669 q 139 518 139 589 l 139 190 q 176 79 139 119 q 283 39 214 39 l 481 39 q 493 28 493 39 z "},"d":{"ha":692,"x_min":97,"x_max":581,"o":"m 386 0 l 283 0 q 148 51 199 0 q 97 189 97 103 l 97 519 q 148 657 97 606 q 283 708 199 708 l 386 708 q 533 636 494 708 l 539 636 l 539 964 q 550 976 539 976 l 569 976 q 581 964 581 976 l 581 13 q 569 0 581 0 l 550 0 q 539 13 539 0 l 539 72 l 533 72 q 386 0 494 0 m 539 183 l 539 525 q 496 632 539 594 q 383 669 453 669 l 283 669 q 176 629 214 669 q 139 518 139 589 l 139 190 q 176 79 139 119 q 283 39 214 39 l 383 39 q 496 76 453 39 q 539 183 539 114 z "},"e":{"ha":682,"x_min":97,"x_max":592,"o":"m 568 0 l 283 0 q 148 51 199 0 q 97 189 97 103 l 97 519 q 148 657 97 606 q 283 708 199 708 l 406 708 q 541 657 490 708 q 592 519 592 606 l 592 343 q 579 329 592 329 l 151 329 q 139 318 139 329 l 139 190 q 176 79 139 119 q 283 39 214 39 l 568 39 q 581 28 581 39 l 581 11 q 568 0 581 0 m 151 368 l 538 368 q 550 379 550 368 l 550 518 q 513 629 550 589 q 406 669 475 669 l 283 669 q 176 629 214 669 q 139 518 139 589 l 139 379 q 151 368 139 368 z "},"f":{"ha":403,"x_min":54,"x_max":371,"o":"m 228 708 l 358 708 q 371 697 371 708 l 371 681 q 358 669 371 669 l 228 669 q 215 658 215 669 l 215 13 q 204 0 215 0 l 185 0 q 174 13 174 0 l 174 658 q 161 669 174 669 l 67 669 q 54 681 54 669 l 54 697 q 67 708 54 708 l 161 708 q 174 719 174 708 l 174 790 q 338 976 174 976 l 358 976 q 371 965 371 976 l 371 949 q 358 938 371 938 l 338 938 q 243 901 271 938 q 215 789 215 864 l 215 719 q 228 708 215 708 z "},"g":{"ha":699,"x_min":104,"x_max":588,"o":"m 393 42 l 290 42 q 155 93 206 42 q 104 231 104 144 l 104 519 q 155 657 104 606 q 290 708 206 708 l 576 708 q 588 696 588 708 l 588 4 q 537 -133 588 -82 q 401 -185 486 -185 l 153 -185 q 140 -174 140 -185 l 140 -157 q 153 -146 140 -146 l 401 -146 q 508 -106 471 -146 q 546 6 546 -65 l 546 114 l 540 114 q 393 42 501 42 m 546 225 l 546 658 q 533 669 546 669 l 290 669 q 183 629 221 669 q 146 518 146 589 l 146 232 q 183 121 146 161 q 290 81 221 81 l 390 81 q 503 118 460 81 q 546 225 546 156 z "},"h":{"ha":699,"x_min":111,"x_max":594,"o":"m 142 0 l 122 0 q 111 13 111 0 l 111 964 q 122 976 111 976 l 142 976 q 153 964 153 976 l 153 636 l 158 636 q 306 708 197 708 l 408 708 q 544 657 493 708 q 594 519 594 606 l 594 13 q 583 0 594 0 l 564 0 q 553 13 553 0 l 553 518 q 515 629 553 589 q 408 669 478 669 l 308 669 q 196 632 239 669 q 153 525 153 594 l 153 13 q 142 0 153 0 z "},"i":{"ha":278,"x_min":118,"x_max":160,"o":"m 118 824 l 118 961 q 129 974 118 974 l 149 974 q 160 961 160 974 l 160 824 q 149 811 160 811 l 129 811 q 118 824 118 811 m 118 13 l 118 696 q 129 708 118 708 l 149 708 q 160 696 160 708 l 160 13 q 149 0 160 0 l 129 0 q 118 13 118 0 z "},"j":{"ha":278,"x_min":-67,"x_max":160,"o":"m 118 824 l 118 961 q 129 974 118 974 l 149 974 q 160 961 160 974 l 160 824 q 149 811 160 811 l 129 811 q 118 824 118 811 m -26 -185 l -54 -185 q -67 -174 -67 -185 l -67 -157 q -54 -146 -67 -146 l -26 -146 q 81 -106 43 -146 q 118 6 118 -65 l 118 696 q 129 708 118 708 l 149 708 q 160 696 160 708 l 160 4 q 109 -133 160 -82 q -26 -185 58 -185 z "},"k":{"ha":583,"x_min":111,"x_max":563,"o":"m 508 708 l 528 708 q 533 696 543 708 l 313 369 l 313 364 l 563 13 q 558 0 572 0 l 535 0 q 510 13 519 0 l 267 358 q 267 375 261 367 l 486 699 q 508 708 493 708 m 142 0 l 122 0 q 111 13 111 0 l 111 964 q 122 976 111 976 l 142 976 q 153 964 153 976 l 153 13 q 142 0 153 0 z "},"l":{"ha":278,"x_min":118,"x_max":160,"o":"m 149 0 l 129 0 q 118 13 118 0 l 118 964 q 129 976 118 976 l 149 976 q 160 964 160 976 l 160 13 q 149 0 160 0 z "},"m":{"ha":1057,"x_min":111,"x_max":953,"o":"m 142 0 l 122 0 q 111 13 111 0 l 111 696 q 122 708 111 708 l 142 708 q 153 696 153 708 l 153 636 l 158 636 q 306 708 197 708 l 367 708 q 535 610 489 708 q 606 683 554 658 q 711 708 658 708 l 767 708 q 902 657 851 708 q 953 519 953 606 l 953 13 q 942 0 953 0 l 922 0 q 911 13 911 0 l 911 518 q 874 629 911 589 q 767 669 836 669 l 711 669 q 597 628 640 669 q 553 518 553 588 l 553 13 q 542 0 553 0 l 522 0 q 511 13 511 0 l 511 518 q 474 629 511 589 q 367 669 436 669 l 308 669 q 196 632 239 669 q 153 525 153 594 l 153 13 q 142 0 153 0 z "},"n":{"ha":699,"x_min":111,"x_max":594,"o":"m 142 0 l 122 0 q 111 13 111 0 l 111 696 q 122 708 111 708 l 142 708 q 153 696 153 708 l 153 636 l 158 636 q 306 708 197 708 l 408 708 q 544 657 493 708 q 594 519 594 606 l 594 13 q 583 0 594 0 l 564 0 q 553 13 553 0 l 553 518 q 515 629 553 589 q 408 669 478 669 l 308 669 q 196 632 239 669 q 153 525 153 594 l 153 13 q 142 0 153 0 z "},"o":{"ha":685,"x_min":97,"x_max":588,"o":"m 401 0 l 283 0 q 148 51 199 0 q 97 189 97 103 l 97 519 q 148 657 97 606 q 283 708 199 708 l 401 708 q 537 657 486 708 q 588 519 588 606 l 588 189 q 537 51 588 103 q 401 0 486 0 m 283 39 l 401 39 q 508 79 471 39 q 546 190 546 119 l 546 518 q 508 629 546 589 q 401 669 471 669 l 283 669 q 176 629 214 669 q 139 518 139 589 l 139 190 q 176 79 139 119 q 283 39 214 39 z "},"p":{"ha":692,"x_min":111,"x_max":594,"o":"m 142 -212 l 122 -212 q 111 -200 111 -212 l 111 696 q 122 708 111 708 l 142 708 q 153 696 153 708 l 153 636 l 158 636 q 306 708 197 708 l 408 708 q 544 657 493 708 q 594 519 594 606 l 594 189 q 544 51 594 103 q 408 0 493 0 l 306 0 q 158 72 197 0 l 153 72 l 153 -200 q 142 -212 153 -212 m 308 39 l 408 39 q 515 79 478 39 q 553 190 553 119 l 553 518 q 515 629 553 589 q 408 669 478 669 l 308 669 q 196 632 239 669 q 153 525 153 594 l 153 183 q 196 76 153 114 q 308 39 239 39 z "},"q":{"ha":692,"x_min":97,"x_max":581,"o":"m 539 190 l 539 658 q 526 669 539 669 l 283 669 q 176 629 214 669 q 139 518 139 589 l 139 190 q 176 79 139 119 q 283 39 214 39 l 381 39 q 495 80 451 39 q 539 190 539 121 m 381 0 l 283 0 q 148 51 199 0 q 97 189 97 103 l 97 519 q 148 657 97 606 q 283 708 199 708 l 569 708 q 581 696 581 708 l 581 -200 q 569 -212 581 -212 l 550 -212 q 539 -200 539 -212 l 539 75 l 533 75 q 484 22 514 40 q 434 2 454 4 q 381 0 414 0 z "},"r":{"ha":421,"x_min":111,"x_max":379,"o":"m 142 0 l 122 0 q 111 13 111 0 l 111 696 q 122 708 111 708 l 142 708 q 153 696 153 708 l 153 633 l 158 633 q 212 685 174 661 q 311 708 250 708 l 367 708 q 379 697 379 708 l 379 681 q 367 669 379 669 l 310 669 q 196 625 239 669 q 153 504 153 581 l 153 13 q 142 0 153 0 z "},"s":{"ha":596,"x_min":75,"x_max":513,"o":"m 331 0 l 94 0 q 82 11 82 0 l 82 28 q 94 39 82 39 l 331 39 q 471 150 471 39 l 471 192 q 453 275 471 243 q 388 324 435 307 l 204 388 q 103 449 132 413 q 75 553 75 486 q 244 708 75 708 l 468 708 q 481 697 481 708 l 481 681 q 468 669 481 669 l 244 669 q 149 640 181 669 q 118 574 118 611 l 118 536 q 141 467 118 492 q 213 426 164 443 l 394 361 q 490 293 468 340 q 513 161 513 246 q 468 38 513 76 q 331 0 424 0 z "},"t":{"ha":481,"x_min":42,"x_max":418,"o":"m 146 669 l 54 669 q 42 681 42 669 l 42 697 q 54 708 42 708 l 146 708 q 158 719 158 708 l 158 828 q 169 840 158 840 l 189 840 q 200 828 200 840 l 200 719 q 213 708 200 708 l 392 708 q 404 697 404 708 l 404 681 q 392 669 404 669 l 213 669 q 200 658 200 669 l 200 186 q 241 78 200 117 q 353 39 282 39 l 406 39 q 418 28 418 39 l 418 11 q 406 0 418 0 l 353 0 q 213 50 267 0 q 158 185 158 100 l 158 658 q 146 669 158 669 z "},"u":{"ha":699,"x_min":104,"x_max":588,"o":"m 393 0 l 290 0 q 155 51 206 0 q 104 189 104 103 l 104 696 q 115 708 104 708 l 135 708 q 146 696 146 708 l 146 190 q 183 79 146 119 q 290 39 221 39 l 390 39 q 503 76 460 39 q 546 183 546 114 l 546 696 q 557 708 546 708 l 576 708 q 588 696 588 708 l 588 13 q 576 0 588 0 l 557 0 q 546 13 546 0 l 546 72 l 540 72 q 393 0 501 0 z "},"v":{"ha":558,"x_min":29,"x_max":529,"o":"m 38 708 l 60 708 q 74 696 69 708 l 276 57 l 282 57 l 485 696 q 499 708 489 708 l 521 708 q 529 696 533 708 l 310 13 q 294 0 306 0 l 264 0 q 249 13 253 0 l 29 696 q 38 708 25 708 z "},"w":{"ha":943,"x_min":29,"x_max":914,"o":"m 281 0 l 253 0 q 238 13 242 0 l 29 696 q 38 708 25 708 l 58 708 q 72 696 68 708 l 264 57 l 269 57 l 447 696 q 463 708 450 708 l 482 708 q 497 696 494 708 l 672 57 l 678 57 l 869 696 q 883 708 874 708 l 906 708 q 914 696 918 708 l 706 13 q 690 0 701 0 l 661 0 q 646 13 650 0 l 474 631 l 468 631 l 296 13 q 281 0 292 0 z "},"x":{"ha":556,"x_min":39,"x_max":517,"o":"m 71 0 l 43 0 q 39 13 31 0 l 247 361 l 51 696 q 56 708 43 708 l 82 708 q 100 696 92 708 l 275 393 l 281 393 l 451 696 q 469 708 460 708 l 496 708 q 500 696 508 708 l 307 364 l 517 13 q 513 0 525 0 l 481 0 q 467 13 475 0 l 281 333 l 275 333 l 89 13 q 71 0 81 0 z "},"y":{"ha":633,"x_min":43,"x_max":590,"o":"m 82 -204 q 69 -193 69 -204 l 69 -176 q 82 -165 69 -165 l 122 -165 q 201 -145 178 -165 q 235 -116 224 -125 q 259 -80 246 -107 q 276 -44 272 -53 q 308 38 301 11 l 294 38 q 279 50 283 38 l 43 696 q 51 708 39 708 l 74 708 q 88 696 83 708 l 314 78 l 319 78 l 546 696 q 560 708 550 708 l 582 708 q 590 696 594 708 l 354 50 q 289 -110 311 -74 q 122 -204 229 -203 l 82 -204 z "},"z":{"ha":546,"x_min":49,"x_max":497,"o":"m 49 11 l 49 24 q 51 36 49 32 l 433 664 l 433 669 l 69 669 q 57 681 57 669 l 57 697 q 69 708 57 708 l 476 708 q 489 697 489 708 l 489 681 q 486 669 489 674 l 106 44 l 106 39 l 485 39 q 497 28 497 39 l 497 11 q 485 0 497 0 l 61 0 q 49 11 49 0 z "},"{":{"ha":407,"x_min":56,"x_max":324,"o":"m 306 893 l 311 893 q 324 882 324 893 l 324 865 q 311 854 324 854 l 306 854 q 226 816 249 854 q 203 703 203 778 l 203 507 q 131 375 203 399 q 203 243 203 351 l 203 49 q 226 -65 203 -26 q 306 -103 249 -103 l 311 -103 q 324 -114 324 -103 l 324 -131 q 311 -142 324 -142 l 306 -142 q 197 -92 233 -142 q 161 47 161 -42 l 161 242 q 138 329 161 303 q 68 356 115 356 q 56 367 56 356 l 56 383 q 68 394 56 394 q 138 421 115 394 q 161 508 161 447 l 161 704 q 197 843 161 793 q 306 893 233 893 z "},"|":{"ha":278,"x_min":118,"x_max":160,"o":"m 160 881 l 160 13 q 149 0 160 0 l 129 0 q 118 13 118 0 l 118 881 q 129 893 118 893 l 149 893 q 160 881 160 893 z "},"}":{"ha":407,"x_min":56,"x_max":324,"o":"m 218 704 l 218 508 q 241 421 218 447 q 311 394 264 394 q 324 383 324 394 l 324 367 q 311 356 324 356 q 241 329 264 356 q 218 242 218 303 l 218 47 q 182 -92 218 -42 q 74 -142 146 -142 l 68 -142 q 56 -131 56 -142 l 56 -114 q 68 -103 56 -103 l 74 -103 q 153 -65 131 -103 q 176 49 176 -26 l 176 243 q 249 375 176 351 q 176 507 176 399 l 176 703 q 153 816 176 778 q 74 854 131 854 l 68 854 q 56 865 56 854 l 56 882 q 68 893 56 893 l 74 893 q 182 843 146 893 q 218 704 218 793 z "},"~":{"ha":711,"x_min":97,"x_max":614,"o":"m 353 431 q 308 441 353 431 q 228 451 263 451 q 108 424 193 451 q 97 438 97 424 l 97 450 q 132 475 97 460 q 219 490 167 490 q 360 470 271 490 q 483 450 449 450 q 603 478 518 450 q 614 464 614 478 l 614 451 q 579 426 614 442 q 494 411 544 411 q 353 431 444 411 z "}," ":{"ha":389,"x_min":0,"x_max":0,"o":""},"¡":{"ha":329,"x_min":139,"x_max":190,"o":"m 176 703 l 153 703 q 142 715 142 703 l 142 881 q 153 893 142 893 l 176 893 q 188 881 188 893 l 188 715 q 176 703 188 703 m 161 611 l 167 611 q 177 590 174 611 q 185 411 181 569 q 190 129 190 253 l 190 13 q 179 0 190 0 l 150 0 q 139 13 139 0 l 139 129 q 151 596 139 504 q 161 611 154 611 z "},"¢":{"ha":569,"x_min":97,"x_max":521,"o":"m 371 -124 l 351 -124 q 340 -111 340 -124 l 340 0 l 283 0 q 148 51 199 0 q 97 189 97 103 l 97 519 q 148 657 97 606 q 283 708 199 708 l 340 708 l 340 840 q 351 853 340 853 l 371 853 q 382 840 382 853 l 382 708 l 508 708 q 521 697 521 708 l 521 681 q 508 669 521 669 l 283 669 q 176 629 214 669 q 139 518 139 589 l 139 190 q 176 79 139 119 q 283 39 214 39 l 508 39 q 521 28 521 39 l 521 11 q 508 0 521 0 l 382 0 l 382 -111 q 371 -124 382 -124 z "},"£":{"ha":722,"x_min":56,"x_max":625,"o":"m 161 39 l 613 39 q 625 28 625 39 l 625 11 q 613 0 625 0 l 68 0 q 56 11 56 0 l 56 28 q 68 39 56 39 l 85 39 q 135 69 113 39 q 158 139 158 99 l 158 389 l 68 389 q 56 400 56 389 l 56 417 q 68 428 56 428 l 158 428 l 158 708 q 209 844 158 794 q 344 893 260 893 l 435 893 q 570 844 519 893 q 621 708 621 794 l 621 668 q 610 656 621 656 l 590 656 q 579 668 579 656 l 579 707 q 542 816 579 778 q 435 854 504 854 l 344 854 q 238 816 275 854 q 200 707 200 778 l 200 428 l 444 428 q 457 417 457 428 l 457 400 q 444 389 457 389 l 200 389 l 200 142 q 192 82 200 106 q 161 44 178 44 l 161 39 z "},"¥":{"ha":676,"x_min":43,"x_max":632,"o":"m 347 0 l 328 0 q 317 13 317 0 l 317 243 l 58 243 q 46 254 46 243 l 46 271 q 58 282 46 282 l 317 282 l 317 340 l 268 438 l 58 438 q 46 449 46 438 l 46 465 q 58 476 46 476 l 249 476 l 43 881 q 50 893 38 893 l 76 893 q 92 881 86 893 l 335 394 l 340 394 l 583 881 q 599 893 589 893 l 625 893 q 632 881 639 893 l 428 476 l 617 476 q 629 465 629 476 l 629 449 q 617 438 629 438 l 408 438 l 358 340 l 358 282 l 617 282 q 629 271 629 282 l 629 254 q 617 243 629 243 l 358 243 l 358 13 q 347 0 358 0 z "},"¦":{"ha":268,"x_min":111,"x_max":157,"o":"m 157 881 l 157 535 q 146 522 157 522 l 122 522 q 111 535 111 522 l 111 881 q 122 893 111 893 l 146 893 q 157 881 157 893 m 157 358 l 157 13 q 146 0 157 0 l 122 0 q 111 13 111 0 l 111 358 q 122 371 111 371 l 146 371 q 157 358 157 371 z "},"§":{"ha":617,"x_min":83,"x_max":533,"o":"m 492 421 q 464 501 492 475 q 381 536 436 526 l 226 563 q 125 611 160 576 l 125 483 q 233 360 125 379 l 388 333 q 492 290 456 322 l 492 421 m 351 0 l 101 0 q 89 11 89 0 l 89 28 q 101 39 89 39 l 351 39 q 463 77 435 39 q 492 175 492 115 q 464 260 492 235 q 381 296 436 286 l 226 322 q 83 483 83 350 l 83 724 q 251 893 83 893 l 475 893 q 488 882 488 893 l 488 865 q 475 854 488 854 l 251 854 q 158 820 192 854 q 125 727 125 786 q 148 640 125 668 q 233 600 171 611 l 388 574 q 496 526 458 561 q 533 421 533 492 l 533 185 q 494 49 533 99 q 351 0 456 0 z "},"¨":{"ha":453,"x_min":97,"x_max":356,"o":"m 97 810 l 97 964 q 108 976 97 976 l 128 976 q 139 964 139 976 l 139 810 q 128 797 139 797 l 108 797 q 97 810 97 797 m 314 810 l 314 964 q 325 976 314 976 l 344 976 q 356 964 356 976 l 356 810 q 344 797 356 797 l 325 797 q 314 810 314 797 z "},"©":{"ha":1011,"x_min":104,"x_max":907,"o":"m 688 558 l 688 533 q 676 521 688 521 l 657 521 q 646 533 646 521 l 646 557 q 616 653 646 626 q 515 681 586 681 l 486 681 q 385 653 415 681 q 356 557 356 626 l 356 326 q 385 230 356 257 q 486 203 415 203 l 515 203 q 616 230 586 203 q 646 326 646 257 l 646 358 q 657 371 646 371 l 676 371 q 688 358 688 371 l 688 325 q 644 202 688 240 q 515 164 601 164 l 486 164 q 357 202 400 164 q 314 325 314 240 l 314 558 q 357 681 314 643 q 486 719 400 719 l 515 719 q 644 681 601 719 q 688 558 688 643 m 290 39 l 721 39 q 828 79 790 39 q 865 190 865 119 l 865 703 q 828 814 865 774 q 721 854 790 854 l 290 854 q 183 814 221 854 q 146 703 146 774 l 146 190 q 183 79 146 119 q 290 39 221 39 m 290 893 l 721 893 q 856 842 806 893 q 907 704 907 790 l 907 189 q 856 51 907 103 q 721 0 806 0 l 290 0 q 155 51 206 0 q 104 189 104 103 l 104 704 q 155 842 104 790 q 290 893 206 893 z "},"«":{"ha":590,"x_min":97,"x_max":493,"o":"m 493 156 l 493 133 q 488 122 493 125 q 478 126 483 119 l 293 318 q 281 344 281 333 l 281 364 q 293 390 281 375 l 478 582 q 488 586 483 589 q 493 575 493 583 l 493 553 q 486 535 493 543 l 313 354 l 486 174 q 493 156 493 165 m 310 156 l 310 133 q 305 122 310 125 q 294 126 300 119 l 110 318 q 97 344 97 333 l 97 364 q 110 390 97 375 l 294 582 q 305 586 300 589 q 310 575 310 583 l 310 553 q 303 535 310 543 l 129 354 l 303 174 q 310 156 310 165 z "},"®":{"ha":597,"x_min":97,"x_max":500,"o":"m 324 868 l 258 868 l 258 772 l 324 772 q 351 801 351 772 l 351 840 q 324 868 351 868 m 226 663 l 226 885 q 238 897 226 897 l 324 897 q 367 881 351 897 q 383 836 383 864 l 383 804 q 347 746 383 758 l 386 663 q 382 650 392 650 l 368 650 q 356 658 358 650 l 317 743 l 258 743 l 258 663 q 247 650 258 650 l 238 650 q 226 663 226 650 m 243 599 l 353 599 q 437 631 407 599 q 467 718 467 663 l 467 826 q 437 914 467 882 q 353 946 407 946 l 243 946 q 159 914 189 946 q 129 826 129 882 l 129 718 q 159 631 129 663 q 243 599 189 599 m 353 568 l 243 568 q 137 608 176 568 q 97 717 97 649 l 97 828 q 137 936 97 896 q 243 976 176 976 l 353 976 q 460 936 419 976 q 500 828 500 896 l 500 717 q 460 608 500 649 q 353 568 419 568 z "},"¯":{"ha":503,"x_min":97,"x_max":406,"o":"m 393 871 l 110 871 q 97 882 97 871 l 97 894 q 110 906 97 906 l 393 906 q 406 894 406 906 l 406 882 q 393 871 406 871 z "},"°":{"ha":383,"x_min":97,"x_max":286,"o":"m 217 710 l 165 710 q 97 778 97 710 l 97 913 q 165 978 97 978 l 217 978 q 267 960 249 978 q 286 913 286 943 l 286 778 q 267 728 286 746 q 217 710 249 710 m 200 744 q 238 754 229 744 q 247 793 247 764 l 247 893 q 238 932 247 922 q 200 942 229 942 l 183 942 q 145 932 154 942 q 136 893 136 922 l 136 793 q 145 754 136 764 q 183 744 154 744 l 200 744 z "},"±":{"ha":711,"x_min":97,"x_max":614,"o":"m 376 525 l 601 525 q 614 514 614 525 l 614 497 q 601 486 614 486 l 376 486 l 376 319 q 365 307 376 307 l 346 307 q 335 319 335 307 l 335 486 l 110 486 q 97 497 97 486 l 97 514 q 110 525 97 525 l 335 525 l 335 692 q 346 704 335 704 l 365 704 q 376 692 376 704 l 376 525 m 110 226 l 601 226 q 614 215 614 226 l 614 199 q 601 188 614 188 l 110 188 q 97 199 97 188 l 97 215 q 110 226 97 226 z "},"´":{"ha":363,"x_min":100,"x_max":265,"o":"m 215 976 l 257 976 q 265 973 263 976 q 263 964 267 969 l 135 808 q 115 797 126 797 l 104 797 q 100 810 93 797 l 194 964 q 215 976 200 976 z "},"¶":{"ha":700,"x_min":69,"x_max":575,"o":"m 267 0 l 247 0 q 236 13 236 0 l 236 449 q 111 488 153 450 q 69 610 69 526 l 69 732 q 113 855 69 817 q 242 893 156 893 l 563 893 q 575 882 575 893 l 575 13 q 564 0 575 0 l 544 0 q 533 13 533 0 l 533 840 q 521 851 533 851 l 290 851 q 278 840 278 851 l 278 13 q 267 0 278 0 z "},"·":{"ha":288,"x_min":118,"x_max":169,"o":"m 169 525 l 169 360 q 158 347 169 347 l 129 347 q 118 360 118 347 l 118 525 q 129 538 118 538 l 158 538 q 169 525 169 538 z "},"¸":{"ha":353,"x_min":99,"x_max":256,"o":"m 146 -75 q 228 -93 201 -75 q 256 -154 256 -111 l 256 -168 q 146 -247 256 -247 l 119 -247 q 107 -236 107 -247 l 107 -222 q 119 -211 107 -211 l 142 -211 q 218 -164 218 -211 l 218 -161 q 201 -122 218 -133 q 142 -111 185 -111 l 129 -111 q 99 -94 106 -111 q 107 -62 92 -78 l 188 28 l 236 28 l 146 -69 l 146 -75 z "},"»":{"ha":590,"x_min":97,"x_max":493,"o":"m 281 553 l 281 575 q 285 586 281 583 q 296 582 289 589 l 481 390 q 493 364 493 375 l 493 344 q 481 318 493 333 l 296 126 q 285 122 289 119 q 281 133 281 125 l 281 156 q 288 174 281 165 l 461 354 l 288 535 q 281 553 281 543 m 97 553 l 97 575 q 101 586 97 583 q 113 582 106 589 l 297 390 q 310 364 310 375 l 310 344 q 297 318 310 333 l 113 126 q 101 122 106 119 q 97 133 97 125 l 97 156 q 104 174 97 165 l 278 354 l 104 535 q 97 553 97 543 z "},"¿":{"ha":660,"x_min":111,"x_max":549,"o":"m 290 714 l 290 879 q 301 892 290 892 l 331 892 q 342 879 342 892 l 342 714 q 331 701 342 701 l 301 701 q 290 714 290 701 m 294 543 l 294 597 q 306 610 294 610 l 325 610 q 336 597 336 610 l 336 549 q 320 457 336 489 q 253 381 304 425 l 210 342 q 153 232 153 293 l 153 186 q 190 77 153 115 q 297 39 228 39 l 363 39 q 469 77 432 39 q 507 186 507 115 l 507 251 q 518 264 507 264 l 538 264 q 549 251 549 264 l 549 185 q 498 49 549 99 q 363 0 447 0 l 297 0 q 162 49 213 0 q 111 185 111 99 l 111 233 q 178 365 111 310 l 233 413 q 285 472 275 447 q 294 543 294 496 z "},"À":{"ha":731,"x_min":43,"x_max":688,"o":"m 365 982 l 354 982 q 335 993 343 982 l 207 1149 q 205 1158 203 1154 q 213 1161 207 1161 l 254 1161 q 275 1149 269 1161 l 369 994 q 365 982 376 982 m 71 0 l 51 0 q 43 13 39 0 l 335 881 q 349 893 339 893 l 382 893 q 396 881 392 893 l 688 13 q 679 0 692 0 l 658 0 q 644 13 649 0 l 560 254 l 171 254 l 86 13 q 71 0 81 0 m 363 840 l 186 296 l 544 296 l 368 840 l 363 840 z "},"Á":{"ha":731,"x_min":43,"x_max":688,"o":"m 478 1161 l 519 1161 q 527 1158 525 1161 q 525 1149 529 1154 l 397 993 q 378 982 389 982 l 367 982 q 363 994 356 982 l 457 1149 q 478 1161 464 1161 m 71 0 l 51 0 q 43 13 39 0 l 335 881 q 349 893 339 893 l 382 893 q 396 881 392 893 l 688 13 q 679 0 692 0 l 658 0 q 644 13 649 0 l 560 254 l 171 254 l 86 13 q 71 0 81 0 m 363 840 l 186 296 l 544 296 l 368 840 l 363 840 z "},"Â":{"ha":731,"x_min":43,"x_max":688,"o":"m 482 982 l 463 982 q 447 989 450 982 l 365 1135 l 283 989 q 268 982 281 982 l 249 982 q 243 997 233 982 l 332 1149 q 358 1161 340 1161 l 372 1161 q 399 1149 390 1161 l 488 997 q 482 982 497 982 m 71 0 l 51 0 q 43 13 39 0 l 335 881 q 349 893 339 893 l 382 893 q 396 881 392 893 l 688 13 q 679 0 692 0 l 658 0 q 644 13 649 0 l 560 254 l 171 254 l 86 13 q 71 0 81 0 m 363 840 l 186 296 l 544 296 l 368 840 l 363 840 z "},"Ã":{"ha":731,"x_min":43,"x_max":688,"o":"m 379 1051 q 373 1030 379 1051 q 349 992 367 1008 q 293 975 332 975 q 238 999 254 975 q 222 1083 222 1024 l 222 1138 q 233 1150 222 1150 l 243 1150 q 254 1138 254 1150 l 254 1085 q 263 1022 254 1039 q 296 1004 272 1004 q 328 1018 319 1004 q 352 1078 338 1032 q 383 1140 367 1125 q 438 1154 399 1154 q 492 1130 476 1154 q 508 1046 508 1106 l 508 988 q 497 975 508 975 l 488 975 q 476 988 476 975 l 476 1044 q 467 1108 476 1090 q 432 1125 458 1125 q 394 1100 406 1125 q 379 1051 392 1093 m 71 0 l 51 0 q 43 13 39 0 l 335 881 q 349 893 339 893 l 382 893 q 396 881 392 893 l 688 13 q 679 0 692 0 l 658 0 q 644 13 649 0 l 560 254 l 171 254 l 86 13 q 71 0 81 0 m 363 840 l 186 296 l 544 296 l 368 840 l 363 840 z "},"Ä":{"ha":731,"x_min":43,"x_max":688,"o":"m 236 994 l 236 1149 q 247 1161 236 1161 l 267 1161 q 278 1149 278 1161 l 278 994 q 267 982 278 982 l 247 982 q 236 994 236 982 m 453 994 l 453 1149 q 464 1161 453 1161 l 483 1161 q 494 1149 494 1161 l 494 994 q 483 982 494 982 l 464 982 q 453 994 453 982 m 71 0 l 51 0 q 43 13 39 0 l 335 881 q 349 893 339 893 l 382 893 q 396 881 392 893 l 688 13 q 679 0 692 0 l 658 0 q 644 13 649 0 l 560 254 l 171 254 l 86 13 q 71 0 81 0 m 363 840 l 186 296 l 544 296 l 368 840 l 363 840 z "},"Å":{"ha":731,"x_min":43,"x_max":688,"o":"m 369 961 l 356 961 q 277 990 304 961 q 250 1071 250 1018 l 250 1101 q 277 1182 250 1154 q 356 1210 304 1210 l 369 1210 q 449 1181 421 1210 q 478 1101 478 1153 l 478 1071 q 449 990 478 1019 q 369 961 421 961 m 356 993 l 369 993 q 443 1072 443 993 l 443 1100 q 369 1178 443 1178 l 356 1178 q 283 1100 283 1178 l 283 1072 q 356 993 283 993 m 71 0 l 51 0 q 43 13 39 0 l 335 881 q 349 893 339 893 l 382 893 q 396 881 392 893 l 688 13 q 679 0 692 0 l 658 0 q 644 13 649 0 l 560 254 l 171 254 l 86 13 q 71 0 81 0 m 363 840 l 186 296 l 544 296 l 368 840 l 363 840 z "},"Æ":{"ha":1071,"x_min":1,"x_max":974,"o":"m 33 0 l 7 0 q 1 13 -6 0 l 494 881 q 514 893 501 893 l 961 893 q 974 882 974 893 l 974 865 q 961 854 974 854 l 582 854 q 569 843 569 854 l 569 486 q 582 475 569 475 l 925 475 q 938 464 938 475 l 938 447 q 925 436 938 436 l 582 436 q 569 425 569 436 l 569 50 q 582 39 569 39 l 961 39 q 974 28 974 39 l 974 11 q 961 0 974 0 l 539 0 q 528 13 528 0 l 528 254 l 188 254 l 50 13 q 33 0 43 0 m 528 296 l 528 843 l 522 843 l 211 296 l 528 296 z "},"Ç":{"ha":754,"x_min":111,"x_max":664,"o":"m 653 622 l 633 622 q 622 635 622 622 l 622 703 q 585 814 622 774 q 478 854 547 854 l 297 854 q 190 814 228 854 q 153 703 153 774 l 153 190 q 190 79 153 119 q 297 39 228 39 l 478 39 q 585 79 547 39 q 622 190 622 119 l 622 258 q 633 271 622 271 l 653 271 q 664 258 664 271 l 664 189 q 613 51 664 103 q 478 0 563 0 l 442 0 l 378 -69 l 378 -75 q 460 -93 433 -75 q 488 -154 488 -111 l 488 -168 q 378 -247 488 -247 l 351 -247 q 339 -236 339 -247 l 339 -222 q 351 -211 339 -211 l 374 -211 q 433 -201 415 -211 q 450 -164 450 -190 l 450 -161 q 433 -122 450 -133 q 374 -111 417 -111 l 361 -111 q 330 -94 336 -111 q 339 -62 324 -78 l 394 0 l 297 0 q 162 51 213 0 q 111 189 111 103 l 111 704 q 162 842 111 790 q 297 893 213 893 l 478 893 q 613 842 563 893 q 664 704 664 790 l 664 635 q 653 622 664 622 z "},"È":{"ha":668,"x_min":125,"x_max":571,"o":"m 372 982 l 361 982 q 342 993 350 982 l 214 1149 q 212 1158 210 1154 q 219 1161 214 1161 l 261 1161 q 282 1149 275 1161 l 376 994 q 372 982 383 982 m 558 0 l 136 0 q 125 13 125 0 l 125 881 q 136 893 125 893 l 558 893 q 571 882 571 893 l 571 865 q 558 854 571 854 l 179 854 q 167 843 167 854 l 167 486 q 179 475 167 475 l 522 475 q 535 464 535 475 l 535 447 q 522 436 535 436 l 179 436 q 167 425 167 436 l 167 50 q 179 39 167 39 l 558 39 q 571 28 571 39 l 571 11 q 558 0 571 0 z "},"É":{"ha":668,"x_min":125,"x_max":571,"o":"m 443 1161 l 485 1161 q 492 1158 490 1161 q 490 1149 494 1154 l 363 993 q 343 982 354 982 l 332 982 q 328 994 321 982 l 422 1149 q 443 1161 428 1161 m 558 0 l 136 0 q 125 13 125 0 l 125 881 q 136 893 125 893 l 558 893 q 571 882 571 893 l 571 865 q 558 854 571 854 l 179 854 q 167 843 167 854 l 167 486 q 179 475 167 475 l 522 475 q 535 464 535 475 l 535 447 q 522 436 535 436 l 179 436 q 167 425 167 436 l 167 50 q 179 39 167 39 l 558 39 q 571 28 571 39 l 571 11 q 558 0 571 0 z "},"Ê":{"ha":668,"x_min":125,"x_max":571,"o":"m 464 982 l 444 982 q 429 989 433 982 l 347 1135 l 265 989 q 250 982 261 982 l 231 982 q 225 997 215 982 l 314 1149 q 340 1161 322 1161 l 354 1161 q 381 1149 372 1161 l 469 997 q 464 982 479 982 m 558 0 l 136 0 q 125 13 125 0 l 125 881 q 136 893 125 893 l 558 893 q 571 882 571 893 l 571 865 q 558 854 571 854 l 179 854 q 167 843 167 854 l 167 486 q 179 475 167 475 l 522 475 q 535 464 535 475 l 535 447 q 522 436 535 436 l 179 436 q 167 425 167 436 l 167 50 q 179 39 167 39 l 558 39 q 571 28 571 39 l 571 11 q 558 0 571 0 z "},"Ë":{"ha":668,"x_min":125,"x_max":571,"o":"m 218 994 l 218 1149 q 229 1161 218 1161 l 249 1161 q 260 1149 260 1161 l 260 994 q 249 982 260 982 l 229 982 q 218 994 218 982 m 435 994 l 435 1149 q 446 1161 435 1161 l 465 1161 q 476 1149 476 1161 l 476 994 q 465 982 476 982 l 446 982 q 435 994 435 982 m 558 0 l 136 0 q 125 13 125 0 l 125 881 q 136 893 125 893 l 558 893 q 571 882 571 893 l 571 865 q 558 854 571 854 l 179 854 q 167 843 167 854 l 167 486 q 179 475 167 475 l 522 475 q 535 464 535 475 l 535 447 q 522 436 535 436 l 179 436 q 167 425 167 436 l 167 50 q 179 39 167 39 l 558 39 q 571 28 571 39 l 571 11 q 558 0 571 0 z "},"Ì":{"ha":306,"x_min":-1,"x_max":174,"o":"m 160 982 l 149 982 q 129 993 138 982 l 1 1149 q -1 1158 -3 1154 q 7 1161 1 1161 l 49 1161 q 69 1149 64 1161 l 164 994 q 160 982 171 982 m 174 881 l 174 13 q 163 0 174 0 l 143 0 q 132 13 132 0 l 132 881 q 143 893 132 893 l 163 893 q 174 881 174 893 z "},"Í":{"ha":307,"x_min":132,"x_max":308,"o":"m 258 1161 l 300 1161 q 308 1158 306 1161 q 306 1149 310 1154 l 178 993 q 158 982 169 982 l 147 982 q 143 994 136 982 l 238 1149 q 258 1161 244 1161 m 174 881 l 174 13 q 163 0 174 0 l 143 0 q 132 13 132 0 l 132 881 q 143 893 132 893 l 163 893 q 174 881 174 893 z "},"Î":{"ha":306,"x_min":31,"x_max":275,"o":"m 269 982 l 250 982 q 235 989 239 982 l 153 1135 l 71 989 q 56 982 67 982 l 36 982 q 31 997 21 982 l 119 1149 q 146 1161 128 1161 l 160 1161 q 186 1149 178 1161 l 275 997 q 269 982 285 982 m 174 881 l 174 13 q 163 0 174 0 l 143 0 q 132 13 132 0 l 132 881 q 143 893 132 893 l 163 893 q 174 881 174 893 z "},"Ï":{"ha":306,"x_min":24,"x_max":282,"o":"m 24 994 l 24 1149 q 35 1161 24 1161 l 54 1161 q 65 1149 65 1161 l 65 994 q 54 982 65 982 l 35 982 q 24 994 24 982 m 240 994 l 240 1149 q 251 1161 240 1161 l 271 1161 q 282 1149 282 1161 l 282 994 q 271 982 282 982 l 251 982 q 240 994 240 982 m 174 881 l 174 13 q 163 0 174 0 l 143 0 q 132 13 132 0 l 132 881 q 143 893 132 893 l 163 893 q 174 881 174 893 z "},"Ð":{"ha":694,"x_min":36,"x_max":664,"o":"m 179 39 l 478 39 q 585 79 547 39 q 622 190 622 119 l 622 703 q 585 814 622 774 q 478 854 547 854 l 179 854 q 167 843 167 854 l 167 483 q 179 472 167 472 l 410 472 q 422 461 422 472 l 422 444 q 410 433 422 433 l 179 433 q 167 422 167 433 l 167 50 q 179 39 167 39 m 478 0 l 136 0 q 125 13 125 0 l 125 422 q 113 433 125 433 l 49 433 q 36 444 36 433 l 36 461 q 49 472 36 472 l 113 472 q 125 483 125 472 l 125 881 q 136 893 125 893 l 478 893 q 613 842 563 893 q 664 704 664 790 l 664 189 q 613 51 664 103 q 478 0 563 0 z "},"Ñ":{"ha":803,"x_min":125,"x_max":678,"o":"m 415 1051 q 409 1030 415 1051 q 385 992 403 1008 q 329 975 368 975 q 274 999 290 975 q 258 1083 258 1024 l 258 1138 q 269 1150 258 1150 l 279 1150 q 290 1138 290 1150 l 290 1085 q 299 1022 290 1039 q 332 1004 308 1004 q 365 1018 356 1004 q 388 1078 374 1032 q 419 1140 403 1125 q 474 1154 435 1154 q 528 1130 513 1154 q 544 1046 544 1106 l 544 988 q 533 975 544 975 l 524 975 q 513 988 513 975 l 513 1044 q 503 1108 513 1090 q 468 1125 494 1125 q 431 1100 442 1125 q 415 1051 428 1093 m 156 0 l 136 0 q 125 13 125 0 l 125 881 q 136 893 125 893 l 156 893 q 165 888 163 893 l 631 100 l 636 100 l 636 881 q 647 893 636 893 l 667 893 q 678 881 678 893 l 678 13 q 667 0 678 0 l 653 0 q 636 11 643 0 l 172 796 l 167 796 l 167 13 q 156 0 167 0 z "},"Ò":{"ha":768,"x_min":111,"x_max":657,"o":"m 397 982 l 386 982 q 367 993 375 982 l 239 1149 q 237 1158 235 1154 q 244 1161 239 1161 l 286 1161 q 307 1149 300 1161 l 401 994 q 397 982 408 982 m 297 39 l 471 39 q 578 79 540 39 q 615 190 615 119 l 615 703 q 578 814 615 774 q 471 854 540 854 l 297 854 q 190 814 228 854 q 153 703 153 774 l 153 190 q 190 79 153 119 q 297 39 228 39 m 471 0 l 297 0 q 162 51 213 0 q 111 189 111 103 l 111 704 q 162 842 111 790 q 297 893 213 893 l 471 893 q 606 842 556 893 q 657 704 657 790 l 657 189 q 606 51 657 103 q 471 0 556 0 z "},"Ó":{"ha":768,"x_min":111,"x_max":657,"o":"m 479 1161 l 521 1161 q 528 1158 526 1161 q 526 1149 531 1154 l 399 993 q 379 982 390 982 l 368 982 q 364 994 357 982 l 458 1149 q 479 1161 464 1161 m 297 39 l 471 39 q 578 79 540 39 q 615 190 615 119 l 615 703 q 578 814 615 774 q 471 854 540 854 l 297 854 q 190 814 228 854 q 153 703 153 774 l 153 190 q 190 79 153 119 q 297 39 228 39 m 471 0 l 297 0 q 162 51 213 0 q 111 189 111 103 l 111 704 q 162 842 111 790 q 297 893 213 893 l 471 893 q 606 842 556 893 q 657 704 657 790 l 657 189 q 606 51 657 103 q 471 0 556 0 z "},"Ô":{"ha":768,"x_min":111,"x_max":657,"o":"m 500 982 l 481 982 q 465 989 469 982 l 383 1135 l 301 989 q 286 982 297 982 l 267 982 q 261 997 251 982 l 350 1149 q 376 1161 358 1161 l 390 1161 q 417 1149 408 1161 l 506 997 q 500 982 515 982 m 297 39 l 471 39 q 578 79 540 39 q 615 190 615 119 l 615 703 q 578 814 615 774 q 471 854 540 854 l 297 854 q 190 814 228 854 q 153 703 153 774 l 153 190 q 190 79 153 119 q 297 39 228 39 m 471 0 l 297 0 q 162 51 213 0 q 111 189 111 103 l 111 704 q 162 842 111 790 q 297 893 213 893 l 471 893 q 606 842 556 893 q 657 704 657 790 l 657 189 q 606 51 657 103 q 471 0 556 0 z "},"Õ":{"ha":768,"x_min":111,"x_max":657,"o":"m 397 1051 q 391 1030 397 1051 q 367 992 385 1008 q 311 975 350 975 q 256 999 272 975 q 240 1083 240 1024 l 240 1138 q 251 1150 240 1150 l 261 1150 q 272 1138 272 1150 l 272 1085 q 281 1022 272 1039 q 314 1004 290 1004 q 347 1018 338 1004 q 370 1078 356 1032 q 401 1140 385 1125 q 456 1154 417 1154 q 510 1130 494 1154 q 526 1046 526 1106 l 526 988 q 515 975 526 975 l 506 975 q 494 988 494 975 l 494 1044 q 485 1108 494 1090 q 450 1125 476 1125 q 413 1100 424 1125 q 397 1051 410 1093 m 297 39 l 471 39 q 578 79 540 39 q 615 190 615 119 l 615 703 q 578 814 615 774 q 471 854 540 854 l 297 854 q 190 814 228 854 q 153 703 153 774 l 153 190 q 190 79 153 119 q 297 39 228 39 m 471 0 l 297 0 q 162 51 213 0 q 111 189 111 103 l 111 704 q 162 842 111 790 q 297 893 213 893 l 471 893 q 606 842 556 893 q 657 704 657 790 l 657 189 q 606 51 657 103 q 471 0 556 0 z "},"Ö":{"ha":768,"x_min":111,"x_max":657,"o":"m 254 994 l 254 1149 q 265 1161 254 1161 l 285 1161 q 296 1149 296 1161 l 296 994 q 285 982 296 982 l 265 982 q 254 994 254 982 m 471 994 l 471 1149 q 482 1161 471 1161 l 501 1161 q 513 1149 513 1161 l 513 994 q 501 982 513 982 l 482 982 q 471 994 471 982 m 297 39 l 471 39 q 578 79 540 39 q 615 190 615 119 l 615 703 q 578 814 615 774 q 471 854 540 854 l 297 854 q 190 814 228 854 q 153 703 153 774 l 153 190 q 190 79 153 119 q 297 39 228 39 m 471 0 l 297 0 q 162 51 213 0 q 111 189 111 103 l 111 704 q 162 842 111 790 q 297 893 213 893 l 471 893 q 606 842 556 893 q 657 704 657 790 l 657 189 q 606 51 657 103 q 471 0 556 0 z "},"×":{"ha":674,"x_min":143,"x_max":529,"o":"m 367 446 l 529 283 q 529 267 539 274 l 515 253 q 499 253 508 243 l 336 415 l 174 253 q 157 253 164 243 l 143 267 q 143 283 133 274 l 306 446 l 143 608 q 143 625 133 618 l 157 639 q 174 639 164 649 l 336 476 l 499 639 q 515 639 508 649 l 529 625 q 529 608 539 618 l 367 446 z "},"Ø":{"ha":768,"x_min":68,"x_max":699,"o":"m 657 704 l 657 189 q 606 51 657 103 q 471 0 556 0 l 297 0 q 142 78 189 0 l 99 18 q 81 14 90 8 l 68 22 q 68 42 60 29 l 122 117 q 111 189 111 153 l 111 704 q 162 842 111 790 q 297 893 213 893 l 471 893 q 626 817 576 893 l 668 874 q 686 879 676 885 l 699 871 q 699 851 708 864 l 646 778 q 657 704 657 742 m 153 703 l 153 190 q 154 161 153 171 l 600 781 q 471 854 568 854 l 297 854 q 190 814 228 854 q 153 703 153 774 m 615 190 l 615 703 q 614 733 615 724 l 168 114 q 297 39 200 39 l 471 39 q 578 79 540 39 q 615 190 615 119 z "},"Ù":{"ha":764,"x_min":118,"x_max":646,"o":"m 406 982 l 394 982 q 375 993 383 982 l 247 1149 q 245 1158 243 1154 q 253 1161 247 1161 l 294 1161 q 315 1149 308 1161 l 410 994 q 406 982 417 982 m 615 893 l 635 893 q 646 882 646 893 l 646 189 q 595 51 646 103 q 460 0 544 0 l 304 0 q 169 51 219 0 q 118 189 118 103 l 118 881 q 129 893 118 893 l 149 893 q 160 881 160 893 l 160 190 q 197 79 160 119 q 304 39 235 39 l 460 39 q 567 79 529 39 q 604 190 604 119 l 604 881 q 615 893 604 893 z "},"Ú":{"ha":764,"x_min":118,"x_max":646,"o":"m 476 1161 l 518 1161 q 526 1158 524 1161 q 524 1149 528 1154 l 396 993 q 376 982 388 982 l 365 982 q 361 994 354 982 l 456 1149 q 476 1161 461 1161 m 615 893 l 635 893 q 646 882 646 893 l 646 189 q 595 51 646 103 q 460 0 544 0 l 304 0 q 169 51 219 0 q 118 189 118 103 l 118 881 q 129 893 118 893 l 149 893 q 160 881 160 893 l 160 190 q 197 79 160 119 q 304 39 235 39 l 460 39 q 567 79 529 39 q 604 190 604 119 l 604 881 q 615 893 604 893 z "},"Û":{"ha":764,"x_min":118,"x_max":646,"o":"m 499 982 l 479 982 q 464 989 467 982 l 382 1135 l 300 989 q 285 982 297 982 l 265 982 q 260 997 250 982 l 349 1149 q 375 1161 357 1161 l 389 1161 q 415 1149 407 1161 l 504 997 q 499 982 514 982 m 615 893 l 635 893 q 646 882 646 893 l 646 189 q 595 51 646 103 q 460 0 544 0 l 304 0 q 169 51 219 0 q 118 189 118 103 l 118 881 q 129 893 118 893 l 149 893 q 160 881 160 893 l 160 190 q 197 79 160 119 q 304 39 235 39 l 460 39 q 567 79 529 39 q 604 190 604 119 l 604 881 q 615 893 604 893 z "},"Ü":{"ha":764,"x_min":118,"x_max":646,"o":"m 253 994 l 253 1149 q 264 1161 253 1161 l 283 1161 q 294 1149 294 1161 l 294 994 q 283 982 294 982 l 264 982 q 253 994 253 982 m 469 994 l 469 1149 q 481 1161 469 1161 l 500 1161 q 511 1149 511 1161 l 511 994 q 500 982 511 982 l 481 982 q 469 994 469 982 m 615 893 l 635 893 q 646 882 646 893 l 646 189 q 595 51 646 103 q 460 0 544 0 l 304 0 q 169 51 219 0 q 118 189 118 103 l 118 881 q 129 893 118 893 l 149 893 q 160 881 160 893 l 160 190 q 197 79 160 119 q 304 39 235 39 l 460 39 q 567 79 529 39 q 604 190 604 119 l 604 881 q 615 893 604 893 z "},"Ý":{"ha":675,"x_min":43,"x_max":632,"o":"m 438 1161 l 479 1161 q 487 1158 485 1161 q 485 1149 489 1154 l 357 993 q 338 982 349 982 l 326 982 q 322 994 315 982 l 417 1149 q 438 1161 422 1161 m 347 0 l 328 0 q 317 13 317 0 l 317 340 l 43 881 q 50 893 36 893 l 75 893 q 90 881 85 893 l 335 394 l 340 394 l 585 881 q 600 893 590 893 l 625 893 q 632 881 639 893 l 358 340 l 358 13 q 347 0 358 0 z "},"Þ":{"ha":694,"x_min":174,"x_max":586,"o":"m 228 224 l 400 224 q 507 264 469 224 q 544 375 544 304 l 544 518 q 507 629 544 589 q 400 669 469 669 l 228 669 q 215 658 215 669 l 215 235 q 228 224 215 224 m 204 0 l 185 0 q 174 13 174 0 l 174 881 q 185 893 174 893 l 204 893 q 215 881 215 893 l 215 719 q 228 708 215 708 l 400 708 q 535 657 485 708 q 586 519 586 606 l 586 374 q 535 236 586 288 q 400 185 485 185 l 228 185 q 215 174 215 185 l 215 13 q 204 0 215 0 z "},"ß":{"ha":749,"x_min":118,"x_max":644,"o":"m 344 472 l 433 472 q 547 513 504 472 q 589 624 589 553 l 589 703 q 551 814 589 774 q 444 854 514 854 l 304 854 q 197 814 235 854 q 160 703 160 774 l 160 13 q 149 0 160 0 l 129 0 q 118 13 118 0 l 118 704 q 169 842 118 790 q 304 893 219 893 l 444 893 q 580 842 529 893 q 631 704 631 790 l 631 622 q 601 520 631 564 q 524 453 571 476 q 610 390 576 438 q 644 283 644 343 l 644 189 q 594 51 644 103 q 458 0 543 0 l 315 0 q 303 11 303 0 l 303 28 q 315 39 303 39 l 458 39 q 565 79 528 39 q 603 190 603 119 l 603 282 q 554 392 603 351 q 433 433 506 433 l 344 433 q 332 443 332 433 l 332 461 q 344 472 332 472 z "},"à":{"ha":692,"x_min":97,"x_max":581,"o":"m 397 797 l 386 797 q 367 808 375 797 l 239 964 q 237 973 235 969 q 244 976 239 976 l 286 976 q 307 964 300 976 l 401 810 q 397 797 408 797 m 386 0 l 283 0 q 148 51 199 0 q 97 189 97 103 l 97 519 q 148 657 97 606 q 283 708 199 708 l 569 708 q 581 696 581 708 l 581 13 q 569 0 581 0 l 550 0 q 539 13 539 0 l 539 72 l 533 72 q 386 0 494 0 m 539 183 l 539 658 q 526 669 539 669 l 283 669 q 176 629 214 669 q 139 518 139 589 l 139 190 q 176 79 139 119 q 283 39 214 39 l 383 39 q 496 76 453 39 q 539 183 539 114 z "},"á":{"ha":692,"x_min":97,"x_max":581,"o":"m 456 976 l 497 976 q 505 973 503 976 q 503 964 507 969 l 375 808 q 356 797 367 797 l 344 797 q 340 810 333 797 l 435 964 q 456 976 442 976 m 386 0 l 283 0 q 148 51 199 0 q 97 189 97 103 l 97 519 q 148 657 97 606 q 283 708 199 708 l 569 708 q 581 696 581 708 l 581 13 q 569 0 581 0 l 550 0 q 539 13 539 0 l 539 72 l 533 72 q 386 0 494 0 m 539 183 l 539 658 q 526 669 539 669 l 283 669 q 176 629 214 669 q 139 518 139 589 l 139 190 q 176 79 139 119 q 283 39 214 39 l 383 39 q 496 76 453 39 q 539 183 539 114 z "},"â":{"ha":692,"x_min":97,"x_max":581,"o":"m 479 797 l 460 797 q 444 804 447 797 l 363 950 l 281 804 q 265 797 278 797 l 246 797 q 240 813 231 797 l 329 964 q 356 976 338 976 l 369 976 q 396 964 388 976 l 485 813 q 479 797 494 797 m 386 0 l 283 0 q 148 51 199 0 q 97 189 97 103 l 97 519 q 148 657 97 606 q 283 708 199 708 l 569 708 q 581 696 581 708 l 581 13 q 569 0 581 0 l 550 0 q 539 13 539 0 l 539 72 l 533 72 q 386 0 494 0 m 539 183 l 539 658 q 526 669 539 669 l 283 669 q 176 629 214 669 q 139 518 139 589 l 139 190 q 176 79 139 119 q 283 39 214 39 l 383 39 q 496 76 453 39 q 539 183 539 114 z "},"ã":{"ha":694,"x_min":97,"x_max":581,"o":"m 233 910 l 233 964 q 244 976 233 976 l 254 976 q 265 964 265 976 l 265 911 q 274 848 265 865 q 307 831 283 831 q 340 844 331 831 q 363 905 349 858 q 394 966 378 951 q 449 981 410 981 q 503 956 488 981 q 519 872 519 932 l 519 814 q 508 801 519 801 l 499 801 q 488 814 488 801 l 488 871 q 478 934 488 917 q 443 951 469 951 q 406 926 417 951 q 390 877 403 919 q 360 818 378 835 q 304 801 343 801 q 249 826 265 801 q 233 910 233 850 m 386 0 l 283 0 q 148 51 199 0 q 97 189 97 103 l 97 519 q 148 657 97 606 q 283 708 199 708 l 569 708 q 581 696 581 708 l 581 13 q 569 0 581 0 l 550 0 q 539 13 539 0 l 539 72 l 533 72 q 386 0 494 0 m 539 183 l 539 658 q 526 669 539 669 l 283 669 q 176 629 214 669 q 139 518 139 589 l 139 190 q 176 79 139 119 q 283 39 214 39 l 383 39 q 496 76 453 39 q 539 183 539 114 z "},"ä":{"ha":692,"x_min":97,"x_max":581,"o":"m 239 810 l 239 964 q 250 976 239 976 l 269 976 q 281 964 281 976 l 281 810 q 269 797 281 797 l 250 797 q 239 810 239 797 m 456 810 l 456 964 q 467 976 456 976 l 486 976 q 497 964 497 976 l 497 810 q 486 797 497 797 l 467 797 q 456 810 456 797 m 386 0 l 283 0 q 148 51 199 0 q 97 189 97 103 l 97 519 q 148 657 97 606 q 283 708 199 708 l 569 708 q 581 696 581 708 l 581 13 q 569 0 581 0 l 550 0 q 539 13 539 0 l 539 72 l 533 72 q 386 0 494 0 m 539 183 l 539 658 q 526 669 539 669 l 283 669 q 176 629 214 669 q 139 518 139 589 l 139 190 q 176 79 139 119 q 283 39 214 39 l 383 39 q 496 76 453 39 q 539 183 539 114 z "},"å":{"ha":692,"x_min":97,"x_max":581,"o":"m 539 183 l 539 658 q 526 669 539 669 l 283 669 q 176 629 214 669 q 139 518 139 589 l 139 190 q 176 79 139 119 q 283 39 214 39 l 383 39 q 496 76 453 39 q 539 183 539 114 m 386 0 l 283 0 q 148 51 199 0 q 97 189 97 103 l 97 519 q 148 657 97 606 q 283 708 199 708 l 569 708 q 581 696 581 708 l 581 13 q 569 0 581 0 l 550 0 q 539 13 539 0 l 539 72 l 533 72 q 386 0 494 0 m 268 921 l 268 865 q 284 814 268 828 q 338 800 300 800 l 357 800 q 412 814 396 800 q 428 865 428 828 l 428 921 q 412 971 428 957 q 357 985 396 985 l 338 985 q 284 971 300 985 q 268 921 268 957 m 235 864 l 235 922 q 260 995 235 974 q 338 1017 285 1017 l 357 1017 q 463 922 463 1017 l 463 864 q 357 768 463 768 l 338 768 q 260 790 285 768 q 235 864 235 813 z "},"æ":{"ha":1119,"x_min":97,"x_max":1022,"o":"m 581 281 l 581 190 q 618 79 581 119 q 725 39 656 39 l 1010 39 q 1022 28 1022 39 l 1022 11 q 1010 0 1022 0 l 725 0 q 558 96 599 0 q 386 0 515 0 l 283 0 q 148 51 199 0 q 97 189 97 103 l 97 228 q 148 365 97 314 q 283 417 199 417 l 526 417 q 539 428 539 417 l 539 518 q 501 629 539 589 q 394 669 464 669 l 183 669 q 171 681 171 669 l 171 697 q 183 708 171 708 l 394 708 q 561 613 519 708 q 733 708 606 708 l 836 708 q 972 657 921 708 q 1022 519 1022 606 l 1022 306 q 1010 292 1022 292 l 593 292 q 581 281 581 292 m 981 342 l 981 518 q 943 629 981 589 q 836 669 906 669 l 736 669 q 624 632 667 669 q 581 525 581 594 l 581 342 q 593 331 581 331 l 968 331 q 981 342 981 331 m 539 183 l 539 367 q 526 378 539 378 l 283 378 q 176 338 214 378 q 139 226 139 297 l 139 190 q 176 79 139 119 q 283 39 214 39 l 383 39 q 496 76 453 39 q 539 183 539 114 z "},"ç":{"ha":542,"x_min":97,"x_max":493,"o":"m 481 669 l 283 669 q 176 629 214 669 q 139 518 139 589 l 139 190 q 176 79 139 119 q 283 39 214 39 l 481 39 q 493 28 493 39 l 493 11 q 481 0 493 0 l 381 0 l 317 -69 l 317 -75 q 399 -93 372 -75 q 426 -154 426 -111 l 426 -168 q 317 -247 426 -247 l 290 -247 q 278 -236 278 -247 l 278 -222 q 290 -211 278 -211 l 313 -211 q 389 -164 389 -211 l 389 -161 q 372 -122 389 -133 q 313 -111 356 -111 l 300 -111 q 269 -94 275 -111 q 278 -62 263 -78 l 333 0 l 283 0 q 148 51 199 0 q 97 189 97 103 l 97 519 q 148 657 97 606 q 283 708 199 708 l 481 708 q 493 697 493 708 l 493 681 q 481 669 493 669 z "},"è":{"ha":682,"x_min":97,"x_max":592,"o":"m 365 797 l 354 797 q 335 808 343 797 l 207 964 q 205 973 203 969 q 213 976 207 976 l 254 976 q 275 964 269 976 l 369 810 q 365 797 376 797 m 568 0 l 283 0 q 148 51 199 0 q 97 189 97 103 l 97 519 q 148 657 97 606 q 283 708 199 708 l 406 708 q 541 657 490 708 q 592 519 592 606 l 592 343 q 579 329 592 329 l 151 329 q 139 318 139 329 l 139 190 q 176 79 139 119 q 283 39 214 39 l 568 39 q 581 28 581 39 l 581 11 q 568 0 581 0 m 151 368 l 538 368 q 550 379 550 368 l 550 518 q 513 629 550 589 q 406 669 475 669 l 283 669 q 176 629 214 669 q 139 518 139 589 l 139 379 q 151 368 139 368 z "},"é":{"ha":682,"x_min":97,"x_max":592,"o":"m 422 976 l 464 976 q 472 973 469 976 q 469 964 474 969 l 342 808 q 322 797 333 797 l 311 797 q 307 810 300 797 l 401 964 q 422 976 408 976 m 568 0 l 283 0 q 148 51 199 0 q 97 189 97 103 l 97 519 q 148 657 97 606 q 283 708 199 708 l 406 708 q 541 657 490 708 q 592 519 592 606 l 592 343 q 579 329 592 329 l 151 329 q 139 318 139 329 l 139 190 q 176 79 139 119 q 283 39 214 39 l 568 39 q 581 28 581 39 l 581 11 q 568 0 581 0 m 151 368 l 538 368 q 550 379 550 368 l 550 518 q 513 629 550 589 q 406 669 475 669 l 283 669 q 176 629 214 669 q 139 518 139 589 l 139 379 q 151 368 139 368 z "},"ê":{"ha":682,"x_min":97,"x_max":592,"o":"m 461 797 l 442 797 q 426 804 431 797 l 344 950 l 263 804 q 247 797 258 797 l 228 797 q 222 813 213 797 l 311 964 q 338 976 319 976 l 351 976 q 378 964 369 976 l 467 813 q 461 797 476 797 m 568 0 l 283 0 q 148 51 199 0 q 97 189 97 103 l 97 519 q 148 657 97 606 q 283 708 199 708 l 406 708 q 541 657 490 708 q 592 519 592 606 l 592 343 q 579 329 592 329 l 151 329 q 139 318 139 329 l 139 190 q 176 79 139 119 q 283 39 214 39 l 568 39 q 581 28 581 39 l 581 11 q 568 0 581 0 m 151 368 l 538 368 q 550 379 550 368 l 550 518 q 513 629 550 589 q 406 669 475 669 l 283 669 q 176 629 214 669 q 139 518 139 589 l 139 379 q 151 368 139 368 z "},"ë":{"ha":682,"x_min":97,"x_max":592,"o":"m 215 810 l 215 964 q 226 976 215 976 l 246 976 q 257 964 257 976 l 257 810 q 246 797 257 797 l 226 797 q 215 810 215 797 m 432 810 l 432 964 q 443 976 432 976 l 463 976 q 474 964 474 976 l 474 810 q 463 797 474 797 l 443 797 q 432 810 432 797 m 568 0 l 283 0 q 148 51 199 0 q 97 189 97 103 l 97 519 q 148 657 97 606 q 283 708 199 708 l 406 708 q 541 657 490 708 q 592 519 592 606 l 592 343 q 579 329 592 329 l 151 329 q 139 318 139 329 l 139 190 q 176 79 139 119 q 283 39 214 39 l 568 39 q 581 28 581 39 l 581 11 q 568 0 581 0 m 151 368 l 538 368 q 550 379 550 368 l 550 518 q 513 629 550 589 q 406 669 475 669 l 283 669 q 176 629 214 669 q 139 518 139 589 l 139 379 q 151 368 139 368 z "},"ì":{"ha":278,"x_min":-17,"x_max":160,"o":"m 144 797 l 133 797 q 114 808 122 797 l -14 964 q -16 973 -18 969 q -8 976 -14 976 l 33 976 q 54 964 47 976 l 149 810 q 144 797 156 797 m 118 13 l 118 696 q 129 708 118 708 l 149 708 q 160 696 160 708 l 160 13 q 149 0 160 0 l 129 0 q 118 13 118 0 z "},"í":{"ha":275,"x_min":118,"x_max":292,"o":"m 242 976 l 283 976 q 291 973 289 976 q 289 964 293 969 l 161 808 q 142 797 153 797 l 131 797 q 126 810 119 797 l 221 964 q 242 976 228 976 m 118 13 l 118 696 q 129 708 118 708 l 149 708 q 160 696 160 708 l 160 13 q 149 0 160 0 l 129 0 q 118 13 118 0 z "},"î":{"ha":278,"x_min":17,"x_max":261,"o":"m 256 797 l 236 797 q 221 804 225 797 l 139 950 l 57 804 q 42 797 53 797 l 22 797 q 17 813 7 797 l 106 964 q 132 976 114 976 l 146 976 q 172 964 164 976 l 261 813 q 256 797 271 797 m 118 13 l 118 696 q 129 708 118 708 l 149 708 q 160 696 160 708 l 160 13 q 149 0 160 0 l 129 0 q 118 13 118 0 z "},"ï":{"ha":278,"x_min":10,"x_max":268,"o":"m 10 810 l 10 964 q 21 976 10 976 l 40 976 q 51 964 51 976 l 51 810 q 40 797 51 797 l 21 797 q 10 810 10 797 m 226 810 l 226 964 q 238 976 226 976 l 257 976 q 268 964 268 976 l 268 810 q 257 797 268 797 l 238 797 q 226 810 226 797 m 118 13 l 118 696 q 129 708 118 708 l 149 708 q 160 696 160 708 l 160 13 q 149 0 160 0 l 129 0 q 118 13 118 0 z "},"ð":{"ha":671,"x_min":97,"x_max":581,"o":"m 581 496 l 581 189 q 530 51 581 103 q 394 0 479 0 l 283 0 q 148 51 199 0 q 97 189 97 103 l 97 381 q 148 518 97 467 q 283 569 199 569 l 386 569 q 533 497 494 569 l 539 497 q 504 603 539 558 l 350 776 l 206 654 q 189 656 196 649 l 182 665 q 185 683 175 674 l 326 803 l 207 938 q 207 958 197 950 l 215 965 q 233 963 225 972 l 356 828 l 504 954 q 521 953 514 960 l 528 943 q 526 926 535 933 l 379 801 l 536 626 q 581 496 581 575 m 539 190 l 539 386 q 496 493 539 456 q 383 531 453 531 l 283 531 q 176 490 214 531 q 139 379 139 450 l 139 190 q 176 79 139 119 q 283 39 214 39 l 394 39 q 501 79 464 39 q 539 190 539 119 z "},"ñ":{"ha":699,"x_min":111,"x_max":594,"o":"m 210 910 l 210 964 q 221 976 210 976 l 231 976 q 242 964 242 976 l 242 911 q 251 848 242 865 q 283 831 260 831 q 316 844 307 831 q 340 905 325 858 q 370 966 354 951 q 425 981 386 981 q 480 956 464 981 q 496 872 496 932 l 496 814 q 485 801 496 801 l 475 801 q 464 814 464 801 l 464 871 q 455 934 464 917 q 419 951 446 951 q 382 926 393 951 q 367 877 379 919 q 337 818 354 835 q 281 801 319 801 q 226 826 242 801 q 210 910 210 850 m 142 0 l 122 0 q 111 13 111 0 l 111 696 q 122 708 111 708 l 142 708 q 153 696 153 708 l 153 636 l 158 636 q 306 708 197 708 l 408 708 q 544 657 493 708 q 594 519 594 606 l 594 13 q 583 0 594 0 l 564 0 q 553 13 553 0 l 553 518 q 515 629 553 589 q 408 669 478 669 l 308 669 q 196 632 239 669 q 153 525 153 594 l 153 13 q 142 0 153 0 z "},"ò":{"ha":685,"x_min":97,"x_max":588,"o":"m 351 797 l 340 797 q 321 808 329 797 l 193 964 q 191 973 189 969 q 199 976 193 976 l 240 976 q 261 964 256 976 l 356 810 q 351 797 363 797 m 401 0 l 283 0 q 148 51 199 0 q 97 189 97 103 l 97 519 q 148 657 97 606 q 283 708 199 708 l 401 708 q 537 657 486 708 q 588 519 588 606 l 588 189 q 537 51 588 103 q 401 0 486 0 m 283 39 l 401 39 q 508 79 471 39 q 546 190 546 119 l 546 518 q 508 629 546 589 q 401 669 471 669 l 283 669 q 176 629 214 669 q 139 518 139 589 l 139 190 q 176 79 139 119 q 283 39 214 39 z "},"ó":{"ha":685,"x_min":97,"x_max":588,"o":"m 446 976 l 488 976 q 495 973 493 976 q 493 964 497 969 l 365 808 q 346 797 357 797 l 335 797 q 331 810 324 797 l 425 964 q 446 976 431 976 m 401 0 l 283 0 q 148 51 199 0 q 97 189 97 103 l 97 519 q 148 657 97 606 q 283 708 199 708 l 401 708 q 537 657 486 708 q 588 519 588 606 l 588 189 q 537 51 588 103 q 401 0 486 0 m 283 39 l 401 39 q 508 79 471 39 q 546 190 546 119 l 546 518 q 508 629 546 589 q 401 669 471 669 l 283 669 q 176 629 214 669 q 139 518 139 589 l 139 190 q 176 79 139 119 q 283 39 214 39 z "},"ô":{"ha":685,"x_min":97,"x_max":588,"o":"m 458 797 l 439 797 q 424 804 428 797 l 342 950 l 260 804 q 244 797 256 797 l 225 797 q 219 813 210 797 l 308 964 q 335 976 317 976 l 349 976 q 375 964 367 976 l 464 813 q 458 797 474 797 m 401 0 l 283 0 q 148 51 199 0 q 97 189 97 103 l 97 519 q 148 657 97 606 q 283 708 199 708 l 401 708 q 537 657 486 708 q 588 519 588 606 l 588 189 q 537 51 588 103 q 401 0 486 0 m 283 39 l 401 39 q 508 79 471 39 q 546 190 546 119 l 546 518 q 508 629 546 589 q 401 669 471 669 l 283 669 q 176 629 214 669 q 139 518 139 589 l 139 190 q 176 79 139 119 q 283 39 214 39 z "},"õ":{"ha":685,"x_min":97,"x_max":588,"o":"m 199 910 l 199 964 q 210 976 199 976 l 219 976 q 231 964 231 976 l 231 911 q 240 848 231 865 q 272 831 249 831 q 305 844 296 831 q 328 905 314 858 q 359 966 343 951 q 414 981 375 981 q 469 956 453 981 q 485 872 485 932 l 485 814 q 474 801 485 801 l 464 801 q 453 814 453 801 l 453 871 q 444 934 453 917 q 408 951 435 951 q 371 926 382 951 q 356 877 368 919 q 326 818 343 835 q 269 801 308 801 q 215 826 231 801 q 199 910 199 850 m 401 0 l 283 0 q 148 51 199 0 q 97 189 97 103 l 97 519 q 148 657 97 606 q 283 708 199 708 l 401 708 q 537 657 486 708 q 588 519 588 606 l 588 189 q 537 51 588 103 q 401 0 486 0 m 283 39 l 401 39 q 508 79 471 39 q 546 190 546 119 l 546 518 q 508 629 546 589 q 401 669 471 669 l 283 669 q 176 629 214 669 q 139 518 139 589 l 139 190 q 176 79 139 119 q 283 39 214 39 z "},"ö":{"ha":685,"x_min":97,"x_max":588,"o":"m 213 810 l 213 964 q 224 976 213 976 l 243 976 q 254 964 254 976 l 254 810 q 243 797 254 797 l 224 797 q 213 810 213 797 m 429 810 l 429 964 q 440 976 429 976 l 460 976 q 471 964 471 976 l 471 810 q 460 797 471 797 l 440 797 q 429 810 429 797 m 401 0 l 283 0 q 148 51 199 0 q 97 189 97 103 l 97 519 q 148 657 97 606 q 283 708 199 708 l 401 708 q 537 657 486 708 q 588 519 588 606 l 588 189 q 537 51 588 103 q 401 0 486 0 m 283 39 l 401 39 q 508 79 471 39 q 546 190 546 119 l 546 518 q 508 629 546 589 q 401 669 471 669 l 283 669 q 176 629 214 669 q 139 518 139 589 l 139 190 q 176 79 139 119 q 283 39 214 39 z "},"÷":{"ha":725,"x_min":104,"x_max":621,"o":"m 342 200 l 342 289 q 353 301 342 301 l 372 301 q 383 289 383 301 l 383 200 q 372 188 383 188 l 353 188 q 342 200 342 188 m 608 426 l 117 426 q 104 438 104 426 l 104 454 q 117 465 104 465 l 608 465 q 621 454 621 465 l 621 438 q 608 426 621 426 m 342 603 l 342 692 q 353 704 342 704 l 372 704 q 383 692 383 704 l 383 603 q 372 590 383 590 l 353 590 q 342 603 342 590 z "},"ø":{"ha":724,"x_min":46,"x_max":678,"o":"m 607 519 l 607 189 q 556 51 607 103 q 421 0 506 0 l 303 0 q 135 99 181 0 l 76 39 q 60 39 67 29 l 46 51 q 46 68 38 60 l 121 143 q 117 189 117 164 l 117 519 q 167 657 117 606 q 303 708 218 708 l 421 708 q 589 611 543 708 l 647 669 q 664 671 656 678 l 678 657 q 676 640 686 650 l 603 567 q 607 519 607 544 m 158 518 l 158 181 l 557 579 q 421 669 528 669 l 303 669 q 196 629 233 669 q 158 518 158 589 m 565 190 l 565 529 l 167 129 q 303 39 196 39 l 421 39 q 528 79 490 39 q 565 190 565 119 z "},"ù":{"ha":699,"x_min":104,"x_max":588,"o":"m 358 797 l 347 797 q 328 808 336 797 l 200 964 q 198 973 196 969 q 206 976 200 976 l 247 976 q 268 964 261 976 l 363 810 q 358 797 369 797 m 393 0 l 290 0 q 155 51 206 0 q 104 189 104 103 l 104 696 q 115 708 104 708 l 135 708 q 146 696 146 708 l 146 190 q 183 79 146 119 q 290 39 221 39 l 390 39 q 503 76 460 39 q 546 183 546 114 l 546 696 q 557 708 546 708 l 576 708 q 588 696 588 708 l 588 13 q 576 0 588 0 l 557 0 q 546 13 546 0 l 546 72 l 540 72 q 393 0 501 0 z "},"ú":{"ha":699,"x_min":104,"x_max":588,"o":"m 449 976 l 490 976 q 498 973 496 976 q 496 964 500 969 l 368 808 q 349 797 360 797 l 338 797 q 333 810 326 797 l 428 964 q 449 976 433 976 m 393 0 l 290 0 q 155 51 206 0 q 104 189 104 103 l 104 696 q 115 708 104 708 l 135 708 q 146 696 146 708 l 146 190 q 183 79 146 119 q 290 39 221 39 l 390 39 q 503 76 460 39 q 546 183 546 114 l 546 696 q 557 708 546 708 l 576 708 q 588 696 588 708 l 588 13 q 576 0 588 0 l 557 0 q 546 13 546 0 l 546 72 l 540 72 q 393 0 501 0 z "},"û":{"ha":699,"x_min":104,"x_max":588,"o":"m 463 797 l 443 797 q 428 804 431 797 l 346 950 l 264 804 q 249 797 261 797 l 229 797 q 224 813 214 797 l 313 964 q 339 976 321 976 l 353 976 q 379 964 371 976 l 468 813 q 463 797 478 797 m 393 0 l 290 0 q 155 51 206 0 q 104 189 104 103 l 104 696 q 115 708 104 708 l 135 708 q 146 696 146 708 l 146 190 q 183 79 146 119 q 290 39 221 39 l 390 39 q 503 76 460 39 q 546 183 546 114 l 546 696 q 557 708 546 708 l 576 708 q 588 696 588 708 l 588 13 q 576 0 588 0 l 557 0 q 546 13 546 0 l 546 72 l 540 72 q 393 0 501 0 z "},"ü":{"ha":699,"x_min":104,"x_max":588,"o":"m 217 810 l 217 964 q 228 976 217 976 l 247 976 q 258 964 258 976 l 258 810 q 247 797 258 797 l 228 797 q 217 810 217 797 m 433 810 l 433 964 q 444 976 433 976 l 464 976 q 475 964 475 976 l 475 810 q 464 797 475 797 l 444 797 q 433 810 433 797 m 393 0 l 290 0 q 155 51 206 0 q 104 189 104 103 l 104 696 q 115 708 104 708 l 135 708 q 146 696 146 708 l 146 190 q 183 79 146 119 q 290 39 221 39 l 390 39 q 503 76 460 39 q 546 183 546 114 l 546 696 q 557 708 546 708 l 576 708 q 588 696 588 708 l 588 13 q 576 0 588 0 l 557 0 q 546 13 546 0 l 546 72 l 540 72 q 393 0 501 0 z "},"ý":{"ha":633,"x_min":43,"x_max":590,"o":"m 424 976 l 465 976 q 473 973 471 976 q 471 964 475 969 l 343 808 q 324 797 335 797 l 313 797 q 308 810 301 797 l 403 964 q 424 976 408 976 m 82 -204 q 69 -193 69 -204 l 69 -176 q 82 -165 69 -165 l 122 -165 q 201 -145 178 -165 q 235 -116 224 -125 q 259 -80 246 -107 q 276 -44 272 -53 q 308 38 301 11 l 294 38 q 279 50 283 38 l 43 696 q 51 708 39 708 l 74 708 q 88 696 83 708 l 314 78 l 319 78 l 546 696 q 560 708 550 708 l 582 708 q 590 696 594 708 l 354 50 q 289 -110 311 -74 q 122 -204 229 -203 l 82 -204 z "},"þ":{"ha":699,"x_min":118,"x_max":601,"o":"m 315 39 l 415 39 q 522 79 485 39 q 560 190 560 119 l 560 518 q 522 629 560 589 q 415 669 485 669 l 315 669 q 203 632 246 669 q 160 525 160 594 l 160 183 q 203 76 160 114 q 315 39 246 39 m 160 72 l 160 -172 q 149 -185 160 -185 l 129 -185 q 118 -172 118 -185 l 118 964 q 129 976 118 976 l 149 976 q 160 964 160 976 l 160 636 l 165 636 q 313 708 204 708 l 415 708 q 551 657 500 708 q 601 519 601 606 l 601 189 q 551 51 601 103 q 415 0 500 0 l 313 0 q 165 72 204 0 l 160 72 z "},"ÿ":{"ha":633,"x_min":43,"x_max":590,"o":"m 188 810 l 188 964 q 199 976 188 976 l 218 976 q 229 964 229 976 l 229 810 q 218 797 229 797 l 199 797 q 188 810 188 797 m 404 810 l 404 964 q 415 976 404 976 l 435 976 q 446 964 446 976 l 446 810 q 435 797 446 797 l 415 797 q 404 810 404 797 m 82 -204 q 69 -193 69 -204 l 69 -176 q 82 -165 69 -165 l 122 -165 q 201 -145 178 -165 q 235 -116 224 -125 q 259 -80 246 -107 q 276 -44 272 -53 q 308 38 301 11 l 294 38 q 279 50 283 38 l 43 696 q 51 708 39 708 l 74 708 q 88 696 83 708 l 314 78 l 319 78 l 546 696 q 560 708 550 708 l 582 708 q 590 696 594 708 l 354 50 q 289 -110 311 -74 q 122 -204 229 -203 l 82 -204 z "},"Ā":{"ha":731,"x_min":43,"x_max":688,"o":"m 507 1051 l 224 1051 q 211 1063 211 1051 l 211 1079 q 224 1090 211 1090 l 507 1090 q 519 1079 519 1090 l 519 1063 q 507 1051 519 1051 m 71 0 l 51 0 q 43 13 39 0 l 335 881 q 349 893 339 893 l 382 893 q 396 881 392 893 l 688 13 q 679 0 692 0 l 658 0 q 644 13 649 0 l 560 254 l 171 254 l 86 13 q 71 0 81 0 m 363 840 l 186 296 l 544 296 l 368 840 l 363 840 z "},"ā":{"ha":692,"x_min":97,"x_max":581,"o":"m 522 871 l 239 871 q 226 882 226 871 l 226 894 q 239 906 226 906 l 522 906 q 535 894 535 906 l 535 882 q 522 871 535 871 m 386 0 l 283 0 q 148 51 199 0 q 97 189 97 103 l 97 519 q 148 657 97 606 q 283 708 199 708 l 569 708 q 581 696 581 708 l 581 13 q 569 0 581 0 l 550 0 q 539 13 539 0 l 539 72 l 533 72 q 386 0 494 0 m 539 183 l 539 658 q 526 669 539 669 l 283 669 q 176 629 214 669 q 139 518 139 589 l 139 190 q 176 79 139 119 q 283 39 214 39 l 383 39 q 496 76 453 39 q 539 183 539 114 z "},"Ă":{"ha":731,"x_min":43,"x_max":688,"o":"m 232 1149 q 243 1161 232 1161 l 257 1161 q 268 1149 268 1161 l 268 1132 q 289 1040 268 1067 q 361 1013 310 1013 l 367 1013 q 442 1040 421 1013 q 464 1132 464 1067 l 464 1147 q 475 1160 464 1160 l 486 1160 q 497 1147 497 1160 l 497 1131 q 465 1017 497 1053 q 367 982 433 982 l 361 982 q 263 1017 294 982 q 232 1131 232 1053 l 232 1149 m 71 0 l 51 0 q 43 13 39 0 l 335 881 q 349 893 339 893 l 382 893 q 396 881 392 893 l 688 13 q 679 0 692 0 l 658 0 q 644 13 649 0 l 560 254 l 171 254 l 86 13 q 71 0 81 0 m 363 840 l 186 296 l 544 296 l 368 840 l 363 840 z "},"ă":{"ha":692,"x_min":97,"x_max":581,"o":"m 239 964 q 250 976 239 976 l 264 976 q 275 964 275 976 l 275 947 q 296 855 275 882 q 368 828 317 828 l 374 828 q 449 855 428 828 q 471 947 471 882 l 471 963 q 482 975 471 975 l 493 975 q 504 963 504 975 l 504 946 q 472 833 504 868 q 374 797 440 797 l 368 797 q 270 833 301 797 q 239 946 239 868 l 239 964 m 386 0 l 283 0 q 148 51 199 0 q 97 189 97 103 l 97 519 q 148 657 97 606 q 283 708 199 708 l 569 708 q 581 696 581 708 l 581 13 q 569 0 581 0 l 550 0 q 539 13 539 0 l 539 72 l 533 72 q 386 0 494 0 m 539 183 l 539 658 q 526 669 539 669 l 283 669 q 176 629 214 669 q 139 518 139 589 l 139 190 q 176 79 139 119 q 283 39 214 39 l 383 39 q 496 76 453 39 q 539 183 539 114 z "},"Ą":{"ha":731,"x_min":43,"x_max":688,"o":"m 679 0 l 660 0 l 581 -103 l 633 -103 q 674 -117 674 -103 q 581 -140 674 -140 q 540 -125 549 -140 q 547 -92 531 -110 l 640 25 l 560 254 l 171 254 l 86 13 q 71 0 81 0 l 51 0 q 43 13 39 0 l 335 881 q 349 893 339 893 l 382 893 q 396 881 392 893 l 688 13 q 679 0 692 0 m 186 296 l 544 296 l 368 840 l 363 840 l 186 296 z "},"ą":{"ha":692,"x_min":97,"x_max":581,"o":"m 283 708 l 569 708 q 581 696 581 708 l 581 13 q 569 0 581 0 l 560 0 l 481 -103 l 533 -103 q 574 -117 574 -103 q 540 -143 574 -133 q 478 -153 507 -153 q 440 -131 449 -153 q 447 -92 431 -110 l 539 24 l 539 72 l 533 72 q 386 0 494 0 l 283 0 q 148 51 199 0 q 97 189 97 103 l 97 519 q 148 657 97 606 q 283 708 199 708 m 283 39 l 383 39 q 496 76 453 39 q 539 183 539 114 l 539 658 q 526 669 539 669 l 283 669 q 176 629 214 669 q 139 518 139 589 l 139 190 q 176 79 139 119 q 283 39 214 39 z "},"Ć":{"ha":754,"x_min":111,"x_max":664,"o":"m 485 1161 l 526 1161 q 534 1158 532 1161 q 532 1149 536 1154 l 404 993 q 385 982 396 982 l 374 982 q 369 994 363 982 l 464 1149 q 485 1161 469 1161 m 478 0 l 297 0 q 162 51 213 0 q 111 189 111 103 l 111 704 q 162 842 111 790 q 297 893 213 893 l 478 893 q 613 842 563 893 q 664 704 664 790 l 664 635 q 653 622 664 622 l 633 622 q 622 635 622 622 l 622 703 q 585 814 622 774 q 478 854 547 854 l 297 854 q 190 814 228 854 q 153 703 153 774 l 153 190 q 190 79 153 119 q 297 39 228 39 l 478 39 q 585 79 547 39 q 622 190 622 119 l 622 258 q 633 271 622 271 l 653 271 q 664 258 664 271 l 664 189 q 613 51 664 103 q 478 0 563 0 z "},"ć":{"ha":542,"x_min":97,"x_max":493,"o":"m 411 976 l 453 976 q 460 973 458 976 q 458 964 463 969 l 331 808 q 311 797 322 797 l 300 797 q 296 810 289 797 l 390 964 q 411 976 397 976 m 493 28 l 493 11 q 481 0 493 0 l 283 0 q 148 51 199 0 q 97 189 97 103 l 97 519 q 148 657 97 606 q 283 708 199 708 l 481 708 q 493 697 493 708 l 493 681 q 481 669 493 669 l 283 669 q 176 629 214 669 q 139 518 139 589 l 139 190 q 176 79 139 119 q 283 39 214 39 l 481 39 q 493 28 493 39 z "},"Ċ":{"ha":754,"x_min":111,"x_max":664,"o":"m 367 1003 l 367 1140 q 378 1153 367 1153 l 397 1153 q 408 1140 408 1153 l 408 1003 q 397 990 408 990 l 378 990 q 367 1003 367 990 m 478 0 l 297 0 q 162 51 213 0 q 111 189 111 103 l 111 704 q 162 842 111 790 q 297 893 213 893 l 478 893 q 613 842 563 893 q 664 704 664 790 l 664 635 q 653 622 664 622 l 633 622 q 622 635 622 622 l 622 703 q 585 814 622 774 q 478 854 547 854 l 297 854 q 190 814 228 854 q 153 703 153 774 l 153 190 q 190 79 153 119 q 297 39 228 39 l 478 39 q 585 79 547 39 q 622 190 622 119 l 622 258 q 633 271 622 271 l 653 271 q 664 258 664 271 l 664 189 q 613 51 664 103 q 478 0 563 0 z "},"ċ":{"ha":542,"x_min":97,"x_max":493,"o":"m 294 818 l 294 956 q 306 968 294 968 l 325 968 q 336 956 336 968 l 336 818 q 325 806 336 806 l 306 806 q 294 818 294 806 m 493 28 l 493 11 q 481 0 493 0 l 283 0 q 148 51 199 0 q 97 189 97 103 l 97 519 q 148 657 97 606 q 283 708 199 708 l 481 708 q 493 697 493 708 l 493 681 q 481 669 493 669 l 283 669 q 176 629 214 669 q 139 518 139 589 l 139 190 q 176 79 139 119 q 283 39 214 39 l 481 39 q 493 28 493 39 z "},"Č":{"ha":754,"x_min":111,"x_max":664,"o":"m 381 982 q 354 994 363 982 l 265 1146 q 271 1161 256 1161 l 290 1161 q 306 1154 303 1161 l 388 1008 l 469 1154 q 485 1161 472 1161 l 504 1161 q 510 1146 519 1161 l 421 994 q 394 982 413 982 l 381 982 m 478 0 l 297 0 q 162 51 213 0 q 111 189 111 103 l 111 704 q 162 842 111 790 q 297 893 213 893 l 478 893 q 613 842 563 893 q 664 704 664 790 l 664 635 q 653 622 664 622 l 633 622 q 622 635 622 622 l 622 703 q 585 814 622 774 q 478 854 547 854 l 297 854 q 190 814 228 854 q 153 703 153 774 l 153 190 q 190 79 153 119 q 297 39 228 39 l 478 39 q 585 79 547 39 q 622 190 622 119 l 622 258 q 633 271 622 271 l 653 271 q 664 258 664 271 l 664 189 q 613 51 664 103 q 478 0 563 0 z "},"č":{"ha":542,"x_min":97,"x_max":493,"o":"m 318 797 q 292 810 300 797 l 203 961 q 208 976 193 976 l 228 976 q 243 969 239 976 l 325 824 l 407 969 q 422 976 411 976 l 442 976 q 447 961 457 976 l 358 810 q 332 797 350 797 l 318 797 m 493 28 l 493 11 q 481 0 493 0 l 283 0 q 148 51 199 0 q 97 189 97 103 l 97 519 q 148 657 97 606 q 283 708 199 708 l 481 708 q 493 697 493 708 l 493 681 q 481 669 493 669 l 283 669 q 176 629 214 669 q 139 518 139 589 l 139 190 q 176 79 139 119 q 283 39 214 39 l 481 39 q 493 28 493 39 z "},"Ď":{"ha":775,"x_min":125,"x_max":664,"o":"m 374 982 q 347 994 356 982 l 258 1146 q 264 1161 249 1161 l 283 1161 q 299 1154 294 1161 l 381 1008 l 463 1154 q 478 1161 467 1161 l 497 1161 q 503 1146 513 1161 l 414 994 q 388 982 406 982 l 374 982 m 179 39 l 478 39 q 585 79 547 39 q 622 190 622 119 l 622 703 q 585 814 622 774 q 478 854 547 854 l 179 854 q 167 843 167 854 l 167 50 q 179 39 167 39 m 125 13 l 125 881 q 136 893 125 893 l 478 893 q 613 842 563 893 q 664 704 664 790 l 664 189 q 613 51 664 103 q 478 0 563 0 l 136 0 q 125 13 125 0 z "},"ď":{"ha":706,"x_min":97,"x_max":715,"o":"m 715 964 l 715 854 q 679 654 715 833 q 671 646 678 646 q 664 654 664 646 l 664 964 q 675 976 664 976 l 704 976 q 715 964 715 976 m 386 0 l 283 0 q 148 51 199 0 q 97 189 97 103 l 97 519 q 148 657 97 606 q 283 708 199 708 l 386 708 q 533 636 494 708 l 539 636 l 539 964 q 550 976 539 976 l 569 976 q 581 964 581 976 l 581 13 q 569 0 581 0 l 550 0 q 539 13 539 0 l 539 72 l 533 72 q 386 0 494 0 m 539 183 l 539 525 q 496 632 539 594 q 383 669 453 669 l 283 669 q 176 629 214 669 q 139 518 139 589 l 139 190 q 176 79 139 119 q 283 39 214 39 l 383 39 q 496 76 453 39 q 539 183 539 114 z "},"Đ":{"ha":694,"x_min":36,"x_max":664,"o":"m 179 39 l 478 39 q 585 79 547 39 q 622 190 622 119 l 622 703 q 585 814 622 774 q 478 854 547 854 l 179 854 q 167 843 167 854 l 167 553 q 179 542 167 542 l 410 542 q 422 531 422 542 l 422 514 q 410 503 422 503 l 179 503 q 167 492 167 503 l 167 50 q 179 39 167 39 m 478 0 l 136 0 q 125 13 125 0 l 125 492 q 113 503 125 503 l 49 503 q 36 514 36 503 l 36 531 q 49 542 36 542 l 113 542 q 125 553 125 542 l 125 881 q 136 893 125 893 l 478 893 q 613 842 563 893 q 664 704 664 790 l 664 189 q 613 51 664 103 q 478 0 563 0 z "},"đ":{"ha":739,"x_min":97,"x_max":697,"o":"m 386 0 l 283 0 q 148 51 199 0 q 97 189 97 103 l 97 422 q 148 560 97 508 q 283 611 199 611 l 386 611 q 533 539 494 611 l 539 539 l 539 769 q 526 781 539 781 l 292 781 q 279 792 279 781 l 279 808 q 292 819 279 819 l 526 819 q 539 831 539 819 l 539 964 q 550 976 539 976 l 569 976 q 581 964 581 976 l 581 831 q 593 819 581 819 l 685 819 q 697 808 697 819 l 697 792 q 685 781 697 781 l 593 781 q 581 769 581 781 l 581 13 q 569 0 581 0 l 550 0 q 539 13 539 0 l 539 72 l 533 72 q 386 0 494 0 m 539 183 l 539 428 q 496 535 539 497 q 383 572 453 572 l 283 572 q 176 532 214 572 q 139 421 139 492 l 139 190 q 176 79 139 119 q 283 39 214 39 l 383 39 q 496 76 453 39 q 539 183 539 114 z "},"Ē":{"ha":668,"x_min":125,"x_max":571,"o":"m 489 1051 l 206 1051 q 193 1063 193 1051 l 193 1079 q 206 1090 193 1090 l 489 1090 q 501 1079 501 1090 l 501 1063 q 489 1051 501 1051 m 558 0 l 136 0 q 125 13 125 0 l 125 881 q 136 893 125 893 l 558 893 q 571 882 571 893 l 571 865 q 558 854 571 854 l 179 854 q 167 843 167 854 l 167 486 q 179 475 167 475 l 522 475 q 535 464 535 475 l 535 447 q 522 436 535 436 l 179 436 q 167 425 167 436 l 167 50 q 179 39 167 39 l 558 39 q 571 28 571 39 l 571 11 q 558 0 571 0 z "},"ē":{"ha":682,"x_min":97,"x_max":592,"o":"m 486 871 l 203 871 q 190 882 190 871 l 190 894 q 203 906 190 906 l 486 906 q 499 894 499 906 l 499 882 q 486 871 499 871 m 568 0 l 283 0 q 148 51 199 0 q 97 189 97 103 l 97 519 q 148 657 97 606 q 283 708 199 708 l 406 708 q 541 657 490 708 q 592 519 592 606 l 592 343 q 579 329 592 329 l 151 329 q 139 318 139 329 l 139 190 q 176 79 139 119 q 283 39 214 39 l 568 39 q 581 28 581 39 l 581 11 q 568 0 581 0 m 151 368 l 538 368 q 550 379 550 368 l 550 518 q 513 629 550 589 q 406 669 475 669 l 283 669 q 176 629 214 669 q 139 518 139 589 l 139 379 q 151 368 139 368 z "},"Ĕ":{"ha":668,"x_min":125,"x_max":571,"o":"m 206 1149 q 217 1161 206 1161 l 231 1161 q 242 1149 242 1161 l 242 1132 q 263 1040 242 1067 q 335 1013 283 1013 l 340 1013 q 416 1040 394 1013 q 438 1132 438 1067 l 438 1147 q 449 1160 438 1160 l 460 1160 q 471 1147 471 1160 l 471 1131 q 439 1017 471 1053 q 340 982 407 982 l 335 982 q 237 1017 268 982 q 206 1131 206 1053 l 206 1149 m 558 0 l 136 0 q 125 13 125 0 l 125 881 q 136 893 125 893 l 558 893 q 571 882 571 893 l 571 865 q 558 854 571 854 l 179 854 q 167 843 167 854 l 167 486 q 179 475 167 475 l 522 475 q 535 464 535 475 l 535 447 q 522 436 535 436 l 179 436 q 167 425 167 436 l 167 50 q 179 39 167 39 l 558 39 q 571 28 571 39 l 571 11 q 558 0 571 0 z "},"ĕ":{"ha":682,"x_min":97,"x_max":592,"o":"m 206 964 q 217 976 206 976 l 231 976 q 242 964 242 976 l 242 947 q 263 855 242 882 q 335 828 283 828 l 340 828 q 416 855 394 828 q 438 947 438 882 l 438 963 q 449 975 438 975 l 460 975 q 471 963 471 975 l 471 946 q 439 833 471 868 q 340 797 407 797 l 335 797 q 237 833 268 797 q 206 946 206 868 l 206 964 m 568 0 l 283 0 q 148 51 199 0 q 97 189 97 103 l 97 519 q 148 657 97 606 q 283 708 199 708 l 406 708 q 541 657 490 708 q 592 519 592 606 l 592 343 q 579 329 592 329 l 151 329 q 139 318 139 329 l 139 190 q 176 79 139 119 q 283 39 214 39 l 568 39 q 581 28 581 39 l 581 11 q 568 0 581 0 m 151 368 l 538 368 q 550 379 550 368 l 550 518 q 513 629 550 589 q 406 669 475 669 l 283 669 q 176 629 214 669 q 139 518 139 589 l 139 379 q 151 368 139 368 z "},"Ė":{"ha":694,"x_min":125,"x_max":571,"o":"m 326 1003 l 326 1140 q 338 1153 326 1153 l 357 1153 q 368 1140 368 1153 l 368 1003 q 357 990 368 990 l 338 990 q 326 1003 326 990 m 558 0 l 136 0 q 125 13 125 0 l 125 881 q 136 893 125 893 l 558 893 q 571 882 571 893 l 571 865 q 558 854 571 854 l 179 854 q 167 843 167 854 l 167 486 q 179 475 167 475 l 522 475 q 535 464 535 475 l 535 447 q 522 436 535 436 l 179 436 q 167 425 167 436 l 167 50 q 179 39 167 39 l 558 39 q 571 28 571 39 l 571 11 q 558 0 571 0 z "},"ė":{"ha":682,"x_min":97,"x_max":592,"o":"m 324 818 l 324 956 q 335 968 324 968 l 354 968 q 365 956 365 968 l 365 818 q 354 806 365 806 l 335 806 q 324 818 324 806 m 568 0 l 283 0 q 148 51 199 0 q 97 189 97 103 l 97 519 q 148 657 97 606 q 283 708 199 708 l 406 708 q 541 657 490 708 q 592 519 592 606 l 592 343 q 579 329 592 329 l 151 329 q 139 318 139 329 l 139 190 q 176 79 139 119 q 283 39 214 39 l 568 39 q 581 28 581 39 l 581 11 q 568 0 581 0 m 151 368 l 538 368 q 550 379 550 368 l 550 518 q 513 629 550 589 q 406 669 475 669 l 283 669 q 176 629 214 669 q 139 518 139 589 l 139 379 q 151 368 139 368 z "},"Ę":{"ha":668,"x_min":125,"x_max":571,"o":"m 558 854 l 179 854 q 167 843 167 854 l 167 486 q 179 475 167 475 l 522 475 q 535 464 535 475 l 535 447 q 522 436 535 436 l 179 436 q 167 425 167 436 l 167 50 q 179 39 167 39 l 558 39 q 571 28 571 39 l 571 11 q 558 0 571 0 l 483 0 l 404 -103 l 457 -103 q 497 -117 497 -103 q 404 -140 497 -140 q 363 -125 372 -140 q 371 -92 354 -110 l 443 0 l 136 0 q 125 13 125 0 l 125 881 q 136 893 125 893 l 558 893 q 571 882 571 893 l 571 865 q 558 854 571 854 z "},"ę":{"ha":682,"x_min":97,"x_max":592,"o":"m 283 708 l 406 708 q 541 657 490 708 q 592 519 592 606 l 592 343 q 579 329 592 329 l 151 329 q 139 318 139 329 l 139 190 q 176 79 139 119 q 283 39 214 39 l 568 39 q 581 28 581 39 l 581 11 q 568 0 581 0 l 483 0 l 404 -103 l 457 -103 q 497 -117 497 -103 q 464 -143 497 -133 q 401 -153 431 -153 q 363 -131 372 -153 q 371 -92 354 -110 l 443 0 l 283 0 q 148 51 199 0 q 97 189 97 103 l 97 519 q 148 657 97 606 q 283 708 199 708 m 550 379 l 550 518 q 513 629 550 589 q 406 669 475 669 l 283 669 q 176 629 214 669 q 139 518 139 589 l 139 379 q 151 368 139 368 l 538 368 q 550 379 550 368 z "},"Ě":{"ha":668,"x_min":125,"x_max":571,"o":"m 340 982 q 314 994 322 982 l 225 1146 q 231 1161 215 1161 l 250 1161 q 265 1154 261 1161 l 347 1008 l 429 1154 q 444 1161 433 1161 l 464 1161 q 469 1146 479 1161 l 381 994 q 354 982 372 982 l 340 982 m 558 0 l 136 0 q 125 13 125 0 l 125 881 q 136 893 125 893 l 558 893 q 571 882 571 893 l 571 865 q 558 854 571 854 l 179 854 q 167 843 167 854 l 167 486 q 179 475 167 475 l 522 475 q 535 464 535 475 l 535 447 q 522 436 535 436 l 179 436 q 167 425 167 436 l 167 50 q 179 39 167 39 l 558 39 q 571 28 571 39 l 571 11 q 558 0 571 0 z "},"ě":{"ha":682,"x_min":97,"x_max":592,"o":"m 338 797 q 311 810 319 797 l 222 961 q 228 976 213 976 l 247 976 q 263 969 258 976 l 344 824 l 426 969 q 442 976 431 976 l 461 976 q 467 961 476 976 l 378 810 q 351 797 369 797 l 338 797 m 568 0 l 283 0 q 148 51 199 0 q 97 189 97 103 l 97 519 q 148 657 97 606 q 283 708 199 708 l 406 708 q 541 657 490 708 q 592 519 592 606 l 592 343 q 579 329 592 329 l 151 329 q 139 318 139 329 l 139 190 q 176 79 139 119 q 283 39 214 39 l 568 39 q 581 28 581 39 l 581 11 q 568 0 581 0 m 151 368 l 538 368 q 550 379 550 368 l 550 518 q 513 629 550 589 q 406 669 475 669 l 283 669 q 176 629 214 669 q 139 518 139 589 l 139 379 q 151 368 139 368 z "},"Ĝ":{"ha":747,"x_min":111,"x_max":636,"o":"m 490 982 l 471 982 q 456 989 458 982 l 374 1135 l 292 989 q 276 982 289 982 l 257 982 q 251 997 242 982 l 340 1149 q 367 1161 349 1161 l 381 1161 q 407 1149 399 1161 l 496 997 q 490 982 506 982 m 450 0 l 297 0 q 162 51 213 0 q 111 189 111 103 l 111 704 q 162 842 111 790 q 297 893 213 893 l 450 893 q 585 842 535 893 q 636 704 636 790 l 636 635 q 625 622 636 622 l 606 622 q 594 635 594 622 l 594 703 q 557 814 594 774 q 450 854 519 854 l 297 854 q 190 814 228 854 q 153 703 153 774 l 153 190 q 190 79 153 119 q 297 39 228 39 l 450 39 q 557 79 519 39 q 594 190 594 119 l 594 400 q 582 411 594 411 l 403 411 q 390 422 390 411 l 390 439 q 403 450 390 450 l 611 450 q 636 424 636 450 l 636 189 q 585 51 636 103 q 450 0 535 0 z "},"ĝ":{"ha":699,"x_min":104,"x_max":588,"o":"m 488 797 l 468 797 q 453 804 456 797 l 371 950 l 289 804 q 274 797 286 797 l 254 797 q 249 813 239 797 l 338 964 q 364 976 346 976 l 378 976 q 404 964 396 976 l 493 813 q 488 797 503 797 m 393 42 l 290 42 q 155 93 206 42 q 104 231 104 144 l 104 519 q 155 657 104 606 q 290 708 206 708 l 576 708 q 588 696 588 708 l 588 4 q 537 -133 588 -82 q 401 -185 486 -185 l 153 -185 q 140 -174 140 -185 l 140 -157 q 153 -146 140 -146 l 401 -146 q 508 -106 471 -146 q 546 6 546 -65 l 546 114 l 540 114 q 393 42 501 42 m 546 225 l 546 658 q 533 669 546 669 l 290 669 q 183 629 221 669 q 146 518 146 589 l 146 232 q 183 121 146 161 q 290 81 221 81 l 390 81 q 503 118 460 81 q 546 225 546 156 z "},"Ğ":{"ha":747,"x_min":111,"x_max":636,"o":"m 242 1149 q 253 1161 242 1161 l 267 1161 q 278 1149 278 1161 l 278 1132 q 299 1040 278 1067 q 371 1013 319 1013 l 376 1013 q 452 1040 431 1013 q 474 1132 474 1067 l 474 1147 q 485 1160 474 1160 l 496 1160 q 507 1147 507 1160 l 507 1131 q 475 1017 507 1053 q 376 982 443 982 l 371 982 q 273 1017 304 982 q 242 1131 242 1053 l 242 1149 m 450 0 l 297 0 q 162 51 213 0 q 111 189 111 103 l 111 704 q 162 842 111 790 q 297 893 213 893 l 450 893 q 585 842 535 893 q 636 704 636 790 l 636 635 q 625 622 636 622 l 606 622 q 594 635 594 622 l 594 703 q 557 814 594 774 q 450 854 519 854 l 297 854 q 190 814 228 854 q 153 703 153 774 l 153 190 q 190 79 153 119 q 297 39 228 39 l 450 39 q 557 79 519 39 q 594 190 594 119 l 594 400 q 582 411 594 411 l 403 411 q 390 422 390 411 l 390 439 q 403 450 390 450 l 611 450 q 636 424 636 450 l 636 189 q 585 51 636 103 q 450 0 535 0 z "},"ğ":{"ha":699,"x_min":104,"x_max":588,"o":"m 253 964 q 264 976 253 976 l 278 976 q 289 964 289 976 l 289 947 q 310 855 289 882 q 382 828 331 828 l 388 828 q 463 855 442 828 q 485 947 485 882 l 485 963 q 496 975 485 975 l 507 975 q 518 963 518 975 l 518 946 q 486 833 518 868 q 388 797 454 797 l 382 797 q 284 833 315 797 q 253 946 253 868 l 253 964 m 393 42 l 290 42 q 155 93 206 42 q 104 231 104 144 l 104 519 q 155 657 104 606 q 290 708 206 708 l 576 708 q 588 696 588 708 l 588 4 q 537 -133 588 -82 q 401 -185 486 -185 l 153 -185 q 140 -174 140 -185 l 140 -157 q 153 -146 140 -146 l 401 -146 q 508 -106 471 -146 q 546 6 546 -65 l 546 114 l 540 114 q 393 42 501 42 m 546 225 l 546 658 q 533 669 546 669 l 290 669 q 183 629 221 669 q 146 518 146 589 l 146 232 q 183 121 146 161 q 290 81 221 81 l 390 81 q 503 118 460 81 q 546 225 546 156 z "},"Ġ":{"ha":747,"x_min":111,"x_max":636,"o":"m 351 1003 l 351 1140 q 363 1153 351 1153 l 382 1153 q 393 1140 393 1153 l 393 1003 q 382 990 393 990 l 363 990 q 351 1003 351 990 m 450 0 l 297 0 q 162 51 213 0 q 111 189 111 103 l 111 704 q 162 842 111 790 q 297 893 213 893 l 450 893 q 585 842 535 893 q 636 704 636 790 l 636 635 q 625 622 636 622 l 606 622 q 594 635 594 622 l 594 703 q 557 814 594 774 q 450 854 519 854 l 297 854 q 190 814 228 854 q 153 703 153 774 l 153 190 q 190 79 153 119 q 297 39 228 39 l 450 39 q 557 79 519 39 q 594 190 594 119 l 594 400 q 582 411 594 411 l 403 411 q 390 422 390 411 l 390 439 q 403 450 390 450 l 611 450 q 636 424 636 450 l 636 189 q 585 51 636 103 q 450 0 535 0 z "},"ġ":{"ha":699,"x_min":104,"x_max":588,"o":"m 361 818 l 361 956 q 372 968 361 968 l 392 968 q 403 956 403 968 l 403 818 q 392 806 403 806 l 372 806 q 361 818 361 806 m 393 42 l 290 42 q 155 93 206 42 q 104 231 104 144 l 104 519 q 155 657 104 606 q 290 708 206 708 l 576 708 q 588 696 588 708 l 588 4 q 537 -133 588 -82 q 401 -185 486 -185 l 153 -185 q 140 -174 140 -185 l 140 -157 q 153 -146 140 -146 l 401 -146 q 508 -106 471 -146 q 546 6 546 -65 l 546 114 l 540 114 q 393 42 501 42 m 546 225 l 546 658 q 533 669 546 669 l 290 669 q 183 629 221 669 q 146 518 146 589 l 146 232 q 183 121 146 161 q 290 81 221 81 l 390 81 q 503 118 460 81 q 546 225 546 156 z "},"Ģ":{"ha":747,"x_min":111,"x_max":636,"o":"m 425 -57 l 425 -122 q 389 -322 425 -143 q 380 -331 386 -331 q 374 -322 374 -331 l 374 -57 q 385 -44 374 -44 l 414 -44 q 425 -57 425 -44 m 450 0 l 297 0 q 162 51 213 0 q 111 189 111 103 l 111 704 q 162 842 111 790 q 297 893 213 893 l 450 893 q 585 842 535 893 q 636 704 636 790 l 636 635 q 625 622 636 622 l 606 622 q 594 635 594 622 l 594 703 q 557 814 594 774 q 450 854 519 854 l 297 854 q 190 814 228 854 q 153 703 153 774 l 153 190 q 190 79 153 119 q 297 39 228 39 l 450 39 q 557 79 519 39 q 594 190 594 119 l 594 400 q 582 411 594 411 l 403 411 q 390 422 390 411 l 390 439 q 403 450 390 450 l 611 450 q 636 424 636 450 l 636 189 q 585 51 636 103 q 450 0 535 0 z "},"ģ":{"ha":699,"x_min":104,"x_max":588,"o":"m 393 42 l 290 42 q 155 93 206 42 q 104 231 104 144 l 104 519 q 155 657 104 606 q 290 708 206 708 l 576 708 q 588 696 588 708 l 588 4 q 537 -133 588 -82 q 401 -185 486 -185 l 153 -185 q 140 -174 140 -185 l 140 -157 q 153 -146 140 -146 l 401 -146 q 508 -106 471 -146 q 546 6 546 -65 l 546 114 l 540 114 q 393 42 501 42 m 546 225 l 546 658 q 533 669 546 669 l 290 669 q 183 629 221 669 q 146 518 146 589 l 146 232 q 183 121 146 161 q 290 81 221 81 l 390 81 q 503 118 460 81 q 546 225 546 156 m 350 810 l 350 875 q 386 1075 350 896 q 395 1083 389 1083 q 401 1075 401 1083 l 401 810 q 390 797 401 797 l 361 797 q 350 810 350 797 z "},"ĥ":{"ha":699,"x_min":111,"x_max":594,"o":"m 479 885 l 460 885 q 444 892 447 885 l 363 1038 l 281 892 q 265 885 278 885 l 246 885 q 240 900 231 885 l 329 1051 q 356 1064 338 1064 l 369 1064 q 396 1051 388 1064 l 485 900 q 479 885 494 885 m 142 0 l 122 0 q 111 13 111 0 l 111 964 q 122 976 111 976 l 142 976 q 153 964 153 976 l 153 636 l 158 636 q 306 708 197 708 l 408 708 q 544 657 493 708 q 594 519 594 606 l 594 13 q 583 0 594 0 l 564 0 q 553 13 553 0 l 553 518 q 515 629 553 589 q 408 669 478 669 l 308 669 q 196 632 239 669 q 153 525 153 594 l 153 13 q 142 0 153 0 z "},"Ħ":{"ha":694,"x_min":36,"x_max":753,"o":"m 156 0 l 136 0 q 125 13 125 0 l 125 644 q 113 656 125 656 l 49 656 q 36 667 36 656 l 36 683 q 49 694 36 694 l 113 694 q 125 706 125 694 l 125 881 q 136 893 125 893 l 156 893 q 167 881 167 893 l 167 706 q 179 694 167 694 l 610 694 q 622 706 622 694 l 622 881 q 633 893 622 893 l 653 893 q 664 881 664 893 l 664 706 q 676 694 664 694 l 740 694 q 753 683 753 694 l 753 667 q 740 656 753 656 l 676 656 q 664 644 664 656 l 664 13 q 653 0 664 0 l 633 0 q 622 13 622 0 l 622 425 q 610 436 622 436 l 179 436 q 167 425 167 436 l 167 13 q 156 0 167 0 m 179 475 l 610 475 q 622 486 622 475 l 622 644 q 610 656 622 656 l 179 656 q 167 644 167 656 l 167 486 q 179 475 167 475 z "},"ħ":{"ha":746,"x_min":42,"x_max":642,"o":"m 189 0 l 169 0 q 158 13 158 0 l 158 769 q 146 781 158 781 l 54 781 q 42 792 42 781 l 42 808 q 54 819 42 819 l 146 819 q 158 831 158 819 l 158 964 q 169 976 158 976 l 189 976 q 200 964 200 976 l 200 831 q 213 819 200 819 l 447 819 q 460 808 460 819 l 460 792 q 447 781 460 781 l 213 781 q 200 769 200 781 l 200 539 l 206 539 q 353 611 244 611 l 456 611 q 591 560 540 611 q 642 422 642 508 l 642 13 q 631 0 642 0 l 611 0 q 600 13 600 0 l 600 421 q 563 532 600 492 q 456 572 525 572 l 356 572 q 243 535 286 572 q 200 428 200 497 l 200 13 q 189 0 200 0 z "},"Ĩ":{"ha":306,"x_min":10,"x_max":296,"o":"m 136 991 q 128 983 136 991 q 81 975 119 975 q 26 999 42 975 q 10 1083 10 1024 l 10 1138 q 21 1150 10 1150 l 31 1150 q 42 1138 42 1150 l 42 1085 q 51 1022 42 1039 q 83 1004 60 1004 q 116 1018 107 1004 q 140 1078 125 1032 q 170 1140 154 1125 q 225 1154 186 1154 q 280 1130 264 1154 q 296 1046 296 1106 l 296 988 q 285 975 296 975 l 275 975 q 264 988 264 975 l 264 1044 q 255 1108 264 1090 q 222 1125 246 1125 q 191 1115 199 1125 q 178 1086 183 1106 q 136 991 153 1007 m 174 881 l 174 13 q 163 0 174 0 l 143 0 q 132 13 132 0 l 132 881 q 143 893 132 893 l 163 893 q 174 881 174 893 z "},"ĩ":{"ha":278,"x_min":-4,"x_max":282,"o":"m -4 910 l -4 964 q 7 976 -4 976 l 17 976 q 28 964 28 976 l 28 911 q 37 848 28 865 q 69 831 46 831 q 102 844 93 831 q 126 905 111 858 q 156 966 140 951 q 211 981 172 981 q 266 956 250 981 q 282 872 282 932 l 282 814 q 271 801 282 801 l 261 801 q 250 814 250 801 l 250 871 q 241 934 250 917 q 208 951 232 951 q 177 942 185 951 q 164 911 169 932 q 122 817 139 833 q 67 801 106 801 q 12 826 28 801 q -4 910 -4 850 m 118 13 l 118 696 q 129 708 118 708 l 149 708 q 160 696 160 708 l 160 13 q 149 0 160 0 l 129 0 q 118 13 118 0 z "},"Ī":{"ha":306,"x_min":-1,"x_max":307,"o":"m 294 1051 l 11 1051 q -1 1063 -1 1051 l -1 1079 q 11 1090 -1 1090 l 294 1090 q 307 1079 307 1090 l 307 1063 q 294 1051 307 1051 m 174 881 l 174 13 q 163 0 174 0 l 143 0 q 132 13 132 0 l 132 881 q 143 893 132 893 l 163 893 q 174 881 174 893 z "},"ī":{"ha":275,"x_min":-17,"x_max":292,"o":"m 279 871 l -4 871 q -17 882 -17 871 l -17 894 q -4 906 -17 906 l 279 906 q 292 894 292 906 l 292 882 q 279 871 292 871 m 118 13 l 118 696 q 129 708 118 708 l 149 708 q 160 696 160 708 l 160 13 q 149 0 160 0 l 129 0 q 118 13 118 0 z "},"Ĭ":{"ha":307,"x_min":21,"x_max":286,"o":"m 21 1149 q 32 1161 21 1161 l 46 1161 q 57 1149 57 1161 l 57 1132 q 78 1040 57 1067 q 150 1013 99 1013 l 156 1013 q 231 1040 210 1013 q 253 1132 253 1067 l 253 1147 q 264 1160 253 1160 l 275 1160 q 286 1147 286 1160 l 286 1131 q 254 1017 286 1053 q 156 982 222 982 l 150 982 q 52 1017 83 982 q 21 1131 21 1053 l 21 1149 m 174 881 l 174 13 q 163 0 174 0 l 143 0 q 132 13 132 0 l 132 881 q 143 893 132 893 l 163 893 q 174 881 174 893 z "},"ĭ":{"ha":279,"x_min":7,"x_max":272,"o":"m 7 964 q 18 976 7 976 l 32 976 q 43 964 43 976 l 43 947 q 64 855 43 882 q 136 828 85 828 l 142 828 q 217 855 196 828 q 239 947 239 882 l 239 963 q 250 975 239 975 l 261 975 q 272 963 272 975 l 272 946 q 240 833 272 868 q 142 797 208 797 l 136 797 q 38 833 69 797 q 7 946 7 868 l 7 964 m 118 13 l 118 696 q 129 708 118 708 l 149 708 q 160 696 160 708 l 160 13 q 149 0 160 0 l 129 0 q 118 13 118 0 z "},"Į":{"ha":306,"x_min":32,"x_max":174,"o":"m 143 893 l 163 893 q 174 881 174 893 l 174 13 q 163 0 174 0 l 153 0 l 74 -103 l 126 -103 q 167 -117 167 -103 q 74 -140 167 -140 q 33 -125 42 -140 q 40 -92 24 -110 l 132 24 l 132 881 q 143 893 132 893 z "},"į":{"ha":278,"x_min":18,"x_max":160,"o":"m 129 974 l 149 974 q 160 961 160 974 l 160 824 q 149 811 160 811 l 129 811 q 118 824 118 811 l 118 961 q 129 974 118 974 m 129 708 l 149 708 q 160 696 160 708 l 160 13 q 149 0 160 0 l 139 0 l 60 -103 l 113 -103 q 153 -117 153 -103 q 119 -143 153 -133 q 57 -153 86 -153 q 19 -131 28 -153 q 26 -92 10 -110 l 118 24 l 118 696 q 129 708 118 708 z "},"İ":{"ha":306,"x_min":132,"x_max":174,"o":"m 174 881 l 174 13 q 163 0 174 0 l 143 0 q 132 13 132 0 l 132 881 q 143 893 132 893 l 163 893 q 174 881 174 893 m 132 961 l 132 1099 q 143 1111 132 1111 l 163 1111 q 174 1099 174 1111 l 174 961 q 163 949 174 949 l 143 949 q 132 961 132 949 z "},"ı":{"ha":278,"x_min":118,"x_max":160,"o":"m 118 13 l 118 696 q 129 708 118 708 l 149 708 q 160 696 160 708 l 160 13 q 149 0 160 0 l 129 0 q 118 13 118 0 z "},"Ĳ":{"ha":989,"x_min":132,"x_max":878,"o":"m 847 893 l 867 893 q 878 882 878 893 l 878 189 q 827 51 878 103 q 692 0 776 0 l 553 0 q 417 51 468 0 q 367 189 367 103 l 367 300 q 378 313 367 313 l 397 313 q 408 300 408 313 l 408 190 q 446 79 408 119 q 553 39 483 39 l 692 39 q 799 79 761 39 q 836 190 836 119 l 836 881 q 847 893 836 893 m 174 881 l 174 13 q 163 0 174 0 l 143 0 q 132 13 132 0 l 132 881 q 143 893 132 893 l 163 893 q 174 881 174 893 z "},"ĳ":{"ha":556,"x_min":118,"x_max":438,"o":"m 118 13 l 118 696 q 129 708 118 708 l 149 708 q 160 696 160 708 l 160 13 q 149 0 160 0 l 129 0 q 118 13 118 0 m 118 824 l 118 961 q 129 974 118 974 l 149 974 q 160 961 160 974 l 160 824 q 149 811 160 811 l 129 811 q 118 824 118 811 m 396 824 l 396 961 q 407 974 396 974 l 426 974 q 438 961 438 974 l 438 824 q 426 811 438 811 l 407 811 q 396 824 396 811 m 251 -185 l 224 -185 q 211 -174 211 -185 l 211 -157 q 224 -146 211 -146 l 251 -146 q 358 -106 321 -146 q 396 6 396 -65 l 396 696 q 407 708 396 708 l 426 708 q 438 696 438 708 l 438 4 q 387 -133 438 -82 q 251 -185 336 -185 z "},"Ĵ":{"ha":685,"x_min":56,"x_max":663,"o":"m 536 893 l 556 893 q 567 882 567 893 l 567 189 q 516 51 567 103 q 381 0 465 0 l 242 0 q 106 51 157 0 q 56 189 56 103 l 56 300 q 67 313 56 313 l 86 313 q 97 300 97 313 l 97 190 q 135 79 97 119 q 242 39 172 39 l 381 39 q 488 79 450 39 q 525 190 525 119 l 525 881 q 536 893 525 893 m 657 982 l 638 982 q 622 989 625 982 l 540 1135 l 458 989 q 443 982 456 982 l 424 982 q 418 997 408 982 l 507 1149 q 533 1161 515 1161 l 547 1161 q 574 1149 565 1161 l 663 997 q 657 982 672 982 z "},"ĵ":{"ha":278,"x_min":-67,"x_max":261,"o":"m 256 797 l 236 797 q 221 804 225 797 l 139 950 l 57 804 q 42 797 53 797 l 22 797 q 17 813 7 797 l 106 964 q 132 976 114 976 l 146 976 q 172 964 164 976 l 261 813 q 256 797 271 797 m -26 -185 l -54 -185 q -67 -174 -67 -185 l -67 -157 q -54 -146 -67 -146 l -26 -146 q 81 -106 43 -146 q 118 6 118 -65 l 118 696 q 129 708 118 708 l 149 708 q 160 696 160 708 l 160 4 q 109 -133 160 -82 q -26 -185 58 -185 z "},"Ķ":{"ha":726,"x_min":125,"x_max":682,"o":"m 431 -57 l 431 -122 q 394 -322 431 -143 q 385 -331 392 -331 q 379 -322 379 -331 l 379 -57 q 390 -44 379 -44 l 419 -44 q 431 -57 431 -44 m 156 0 l 136 0 q 125 13 125 0 l 125 881 q 136 893 125 893 l 156 893 q 167 881 167 893 l 167 336 l 172 336 q 193 371 181 354 l 583 881 q 606 893 593 893 l 632 893 q 635 881 646 893 l 351 504 l 682 13 q 676 0 690 0 l 654 0 q 633 13 642 0 l 325 471 l 167 281 l 167 13 q 156 0 167 0 z "},"ķ":{"ha":583,"x_min":111,"x_max":563,"o":"m 508 708 l 528 708 q 533 696 543 708 l 313 369 l 313 364 l 563 13 q 558 0 572 0 l 535 0 q 510 13 519 0 l 267 358 q 267 375 261 367 l 486 699 q 508 708 493 708 m 142 0 l 122 0 q 111 13 111 0 l 111 964 q 122 976 111 976 l 142 976 q 153 964 153 976 l 153 13 q 142 0 153 0 m 351 -57 l 351 -122 q 315 -322 351 -143 q 307 -331 314 -331 q 300 -322 300 -331 l 300 -57 q 311 -44 300 -44 l 340 -44 q 351 -57 351 -44 z "},"Ĺ":{"ha":628,"x_min":125,"x_max":586,"o":"m 250 1161 l 292 1161 q 299 1158 297 1161 q 297 1149 301 1154 l 169 993 q 150 982 161 982 l 139 982 q 135 994 128 982 l 229 1149 q 250 1161 236 1161 m 574 0 l 136 0 q 125 13 125 0 l 125 881 q 136 893 125 893 l 156 893 q 167 881 167 893 l 167 53 q 179 42 167 42 l 574 42 q 586 31 586 42 l 586 11 q 574 0 586 0 z "},"ĺ":{"ha":274,"x_min":118,"x_max":290,"o":"m 240 1218 l 282 1218 q 290 1215 288 1218 q 288 1206 292 1211 l 160 1050 q 140 1039 151 1039 l 129 1039 q 125 1051 118 1039 l 219 1206 q 240 1218 225 1218 m 149 0 l 129 0 q 118 13 118 0 l 118 964 q 129 976 118 976 l 149 976 q 160 964 160 976 l 160 13 q 149 0 160 0 z "},"Ļ":{"ha":628,"x_min":125,"x_max":586,"o":"m 382 -57 l 382 -122 q 346 -322 382 -143 q 338 -331 344 -331 q 331 -322 331 -331 l 331 -57 q 342 -44 331 -44 l 371 -44 q 382 -57 382 -44 m 574 0 l 136 0 q 125 13 125 0 l 125 881 q 136 893 125 893 l 156 893 q 167 881 167 893 l 167 53 q 179 42 167 42 l 574 42 q 586 31 586 42 l 586 11 q 574 0 586 0 z "},"ļ":{"ha":279,"x_min":114,"x_max":165,"o":"m 165 -57 l 165 -122 q 129 -322 165 -143 q 121 -331 128 -331 q 114 -322 114 -331 l 114 -57 q 125 -44 114 -44 l 154 -44 q 165 -57 165 -44 m 149 0 l 129 0 q 118 13 118 0 l 118 964 q 129 976 118 976 l 149 976 q 160 964 160 976 l 160 13 q 149 0 160 0 z "},"Ľ":{"ha":628,"x_min":125,"x_max":586,"o":"m 490 881 l 490 771 q 454 571 490 750 q 446 563 453 563 q 439 571 439 563 l 439 881 q 450 893 439 893 l 479 893 q 490 881 490 893 m 574 0 l 136 0 q 125 13 125 0 l 125 881 q 136 893 125 893 l 156 893 q 167 881 167 893 l 167 53 q 179 42 167 42 l 574 42 q 586 31 586 42 l 586 11 q 574 0 586 0 z "},"ľ":{"ha":350,"x_min":118,"x_max":322,"o":"m 322 964 l 322 854 q 286 654 322 833 q 277 646 283 646 q 271 654 271 646 l 271 964 q 282 976 271 976 l 311 976 q 322 964 322 976 m 149 0 l 129 0 q 118 13 118 0 l 118 964 q 129 976 118 976 l 149 976 q 160 964 160 976 l 160 13 q 149 0 160 0 z "},"Ŀ":{"ha":694,"x_min":125,"x_max":586,"o":"m 574 0 l 136 0 q 125 13 125 0 l 125 881 q 136 893 125 893 l 156 893 q 167 881 167 893 l 167 53 q 179 42 167 42 l 574 42 q 586 31 586 42 l 586 11 q 574 0 586 0 m 432 525 l 432 360 q 421 347 432 347 l 392 347 q 381 360 381 347 l 381 525 q 392 538 381 538 l 421 538 q 432 525 432 538 z "},"ŀ":{"ha":404,"x_min":118,"x_max":335,"o":"m 149 0 l 129 0 q 118 13 118 0 l 118 964 q 129 976 118 976 l 149 976 q 160 964 160 976 l 160 13 q 149 0 160 0 m 335 525 l 335 360 q 324 347 335 347 l 294 347 q 283 360 283 347 l 283 525 q 294 538 283 538 l 324 538 q 335 525 335 538 z "},"Ł":{"ha":694,"x_min":8,"x_max":586,"o":"m 574 0 l 136 0 q 125 13 125 0 l 125 557 l 21 497 q 8 503 8 490 l 8 525 q 21 542 8 535 l 125 601 l 125 881 q 136 893 125 893 l 156 893 q 167 881 167 893 l 167 625 l 314 708 q 326 701 326 715 l 326 681 q 314 664 326 671 l 167 581 l 167 53 q 179 42 167 42 l 574 42 q 586 31 586 42 l 586 11 q 574 0 586 0 z "},"ł":{"ha":401,"x_min":42,"x_max":360,"o":"m 210 0 l 190 0 q 179 13 179 0 l 179 568 l 54 497 q 42 503 42 490 l 42 525 q 54 542 42 535 l 179 613 l 179 964 q 190 976 179 976 l 210 976 q 221 964 221 976 l 221 636 l 347 708 q 360 701 360 715 l 360 681 q 347 664 360 671 l 221 592 l 221 13 q 210 0 221 0 z "},"Ń":{"ha":803,"x_min":125,"x_max":678,"o":"m 521 1161 l 563 1161 q 570 1158 568 1161 q 568 1149 572 1154 l 440 993 q 421 982 432 982 l 410 982 q 406 994 399 982 l 500 1149 q 521 1161 506 1161 m 156 0 l 136 0 q 125 13 125 0 l 125 881 q 136 893 125 893 l 156 893 q 165 888 163 893 l 631 100 l 636 100 l 636 881 q 647 893 636 893 l 667 893 q 678 881 678 893 l 678 13 q 667 0 678 0 l 653 0 q 636 11 643 0 l 172 796 l 167 796 l 167 13 q 156 0 167 0 z "},"ń":{"ha":699,"x_min":111,"x_max":594,"o":"m 453 976 l 494 976 q 502 973 500 976 q 500 964 504 969 l 372 808 q 353 797 364 797 l 342 797 q 338 810 331 797 l 432 964 q 453 976 439 976 m 142 0 l 122 0 q 111 13 111 0 l 111 696 q 122 708 111 708 l 142 708 q 153 696 153 708 l 153 636 l 158 636 q 306 708 197 708 l 408 708 q 544 657 493 708 q 594 519 594 606 l 594 13 q 583 0 594 0 l 564 0 q 553 13 553 0 l 553 518 q 515 629 553 589 q 408 669 478 669 l 308 669 q 196 632 239 669 q 153 525 153 594 l 153 13 q 142 0 153 0 z "},"Ņ":{"ha":803,"x_min":125,"x_max":678,"o":"m 428 -57 l 428 -122 q 392 -322 428 -143 q 383 -331 389 -331 q 376 -322 376 -331 l 376 -57 q 388 -44 376 -44 l 417 -44 q 428 -57 428 -44 m 156 0 l 136 0 q 125 13 125 0 l 125 881 q 136 893 125 893 l 156 893 q 165 888 163 893 l 631 100 l 636 100 l 636 881 q 647 893 636 893 l 667 893 q 678 881 678 893 l 678 13 q 667 0 678 0 l 653 0 q 636 11 643 0 l 172 796 l 167 796 l 167 13 q 156 0 167 0 z "},"ņ":{"ha":694,"x_min":111,"x_max":594,"o":"m 379 -57 l 379 -122 q 343 -322 379 -143 q 335 -331 342 -331 q 328 -322 328 -331 l 328 -57 q 339 -44 328 -44 l 368 -44 q 379 -57 379 -44 m 142 0 l 122 0 q 111 13 111 0 l 111 696 q 122 708 111 708 l 142 708 q 153 696 153 708 l 153 636 l 158 636 q 306 708 197 708 l 408 708 q 544 657 493 708 q 594 519 594 606 l 594 13 q 583 0 594 0 l 564 0 q 553 13 553 0 l 553 518 q 515 629 553 589 q 408 669 478 669 l 308 669 q 196 632 239 669 q 153 525 153 594 l 153 13 q 142 0 153 0 z "},"Ň":{"ha":803,"x_min":125,"x_max":678,"o":"m 156 0 l 136 0 q 125 13 125 0 l 125 881 q 136 893 125 893 l 156 893 q 165 888 163 893 l 631 100 l 636 100 l 636 881 q 647 893 636 893 l 667 893 q 678 881 678 893 l 678 13 q 667 0 678 0 l 653 0 q 636 11 643 0 l 172 796 l 167 796 l 167 13 q 156 0 167 0 m 394 982 q 368 994 376 982 l 279 1146 q 285 1161 269 1161 l 304 1161 q 319 1154 317 1161 l 401 1008 l 483 1154 q 499 1161 486 1161 l 518 1161 q 524 1146 533 1161 l 435 994 q 408 982 426 982 l 394 982 z "},"ň":{"ha":699,"x_min":111,"x_max":594,"o":"m 346 797 q 319 810 328 797 l 231 961 q 236 976 221 976 l 256 976 q 271 969 267 976 l 353 824 l 435 969 q 450 976 439 976 l 469 976 q 475 961 485 976 l 386 810 q 360 797 378 797 l 346 797 m 142 0 l 122 0 q 111 13 111 0 l 111 696 q 122 708 111 708 l 142 708 q 153 696 153 708 l 153 636 l 158 636 q 306 708 197 708 l 408 708 q 544 657 493 708 q 594 519 594 606 l 594 13 q 583 0 594 0 l 564 0 q 553 13 553 0 l 553 518 q 515 629 553 589 q 408 669 478 669 l 308 669 q 196 632 239 669 q 153 525 153 594 l 153 13 q 142 0 153 0 z "},"Ŋ":{"ha":694,"x_min":125,"x_max":678,"o":"m 492 -185 l 464 -185 q 451 -174 451 -185 l 451 -157 q 464 -146 451 -146 l 492 -146 q 599 -106 561 -146 q 636 6 636 -65 l 636 11 l 172 796 l 167 796 l 167 13 q 156 0 167 0 l 136 0 q 125 13 125 0 l 125 881 q 136 893 125 893 l 156 893 q 165 888 163 893 l 631 100 l 636 100 l 636 881 q 647 893 636 893 l 667 893 q 678 881 678 893 l 678 4 q 627 -133 678 -82 q 492 -185 576 -185 z "},"ŋ":{"ha":699,"x_min":111,"x_max":594,"o":"m 408 -185 l 381 -185 q 368 -174 368 -185 l 368 -157 q 381 -146 368 -146 l 408 -146 q 515 -106 478 -146 q 553 6 553 -65 l 553 518 q 515 629 553 589 q 408 669 478 669 l 308 669 q 196 632 239 669 q 153 525 153 594 l 153 13 q 142 0 153 0 l 122 0 q 111 13 111 0 l 111 696 q 122 708 111 708 l 142 708 q 153 696 153 708 l 153 636 l 158 636 q 306 708 197 708 l 408 708 q 544 657 493 708 q 594 519 594 606 l 594 4 q 544 -133 594 -82 q 408 -185 493 -185 z "},"Ō":{"ha":768,"x_min":111,"x_max":657,"o":"m 525 1051 l 242 1051 q 229 1063 229 1051 l 229 1079 q 242 1090 229 1090 l 525 1090 q 538 1079 538 1090 l 538 1063 q 525 1051 538 1051 m 297 39 l 471 39 q 578 79 540 39 q 615 190 615 119 l 615 703 q 578 814 615 774 q 471 854 540 854 l 297 854 q 190 814 228 854 q 153 703 153 774 l 153 190 q 190 79 153 119 q 297 39 228 39 m 471 0 l 297 0 q 162 51 213 0 q 111 189 111 103 l 111 704 q 162 842 111 790 q 297 893 213 893 l 471 893 q 606 842 556 893 q 657 704 657 790 l 657 189 q 606 51 657 103 q 471 0 556 0 z "},"ō":{"ha":685,"x_min":97,"x_max":588,"o":"m 483 871 l 200 871 q 188 882 188 871 l 188 894 q 200 906 188 906 l 483 906 q 496 894 496 906 l 496 882 q 483 871 496 871 m 401 0 l 283 0 q 148 51 199 0 q 97 189 97 103 l 97 519 q 148 657 97 606 q 283 708 199 708 l 401 708 q 537 657 486 708 q 588 519 588 606 l 588 189 q 537 51 588 103 q 401 0 486 0 m 283 39 l 401 39 q 508 79 471 39 q 546 190 546 119 l 546 518 q 508 629 546 589 q 401 669 471 669 l 283 669 q 176 629 214 669 q 139 518 139 589 l 139 190 q 176 79 139 119 q 283 39 214 39 z "},"Ŏ":{"ha":768,"x_min":111,"x_max":657,"o":"m 251 1149 q 263 1161 251 1161 l 276 1161 q 288 1149 288 1161 l 288 1132 q 308 1040 288 1067 q 381 1013 329 1013 l 386 1013 q 462 1040 440 1013 q 483 1132 483 1067 l 483 1147 q 494 1160 483 1160 l 506 1160 q 517 1147 517 1160 l 517 1131 q 485 1017 517 1053 q 386 982 453 982 l 381 982 q 283 1017 314 982 q 251 1131 251 1053 l 251 1149 m 297 39 l 471 39 q 578 79 540 39 q 615 190 615 119 l 615 703 q 578 814 615 774 q 471 854 540 854 l 297 854 q 190 814 228 854 q 153 703 153 774 l 153 190 q 190 79 153 119 q 297 39 228 39 m 471 0 l 297 0 q 162 51 213 0 q 111 189 111 103 l 111 704 q 162 842 111 790 q 297 893 213 893 l 471 893 q 606 842 556 893 q 657 704 657 790 l 657 189 q 606 51 657 103 q 471 0 556 0 z "},"ŏ":{"ha":685,"x_min":97,"x_max":588,"o":"m 210 964 q 221 976 210 976 l 235 976 q 246 964 246 976 l 246 947 q 267 855 246 882 q 339 828 288 828 l 344 828 q 420 855 399 828 q 442 947 442 882 l 442 963 q 453 975 442 975 l 464 975 q 475 963 475 975 l 475 946 q 443 833 475 868 q 344 797 411 797 l 339 797 q 241 833 272 797 q 210 946 210 868 l 210 964 m 401 0 l 283 0 q 148 51 199 0 q 97 189 97 103 l 97 519 q 148 657 97 606 q 283 708 199 708 l 401 708 q 537 657 486 708 q 588 519 588 606 l 588 189 q 537 51 588 103 q 401 0 486 0 m 283 39 l 401 39 q 508 79 471 39 q 546 190 546 119 l 546 518 q 508 629 546 589 q 401 669 471 669 l 283 669 q 176 629 214 669 q 139 518 139 589 l 139 190 q 176 79 139 119 q 283 39 214 39 z "},"Ő":{"ha":768,"x_min":111,"x_max":657,"o":"m 399 1161 l 429 1161 q 437 1158 435 1161 q 435 1149 439 1154 l 321 993 q 303 982 313 982 l 290 982 q 286 994 279 982 l 378 1149 q 399 1161 385 1161 m 560 1161 l 590 1161 q 598 1158 596 1161 q 596 1149 600 1154 l 482 993 q 464 982 474 982 l 451 982 q 447 994 440 982 l 539 1149 q 560 1161 546 1161 m 297 39 l 471 39 q 578 79 540 39 q 615 190 615 119 l 615 703 q 578 814 615 774 q 471 854 540 854 l 297 854 q 190 814 228 854 q 153 703 153 774 l 153 190 q 190 79 153 119 q 297 39 228 39 m 471 0 l 297 0 q 162 51 213 0 q 111 189 111 103 l 111 704 q 162 842 111 790 q 297 893 213 893 l 471 893 q 606 842 556 893 q 657 704 657 790 l 657 189 q 606 51 657 103 q 471 0 556 0 z "},"ő":{"ha":685,"x_min":97,"x_max":588,"o":"m 365 976 l 396 976 q 403 973 401 976 q 401 964 406 969 l 288 808 q 269 797 279 797 l 257 797 q 253 810 246 797 l 344 964 q 365 976 351 976 m 526 976 l 557 976 q 565 973 563 976 q 563 964 567 969 l 449 808 q 431 797 440 797 l 418 797 q 414 810 407 797 l 506 964 q 526 976 513 976 m 401 0 l 283 0 q 148 51 199 0 q 97 189 97 103 l 97 519 q 148 657 97 606 q 283 708 199 708 l 401 708 q 537 657 486 708 q 588 519 588 606 l 588 189 q 537 51 588 103 q 401 0 486 0 m 283 39 l 401 39 q 508 79 471 39 q 546 190 546 119 l 546 518 q 508 629 546 589 q 401 669 471 669 l 283 669 q 176 629 214 669 q 139 518 139 589 l 139 190 q 176 79 139 119 q 283 39 214 39 z "},"Œ":{"ha":1074,"x_min":111,"x_max":963,"o":"m 111 189 l 111 704 q 162 842 111 790 q 297 893 213 893 l 950 893 q 963 882 963 893 l 963 865 q 950 854 963 854 l 571 854 q 558 843 558 854 l 558 486 q 571 475 558 475 l 914 475 q 926 464 926 475 l 926 447 q 914 436 926 436 l 571 436 q 558 425 558 436 l 558 50 q 571 39 558 39 l 950 39 q 963 28 963 39 l 963 11 q 950 0 963 0 l 297 0 q 162 51 213 0 q 111 189 111 103 m 297 39 l 504 39 q 517 50 517 39 l 517 843 q 504 854 517 854 l 297 854 q 190 814 228 854 q 153 703 153 774 l 153 190 q 190 79 153 119 q 297 39 228 39 z "},"œ":{"ha":1138,"x_min":97,"x_max":1040,"o":"m 401 0 l 283 0 q 148 51 199 0 q 97 189 97 103 l 97 519 q 148 657 97 606 q 283 708 199 708 l 401 708 q 567 615 519 708 q 732 708 614 708 l 854 708 q 990 657 939 708 q 1040 519 1040 606 l 1040 343 q 1028 329 1040 329 l 600 329 q 588 318 588 329 l 588 190 q 625 79 588 119 q 732 39 663 39 l 1017 39 q 1029 28 1029 39 l 1029 11 q 1017 0 1029 0 l 732 0 q 567 93 614 0 q 401 0 519 0 m 600 368 l 986 368 q 999 379 999 368 l 999 518 q 961 629 999 589 q 854 669 924 669 l 732 669 q 625 629 663 669 q 588 518 588 589 l 588 379 q 600 368 588 368 m 283 39 l 401 39 q 508 79 471 39 q 546 190 546 119 l 546 518 q 508 629 546 589 q 401 669 471 669 l 283 669 q 176 629 214 669 q 139 518 139 589 l 139 190 q 176 79 139 119 q 283 39 214 39 z "},"Ŕ":{"ha":736,"x_min":125,"x_max":651,"o":"m 438 1161 l 479 1161 q 487 1158 485 1161 q 485 1149 489 1154 l 357 993 q 338 982 349 982 l 326 982 q 322 994 315 982 l 417 1149 q 438 1161 422 1161 m 156 0 l 136 0 q 125 13 125 0 l 125 881 q 136 893 125 893 l 449 893 q 584 842 533 893 q 635 704 635 790 l 635 565 q 593 438 635 488 q 481 379 551 389 l 481 374 l 651 13 q 646 0 658 0 l 621 0 q 603 13 610 0 l 433 376 l 179 376 q 167 365 167 376 l 167 13 q 156 0 167 0 m 179 415 l 449 415 q 556 456 518 415 q 593 567 593 496 l 593 703 q 556 814 593 774 q 449 854 518 854 l 179 854 q 167 843 167 854 l 167 426 q 179 415 167 415 z "},"ŕ":{"ha":421,"x_min":111,"x_max":379,"o":"m 299 976 l 340 976 q 348 973 346 976 q 346 964 350 969 l 218 808 q 199 797 210 797 l 188 797 q 183 810 176 797 l 278 964 q 299 976 283 976 m 142 0 l 122 0 q 111 13 111 0 l 111 696 q 122 708 111 708 l 142 708 q 153 696 153 708 l 153 633 l 158 633 q 212 685 174 661 q 311 708 250 708 l 367 708 q 379 697 379 708 l 379 681 q 367 669 379 669 l 310 669 q 196 625 239 669 q 153 504 153 581 l 153 13 q 142 0 153 0 z "},"Ŗ":{"ha":736,"x_min":125,"x_max":651,"o":"m 389 -57 l 389 -122 q 353 -322 389 -143 q 344 -331 350 -331 q 338 -322 338 -331 l 338 -57 q 349 -44 338 -44 l 378 -44 q 389 -57 389 -44 m 156 0 l 136 0 q 125 13 125 0 l 125 881 q 136 893 125 893 l 449 893 q 584 842 533 893 q 635 704 635 790 l 635 565 q 593 438 635 488 q 481 379 551 389 l 481 374 l 651 13 q 646 0 658 0 l 621 0 q 603 13 610 0 l 433 376 l 179 376 q 167 365 167 376 l 167 13 q 156 0 167 0 m 179 415 l 449 415 q 556 456 518 415 q 593 567 593 496 l 593 703 q 556 814 593 774 q 449 854 518 854 l 179 854 q 167 843 167 854 l 167 426 q 179 415 167 415 z "},"ŗ":{"ha":421,"x_min":107,"x_max":379,"o":"m 158 -57 l 158 -122 q 122 -322 158 -143 q 113 -331 119 -331 q 107 -322 107 -331 l 107 -57 q 118 -44 107 -44 l 147 -44 q 158 -57 158 -44 m 142 0 l 122 0 q 111 13 111 0 l 111 696 q 122 708 111 708 l 142 708 q 153 696 153 708 l 153 633 l 158 633 q 212 685 174 661 q 311 708 250 708 l 367 708 q 379 697 379 708 l 379 681 q 367 669 379 669 l 310 669 q 196 625 239 669 q 153 504 153 581 l 153 13 q 142 0 153 0 z "},"Ř":{"ha":736,"x_min":125,"x_max":651,"o":"m 340 982 q 314 994 322 982 l 225 1146 q 231 1161 215 1161 l 250 1161 q 265 1154 261 1161 l 347 1008 l 429 1154 q 444 1161 433 1161 l 464 1161 q 469 1146 479 1161 l 381 994 q 354 982 372 982 l 340 982 m 156 0 l 136 0 q 125 13 125 0 l 125 881 q 136 893 125 893 l 449 893 q 584 842 533 893 q 635 704 635 790 l 635 565 q 593 438 635 488 q 481 379 551 389 l 481 374 l 651 13 q 646 0 658 0 l 621 0 q 603 13 610 0 l 433 376 l 179 376 q 167 365 167 376 l 167 13 q 156 0 167 0 m 179 415 l 449 415 q 556 456 518 415 q 593 567 593 496 l 593 703 q 556 814 593 774 q 449 854 518 854 l 179 854 q 167 843 167 854 l 167 426 q 179 415 167 415 z "},"ř":{"ha":421,"x_min":111,"x_max":379,"o":"m 229 797 q 203 810 211 797 l 114 961 q 119 976 104 976 l 139 976 q 154 969 150 976 l 236 824 l 318 969 q 333 976 322 976 l 353 976 q 358 961 368 976 l 269 810 q 243 797 261 797 l 229 797 m 142 0 l 122 0 q 111 13 111 0 l 111 696 q 122 708 111 708 l 142 708 q 153 696 153 708 l 153 633 l 158 633 q 212 685 174 661 q 311 708 250 708 l 367 708 q 379 697 379 708 l 379 681 q 367 669 379 669 l 310 669 q 196 625 239 669 q 153 504 153 581 l 153 13 q 142 0 153 0 z "},"Ś":{"ha":789,"x_min":125,"x_max":664,"o":"m 488 1161 l 529 1161 q 537 1158 535 1161 q 535 1149 539 1154 l 407 993 q 388 982 399 982 l 376 982 q 372 994 365 982 l 467 1149 q 488 1161 472 1161 m 125 189 l 125 244 q 136 257 125 257 l 156 257 q 167 244 167 257 l 167 190 q 204 79 167 119 q 311 39 242 39 l 478 39 q 585 79 547 39 q 622 190 622 119 l 622 260 q 571 363 622 325 q 447 419 519 401 q 301 453 374 436 q 176 511 228 471 q 125 621 125 551 l 125 704 q 176 842 125 790 q 311 893 226 893 l 478 893 q 613 842 563 893 q 664 704 664 790 l 664 663 q 653 650 664 650 l 633 650 q 622 663 622 650 l 622 703 q 585 814 622 774 q 478 854 547 854 l 311 854 q 204 814 242 854 q 167 703 167 774 l 167 622 q 342 481 167 519 q 488 447 415 465 q 613 383 561 428 q 664 263 664 338 l 664 189 q 613 51 664 103 q 478 0 563 0 l 311 0 q 176 51 226 0 q 125 189 125 103 z "},"ś":{"ha":588,"x_min":75,"x_max":513,"o":"m 368 976 l 410 976 q 417 973 415 976 q 415 964 419 969 l 288 808 q 268 797 279 797 l 257 797 q 253 810 246 797 l 347 964 q 368 976 353 976 m 331 0 l 94 0 q 82 11 82 0 l 82 28 q 94 39 82 39 l 331 39 q 471 150 471 39 l 471 192 q 453 275 471 243 q 388 324 435 307 l 204 388 q 103 449 132 413 q 75 553 75 486 q 244 708 75 708 l 468 708 q 481 697 481 708 l 481 681 q 468 669 481 669 l 244 669 q 149 640 181 669 q 118 574 118 611 l 118 536 q 141 467 118 492 q 213 426 164 443 l 394 361 q 490 293 468 340 q 513 161 513 246 q 468 38 513 76 q 331 0 424 0 z "},"Ŝ":{"ha":789,"x_min":125,"x_max":664,"o":"m 511 982 l 492 982 q 476 989 481 982 l 394 1135 l 313 989 q 297 982 308 982 l 278 982 q 272 997 263 982 l 361 1149 q 388 1161 369 1161 l 401 1161 q 428 1149 419 1161 l 517 997 q 511 982 526 982 m 125 189 l 125 244 q 136 257 125 257 l 156 257 q 167 244 167 257 l 167 190 q 204 79 167 119 q 311 39 242 39 l 478 39 q 585 79 547 39 q 622 190 622 119 l 622 260 q 571 363 622 325 q 447 419 519 401 q 301 453 374 436 q 176 511 228 471 q 125 621 125 551 l 125 704 q 176 842 125 790 q 311 893 226 893 l 478 893 q 613 842 563 893 q 664 704 664 790 l 664 663 q 653 650 664 650 l 633 650 q 622 663 622 650 l 622 703 q 585 814 622 774 q 478 854 547 854 l 311 854 q 204 814 242 854 q 167 703 167 774 l 167 622 q 342 481 167 519 q 488 447 415 465 q 613 383 561 428 q 664 263 664 338 l 664 189 q 613 51 664 103 q 478 0 563 0 l 311 0 q 176 51 226 0 q 125 189 125 103 z "},"ŝ":{"ha":588,"x_min":75,"x_max":513,"o":"m 408 797 l 389 797 q 374 804 378 797 l 292 950 l 210 804 q 194 797 206 797 l 175 797 q 169 813 160 797 l 258 964 q 285 976 267 976 l 299 976 q 325 964 317 976 l 414 813 q 408 797 424 797 m 331 0 l 94 0 q 82 11 82 0 l 82 28 q 94 39 82 39 l 331 39 q 471 150 471 39 l 471 192 q 453 275 471 243 q 388 324 435 307 l 204 388 q 103 449 132 413 q 75 553 75 486 q 244 708 75 708 l 468 708 q 481 697 481 708 l 481 681 q 468 669 481 669 l 244 669 q 149 640 181 669 q 118 574 118 611 l 118 536 q 141 467 118 492 q 213 426 164 443 l 394 361 q 490 293 468 340 q 513 161 513 246 q 468 38 513 76 q 331 0 424 0 z "},"Ş":{"ha":789,"x_min":125,"x_max":664,"o":"m 653 650 l 633 650 q 622 663 622 650 l 622 703 q 585 814 622 774 q 478 854 547 854 l 311 854 q 204 814 242 854 q 167 703 167 774 l 167 622 q 342 481 167 519 q 488 447 415 465 q 613 383 561 428 q 664 263 664 338 l 664 189 q 613 51 664 103 q 478 0 563 0 l 449 0 l 385 -69 l 385 -75 q 467 -93 440 -75 q 494 -154 494 -111 l 494 -168 q 385 -247 494 -247 l 358 -247 q 346 -236 346 -247 l 346 -222 q 358 -211 346 -211 l 381 -211 q 440 -201 422 -211 q 457 -164 457 -190 l 457 -161 q 440 -122 457 -133 q 381 -111 424 -111 l 368 -111 q 338 -94 344 -111 q 346 -62 331 -78 l 401 0 l 311 0 q 176 51 226 0 q 125 189 125 103 l 125 244 q 136 257 125 257 l 156 257 q 167 244 167 257 l 167 190 q 204 79 167 119 q 311 39 242 39 l 478 39 q 585 79 547 39 q 622 190 622 119 l 622 260 q 571 363 622 325 q 447 419 519 401 q 301 453 374 436 q 176 511 228 471 q 125 621 125 551 l 125 704 q 176 842 125 790 q 311 893 226 893 l 478 893 q 613 842 563 893 q 664 704 664 790 l 664 663 q 653 650 664 650 z "},"ş":{"ha":588,"x_min":75,"x_max":513,"o":"m 285 -75 q 367 -93 340 -75 q 394 -154 394 -111 l 394 -168 q 285 -247 394 -247 l 258 -247 q 246 -236 246 -247 l 246 -222 q 258 -211 246 -211 l 281 -211 q 357 -164 357 -211 l 357 -161 q 340 -122 357 -133 q 281 -111 324 -111 l 268 -111 q 238 -94 244 -111 q 246 -62 231 -78 l 301 0 l 94 0 q 82 11 82 0 l 82 28 q 94 39 82 39 l 331 39 q 471 150 471 39 l 471 192 q 453 275 471 243 q 388 324 435 307 l 204 388 q 103 449 132 413 q 75 553 75 486 q 244 708 75 708 l 468 708 q 481 697 481 708 l 481 681 q 468 669 481 669 l 244 669 q 149 640 181 669 q 118 574 118 611 l 118 536 q 141 467 118 492 q 213 426 164 443 l 394 361 q 490 293 468 340 q 513 163 513 246 q 473 42 513 81 q 350 0 433 4 l 285 -69 l 285 -75 z "},"Š":{"ha":789,"x_min":125,"x_max":664,"o":"m 388 982 q 361 994 369 982 l 272 1146 q 278 1161 263 1161 l 297 1161 q 313 1154 308 1161 l 394 1008 l 476 1154 q 492 1161 481 1161 l 511 1161 q 517 1146 526 1161 l 428 994 q 401 982 419 982 l 388 982 m 125 189 l 125 244 q 136 257 125 257 l 156 257 q 167 244 167 257 l 167 190 q 204 79 167 119 q 311 39 242 39 l 478 39 q 585 79 547 39 q 622 190 622 119 l 622 260 q 571 363 622 325 q 447 419 519 401 q 301 453 374 436 q 176 511 228 471 q 125 621 125 551 l 125 704 q 176 842 125 790 q 311 893 226 893 l 478 893 q 613 842 563 893 q 664 704 664 790 l 664 663 q 653 650 664 650 l 633 650 q 622 663 622 650 l 622 703 q 585 814 622 774 q 478 854 547 854 l 311 854 q 204 814 242 854 q 167 703 167 774 l 167 622 q 342 481 167 519 q 488 447 415 465 q 613 383 561 428 q 664 263 664 338 l 664 189 q 613 51 664 103 q 478 0 563 0 l 311 0 q 176 51 226 0 q 125 189 125 103 z "},"š":{"ha":588,"x_min":75,"x_max":513,"o":"m 285 797 q 258 810 267 797 l 169 961 q 175 976 160 976 l 194 976 q 210 969 206 976 l 292 824 l 374 969 q 389 976 378 976 l 408 976 q 414 961 424 976 l 325 810 q 299 797 317 797 l 285 797 m 331 0 l 94 0 q 82 11 82 0 l 82 28 q 94 39 82 39 l 331 39 q 471 150 471 39 l 471 192 q 453 275 471 243 q 388 324 435 307 l 204 388 q 103 449 132 413 q 75 553 75 486 q 244 708 75 708 l 468 708 q 481 697 481 708 l 481 681 q 468 669 481 669 l 244 669 q 149 640 181 669 q 118 574 118 611 l 118 536 q 141 467 118 492 q 213 426 164 443 l 394 361 q 490 293 468 340 q 513 161 513 246 q 468 38 513 76 q 331 0 424 0 z "},"Ţ":{"ha":575,"x_min":28,"x_max":547,"o":"m 314 -57 l 314 -122 q 278 -322 314 -143 q 269 -331 275 -331 q 263 -322 263 -331 l 263 -57 q 274 -44 263 -44 l 303 -44 q 314 -57 314 -44 m 297 0 l 278 0 q 267 13 267 0 l 267 843 q 254 854 267 854 l 40 854 q 28 865 28 854 l 28 882 q 40 893 28 893 l 535 893 q 547 882 547 893 l 547 865 q 535 854 547 854 l 321 854 q 308 843 308 854 l 308 13 q 297 0 308 0 z "},"ţ":{"ha":481,"x_min":42,"x_max":418,"o":"m 315 -57 l 315 -122 q 279 -322 315 -143 q 271 -331 278 -331 q 264 -322 264 -331 l 264 -57 q 275 -44 264 -44 l 304 -44 q 315 -57 315 -44 m 146 669 l 54 669 q 42 681 42 669 l 42 697 q 54 708 42 708 l 146 708 q 158 719 158 708 l 158 828 q 169 840 158 840 l 189 840 q 200 828 200 840 l 200 719 q 213 708 200 708 l 392 708 q 404 697 404 708 l 404 681 q 392 669 404 669 l 213 669 q 200 658 200 669 l 200 186 q 241 78 200 117 q 353 39 282 39 l 406 39 q 418 28 418 39 l 418 11 q 406 0 418 0 l 353 0 q 213 50 267 0 q 158 185 158 100 l 158 658 q 146 669 158 669 z "},"Ť":{"ha":575,"x_min":28,"x_max":547,"o":"m 282 982 q 256 994 264 982 l 167 1146 q 172 1161 157 1161 l 192 1161 q 207 1154 203 1161 l 289 1008 l 371 1154 q 386 1161 375 1161 l 406 1161 q 411 1146 421 1161 l 322 994 q 296 982 314 982 l 282 982 m 297 0 l 278 0 q 267 13 267 0 l 267 843 q 254 854 267 854 l 40 854 q 28 865 28 854 l 28 882 q 40 893 28 893 l 535 893 q 547 882 547 893 l 547 865 q 535 854 547 854 l 321 854 q 308 843 308 854 l 308 13 q 297 0 308 0 z "},"ť":{"ha":524,"x_min":42,"x_max":510,"o":"m 510 881 l 510 771 q 474 571 510 750 q 465 563 472 563 q 458 571 458 563 l 458 881 q 469 893 458 893 l 499 893 q 510 881 510 893 m 146 669 l 54 669 q 42 681 42 669 l 42 697 q 54 708 42 708 l 146 708 q 158 719 158 708 l 158 828 q 169 840 158 840 l 189 840 q 200 828 200 840 l 200 719 q 213 708 200 708 l 392 708 q 404 697 404 708 l 404 681 q 392 669 404 669 l 213 669 q 200 658 200 669 l 200 186 q 241 78 200 117 q 353 39 282 39 l 406 39 q 418 28 418 39 l 418 11 q 406 0 418 0 l 353 0 q 213 50 267 0 q 158 185 158 100 l 158 658 q 146 669 158 669 z "},"Ŧ":{"ha":694,"x_min":28,"x_max":547,"o":"m 297 0 l 278 0 q 267 13 267 0 l 267 450 q 254 461 267 461 l 110 461 q 97 472 97 461 l 97 489 q 110 500 97 500 l 254 500 q 267 511 267 500 l 267 843 q 254 854 267 854 l 40 854 q 28 865 28 854 l 28 882 q 40 893 28 893 l 535 893 q 547 882 547 893 l 547 865 q 535 854 547 854 l 321 854 q 308 843 308 854 l 308 511 q 321 500 308 500 l 479 500 q 492 489 492 500 l 492 472 q 479 461 492 461 l 321 461 q 308 450 308 461 l 308 13 q 297 0 308 0 z "},"ŧ":{"ha":481,"x_min":42,"x_max":418,"o":"m 406 0 l 353 0 q 213 50 267 0 q 158 185 158 100 l 158 381 q 146 392 158 392 l 54 392 q 42 403 42 392 l 42 419 q 54 431 42 431 l 146 431 q 158 442 158 431 l 158 658 q 146 669 158 669 l 54 669 q 42 681 42 669 l 42 697 q 54 708 42 708 l 146 708 q 158 719 158 708 l 158 828 q 169 840 158 840 l 189 840 q 200 828 200 840 l 200 719 q 213 708 200 708 l 392 708 q 404 697 404 708 l 404 681 q 392 669 404 669 l 213 669 q 200 658 200 669 l 200 442 q 213 431 200 431 l 392 431 q 404 419 404 431 l 404 403 q 392 392 404 392 l 213 392 q 200 381 200 392 l 200 186 q 241 78 200 117 q 353 39 282 39 l 406 39 q 418 28 418 39 l 418 11 q 406 0 418 0 z "},"Ũ":{"ha":764,"x_min":118,"x_max":646,"o":"m 396 1051 q 390 1030 396 1051 q 366 992 383 1008 q 310 975 349 975 q 255 999 271 975 q 239 1083 239 1024 l 239 1138 q 250 1150 239 1150 l 260 1150 q 271 1138 271 1150 l 271 1085 q 280 1022 271 1039 q 313 1004 289 1004 q 345 1018 336 1004 q 369 1078 354 1032 q 399 1140 383 1125 q 454 1154 415 1154 q 509 1130 493 1154 q 525 1046 525 1106 l 525 988 q 514 975 525 975 l 504 975 q 493 988 493 975 l 493 1044 q 484 1108 493 1090 q 449 1125 475 1125 q 411 1100 422 1125 q 396 1051 408 1093 m 615 893 l 635 893 q 646 882 646 893 l 646 189 q 595 51 646 103 q 460 0 544 0 l 304 0 q 169 51 219 0 q 118 189 118 103 l 118 881 q 129 893 118 893 l 149 893 q 160 881 160 893 l 160 190 q 197 79 160 119 q 304 39 235 39 l 460 39 q 567 79 529 39 q 604 190 604 119 l 604 881 q 615 893 604 893 z "},"ũ":{"ha":699,"x_min":104,"x_max":588,"o":"m 203 910 l 203 964 q 214 976 203 976 l 224 976 q 235 964 235 976 l 235 911 q 244 848 235 865 q 276 831 253 831 q 309 844 300 831 q 333 905 318 858 q 363 966 347 951 q 418 981 379 981 q 473 956 457 981 q 489 872 489 932 l 489 814 q 478 801 489 801 l 468 801 q 457 814 457 801 l 457 871 q 448 934 457 917 q 413 951 439 951 q 375 926 386 951 q 360 877 372 919 q 330 818 347 835 q 274 801 313 801 q 219 826 235 801 q 203 910 203 850 m 393 0 l 290 0 q 155 51 206 0 q 104 189 104 103 l 104 696 q 115 708 104 708 l 135 708 q 146 696 146 708 l 146 190 q 183 79 146 119 q 290 39 221 39 l 390 39 q 503 76 460 39 q 546 183 546 114 l 546 696 q 557 708 546 708 l 576 708 q 588 696 588 708 l 588 13 q 576 0 588 0 l 557 0 q 546 13 546 0 l 546 72 l 540 72 q 393 0 501 0 z "},"Ū":{"ha":764,"x_min":118,"x_max":646,"o":"m 524 1051 l 240 1051 q 228 1063 228 1051 l 228 1079 q 240 1090 228 1090 l 524 1090 q 536 1079 536 1090 l 536 1063 q 524 1051 536 1051 m 615 893 l 635 893 q 646 882 646 893 l 646 189 q 595 51 646 103 q 460 0 544 0 l 304 0 q 169 51 219 0 q 118 189 118 103 l 118 881 q 129 893 118 893 l 149 893 q 160 881 160 893 l 160 190 q 197 79 160 119 q 304 39 235 39 l 460 39 q 567 79 529 39 q 604 190 604 119 l 604 881 q 615 893 604 893 z "},"ū":{"ha":699,"x_min":104,"x_max":588,"o":"m 488 871 l 204 871 q 192 882 192 871 l 192 894 q 204 906 192 906 l 488 906 q 500 894 500 906 l 500 882 q 488 871 500 871 m 393 0 l 290 0 q 155 51 206 0 q 104 189 104 103 l 104 696 q 115 708 104 708 l 135 708 q 146 696 146 708 l 146 190 q 183 79 146 119 q 290 39 221 39 l 390 39 q 503 76 460 39 q 546 183 546 114 l 546 696 q 557 708 546 708 l 576 708 q 588 696 588 708 l 588 13 q 576 0 588 0 l 557 0 q 546 13 546 0 l 546 72 l 540 72 q 393 0 501 0 z "},"Ŭ":{"ha":764,"x_min":118,"x_max":646,"o":"m 250 1149 q 261 1161 250 1161 l 275 1161 q 286 1149 286 1161 l 286 1132 q 307 1040 286 1067 q 379 1013 328 1013 l 385 1013 q 460 1040 439 1013 q 482 1132 482 1067 l 482 1147 q 493 1160 482 1160 l 504 1160 q 515 1147 515 1160 l 515 1131 q 483 1017 515 1053 q 385 982 451 982 l 379 982 q 281 1017 313 982 q 250 1131 250 1053 l 250 1149 m 615 893 l 635 893 q 646 882 646 893 l 646 189 q 595 51 646 103 q 460 0 544 0 l 304 0 q 169 51 219 0 q 118 189 118 103 l 118 881 q 129 893 118 893 l 149 893 q 160 881 160 893 l 160 190 q 197 79 160 119 q 304 39 235 39 l 460 39 q 567 79 529 39 q 604 190 604 119 l 604 881 q 615 893 604 893 z "},"ŭ":{"ha":699,"x_min":104,"x_max":588,"o":"m 214 950 q 225 963 214 963 l 239 963 q 250 950 250 963 l 250 933 q 271 841 250 868 q 343 814 292 814 l 349 814 q 424 841 403 814 q 446 933 446 868 l 446 949 q 457 961 446 961 l 468 961 q 479 949 479 961 l 479 932 q 447 819 479 854 q 349 783 415 783 l 343 783 q 245 819 276 783 q 214 932 214 854 l 214 950 m 393 0 l 290 0 q 155 51 206 0 q 104 189 104 103 l 104 696 q 115 708 104 708 l 135 708 q 146 696 146 708 l 146 190 q 183 79 146 119 q 290 39 221 39 l 390 39 q 503 76 460 39 q 546 183 546 114 l 546 696 q 557 708 546 708 l 576 708 q 588 696 588 708 l 588 13 q 576 0 588 0 l 557 0 q 546 13 546 0 l 546 72 l 540 72 q 393 0 501 0 z "},"Ů":{"ha":764,"x_min":118,"x_max":646,"o":"m 388 961 l 374 961 q 295 990 322 961 q 268 1071 268 1018 l 268 1101 q 295 1182 268 1154 q 374 1210 322 1210 l 388 1210 q 467 1181 439 1210 q 496 1101 496 1153 l 496 1071 q 467 990 496 1019 q 388 961 439 961 m 374 993 l 388 993 q 461 1072 461 993 l 461 1100 q 388 1178 461 1178 l 374 1178 q 301 1100 301 1178 l 301 1072 q 374 993 301 993 m 615 893 l 635 893 q 646 882 646 893 l 646 189 q 595 51 646 103 q 460 0 544 0 l 304 0 q 169 51 219 0 q 118 189 118 103 l 118 881 q 129 893 118 893 l 149 893 q 160 881 160 893 l 160 190 q 197 79 160 119 q 304 39 235 39 l 460 39 q 567 79 529 39 q 604 190 604 119 l 604 881 q 615 893 604 893 z "},"ů":{"ha":699,"x_min":104,"x_max":588,"o":"m 393 0 l 290 0 q 155 51 206 0 q 104 189 104 103 l 104 696 q 115 708 104 708 l 135 708 q 146 696 146 708 l 146 190 q 183 79 146 119 q 290 39 221 39 l 390 39 q 503 76 460 39 q 546 183 546 114 l 546 696 q 557 708 546 708 l 576 708 q 588 696 588 708 l 588 13 q 576 0 588 0 l 557 0 q 546 13 546 0 l 546 72 l 540 72 q 393 0 501 0 m 239 921 l 239 865 q 255 814 239 828 q 308 800 271 800 l 328 800 q 383 814 367 800 q 399 865 399 828 l 399 921 q 383 971 399 957 q 328 985 367 985 l 308 985 q 255 971 271 985 q 239 921 239 957 m 206 864 l 206 922 q 231 995 206 974 q 308 1017 256 1017 l 328 1017 q 433 922 433 1017 l 433 864 q 328 768 433 768 l 308 768 q 231 790 256 768 q 206 864 206 813 z "},"Ű":{"ha":764,"x_min":118,"x_max":646,"o":"m 392 1161 l 422 1161 q 430 1158 428 1161 q 428 1149 432 1154 l 314 993 q 296 982 306 982 l 283 982 q 279 994 272 982 l 371 1149 q 392 1161 378 1161 m 553 1161 l 583 1161 q 591 1158 589 1161 q 589 1149 593 1154 l 475 993 q 457 982 467 982 l 444 982 q 440 994 433 982 l 532 1149 q 553 1161 539 1161 m 615 893 l 635 893 q 646 882 646 893 l 646 189 q 595 51 646 103 q 460 0 544 0 l 304 0 q 169 51 219 0 q 118 189 118 103 l 118 881 q 129 893 118 893 l 149 893 q 160 881 160 893 l 160 190 q 197 79 160 119 q 304 39 235 39 l 460 39 q 567 79 529 39 q 604 190 604 119 l 604 881 q 615 893 604 893 z "},"ű":{"ha":699,"x_min":104,"x_max":588,"o":"m 358 976 l 389 976 q 397 973 394 976 q 394 964 399 969 l 281 808 q 263 797 272 797 l 250 797 q 246 810 239 797 l 338 964 q 358 976 344 976 m 519 976 l 550 976 q 558 973 556 976 q 556 964 560 969 l 442 808 q 424 797 433 797 l 411 797 q 407 810 400 797 l 499 964 q 519 976 506 976 m 393 0 l 290 0 q 155 51 206 0 q 104 189 104 103 l 104 696 q 115 708 104 708 l 135 708 q 146 696 146 708 l 146 190 q 183 79 146 119 q 290 39 221 39 l 390 39 q 503 76 460 39 q 546 183 546 114 l 546 696 q 557 708 546 708 l 576 708 q 588 696 588 708 l 588 13 q 576 0 588 0 l 557 0 q 546 13 546 0 l 546 72 l 540 72 q 393 0 501 0 z "},"Ų":{"ha":764,"x_min":118,"x_max":646,"o":"m 615 893 l 635 893 q 646 882 646 893 l 646 189 q 595 51 646 103 q 460 0 544 0 l 431 0 l 351 -103 l 404 -103 q 444 -117 444 -103 q 351 -140 444 -140 q 310 -125 319 -140 q 318 -92 301 -110 l 390 0 l 304 0 q 169 51 219 0 q 118 189 118 103 l 118 881 q 129 893 118 893 l 149 893 q 160 881 160 893 l 160 190 q 197 79 160 119 q 304 39 235 39 l 460 39 q 567 79 529 39 q 604 190 604 119 l 604 881 q 615 893 604 893 z "},"ų":{"ha":699,"x_min":104,"x_max":588,"o":"m 557 708 l 576 708 q 588 696 588 708 l 588 13 q 576 0 588 0 l 567 0 l 488 -103 l 540 -103 q 581 -117 581 -103 q 547 -143 581 -133 q 485 -153 514 -153 q 447 -131 456 -153 q 454 -92 438 -110 l 546 24 l 546 72 l 540 72 q 393 0 501 0 l 290 0 q 155 51 206 0 q 104 189 104 103 l 104 696 q 115 708 104 708 l 135 708 q 146 696 146 708 l 146 190 q 183 79 146 119 q 290 39 221 39 l 390 39 q 503 76 460 39 q 546 183 546 114 l 546 696 q 557 708 546 708 z "},"Ŵ":{"ha":1099,"x_min":50,"x_max":1047,"o":"m 665 982 l 646 982 q 631 989 633 982 l 549 1135 l 467 989 q 451 982 464 982 l 432 982 q 426 997 417 982 l 515 1149 q 542 1161 524 1161 l 556 1161 q 582 1149 574 1161 l 671 997 q 665 982 681 982 m 304 0 l 267 0 q 251 13 256 0 l 50 881 q 61 893 47 893 l 81 893 q 94 881 90 893 l 282 53 l 288 53 l 519 881 q 535 893 524 893 l 561 893 q 576 881 572 893 l 810 53 l 815 53 l 1003 881 q 1018 893 1006 893 l 1039 893 q 1047 881 1051 893 l 846 13 q 832 0 843 0 l 794 0 q 779 13 783 0 l 551 832 l 546 832 l 318 13 q 304 0 314 0 z "},"ŵ":{"ha":943,"x_min":29,"x_max":914,"o":"m 588 797 l 568 797 q 553 804 556 797 l 471 950 l 389 804 q 374 797 386 797 l 354 797 q 349 813 339 797 l 438 964 q 464 976 446 976 l 478 976 q 504 964 496 976 l 593 813 q 588 797 603 797 m 281 0 l 253 0 q 238 13 242 0 l 29 696 q 38 708 25 708 l 58 708 q 72 696 68 708 l 264 57 l 269 57 l 447 696 q 463 708 450 708 l 482 708 q 497 696 494 708 l 672 57 l 678 57 l 869 696 q 883 708 874 708 l 906 708 q 914 696 918 708 l 706 13 q 690 0 701 0 l 661 0 q 646 13 650 0 l 474 631 l 468 631 l 296 13 q 281 0 292 0 z "},"Ŷ":{"ha":675,"x_min":43,"x_max":632,"o":"m 454 982 l 435 982 q 419 989 422 982 l 338 1135 l 256 989 q 240 982 253 982 l 221 982 q 215 997 206 982 l 304 1149 q 331 1161 313 1161 l 344 1161 q 371 1149 363 1161 l 460 997 q 454 982 469 982 m 347 0 l 328 0 q 317 13 317 0 l 317 340 l 43 881 q 50 893 36 893 l 75 893 q 90 881 85 893 l 335 394 l 340 394 l 585 881 q 600 893 590 893 l 625 893 q 632 881 639 893 l 358 340 l 358 13 q 347 0 358 0 z "},"ŷ":{"ha":633,"x_min":43,"x_max":590,"o":"m 444 797 l 425 797 q 410 804 414 797 l 328 950 l 246 804 q 231 797 242 797 l 211 797 q 206 813 196 797 l 294 964 q 321 976 303 976 l 335 976 q 361 964 353 976 l 450 813 q 444 797 460 797 m 82 -204 q 69 -193 69 -204 l 69 -176 q 82 -165 69 -165 l 122 -165 q 201 -145 178 -165 q 235 -116 224 -125 q 259 -80 246 -107 q 276 -44 272 -53 q 308 38 301 11 l 294 38 q 279 50 283 38 l 43 696 q 51 708 39 708 l 74 708 q 88 696 83 708 l 314 78 l 319 78 l 546 696 q 560 708 550 708 l 582 708 q 590 696 594 708 l 354 50 q 289 -110 311 -74 q 122 -204 229 -203 l 82 -204 z "},"Ÿ":{"ha":675,"x_min":43,"x_max":632,"o":"m 208 994 l 208 1149 q 219 1161 208 1161 l 239 1161 q 250 1149 250 1161 l 250 994 q 239 982 250 982 l 219 982 q 208 994 208 982 m 425 994 l 425 1149 q 436 1161 425 1161 l 456 1161 q 467 1149 467 1161 l 467 994 q 456 982 467 982 l 436 982 q 425 994 425 982 m 347 0 l 328 0 q 317 13 317 0 l 317 340 l 43 881 q 50 893 36 893 l 75 893 q 90 881 85 893 l 335 394 l 340 394 l 585 881 q 600 893 590 893 l 625 893 q 632 881 639 893 l 358 340 l 358 13 q 347 0 358 0 z "},"Ź":{"ha":654,"x_min":56,"x_max":599,"o":"m 446 1161 l 488 1161 q 495 1158 493 1161 q 493 1149 497 1154 l 365 993 q 346 982 357 982 l 335 982 q 331 994 324 982 l 425 1149 q 446 1161 431 1161 m 56 11 l 56 35 q 58 47 56 43 l 536 849 l 536 854 l 82 854 q 69 865 69 854 l 69 882 q 82 893 69 893 l 572 893 q 585 882 585 893 l 585 856 q 582 844 585 849 l 104 44 l 104 39 l 586 39 q 599 28 599 39 l 599 11 q 586 0 599 0 l 68 0 q 56 11 56 0 z "},"ź":{"ha":546,"x_min":49,"x_max":497,"o":"m 401 976 l 443 976 q 451 973 449 976 q 449 964 453 969 l 321 808 q 301 797 313 797 l 290 797 q 286 810 279 797 l 381 964 q 401 976 386 976 m 49 11 l 49 24 q 51 36 49 32 l 433 664 l 433 669 l 69 669 q 57 681 57 669 l 57 697 q 69 708 57 708 l 476 708 q 489 697 489 708 l 489 681 q 486 669 489 674 l 106 44 l 106 39 l 485 39 q 497 28 497 39 l 497 11 q 485 0 497 0 l 61 0 q 49 11 49 0 z "},"Ż":{"ha":654,"x_min":56,"x_max":599,"o":"m 333 1003 l 333 1140 q 344 1153 333 1153 l 364 1153 q 375 1140 375 1153 l 375 1003 q 364 990 375 990 l 344 990 q 333 1003 333 990 m 56 11 l 56 35 q 58 47 56 43 l 536 849 l 536 854 l 82 854 q 69 865 69 854 l 69 882 q 82 893 69 893 l 572 893 q 585 882 585 893 l 585 856 q 582 844 585 849 l 104 44 l 104 39 l 586 39 q 599 28 599 39 l 599 11 q 586 0 599 0 l 68 0 q 56 11 56 0 z "},"ż":{"ha":546,"x_min":49,"x_max":497,"o":"m 278 818 l 278 956 q 289 968 278 968 l 308 968 q 319 956 319 968 l 319 818 q 308 806 319 806 l 289 806 q 278 818 278 806 m 49 11 l 49 24 q 51 36 49 32 l 433 664 l 433 669 l 69 669 q 57 681 57 669 l 57 697 q 69 708 57 708 l 476 708 q 489 697 489 708 l 489 681 q 486 669 489 674 l 106 44 l 106 39 l 485 39 q 497 28 497 39 l 497 11 q 485 0 497 0 l 61 0 q 49 11 49 0 z "},"Ž":{"ha":654,"x_min":56,"x_max":599,"o":"m 342 982 q 315 994 324 982 l 226 1146 q 232 1161 217 1161 l 251 1161 q 267 1154 264 1161 l 349 1008 l 431 1154 q 446 1161 433 1161 l 465 1161 q 471 1146 481 1161 l 382 994 q 356 982 374 982 l 342 982 m 56 11 l 56 35 q 58 47 56 43 l 536 849 l 536 854 l 82 854 q 69 865 69 854 l 69 882 q 82 893 69 893 l 572 893 q 585 882 585 893 l 585 856 q 582 844 585 849 l 104 44 l 104 39 l 586 39 q 599 28 599 39 l 599 11 q 586 0 599 0 l 68 0 q 56 11 56 0 z "},"ž":{"ha":546,"x_min":49,"x_max":497,"o":"m 296 797 q 269 810 278 797 l 181 961 q 186 976 171 976 l 206 976 q 221 969 217 976 l 303 824 l 385 969 q 400 976 389 976 l 419 976 q 425 961 435 976 l 336 810 q 310 797 328 797 l 296 797 m 49 11 l 49 24 q 51 36 49 32 l 433 664 l 433 669 l 69 669 q 57 681 57 669 l 57 697 q 69 708 57 708 l 476 708 q 489 697 489 708 l 489 681 q 486 669 489 674 l 106 44 l 106 39 l 485 39 q 497 28 497 39 l 497 11 q 485 0 497 0 l 61 0 q 49 11 49 0 z "},"ƒ":{"ha":675,"x_min":28,"x_max":647,"o":"m 69 -185 l 42 -185 q 28 -174 28 -185 l 28 -158 q 42 -146 28 -146 l 78 -146 q 231 3 199 -146 l 336 500 q 326 514 339 514 l 213 514 q 199 525 199 514 l 199 539 q 211 550 199 550 l 335 550 q 350 561 347 550 l 399 790 q 601 976 439 976 l 633 976 q 647 965 647 976 l 647 949 q 633 938 647 938 l 593 938 q 440 789 472 938 l 392 561 q 401 550 389 550 l 543 550 q 557 539 557 550 l 557 525 q 546 514 557 514 l 393 514 q 379 503 382 514 l 272 1 q 203 -136 254 -87 q 69 -185 151 -185 z "},"Ǽ":{"ha":1071,"x_min":1,"x_max":974,"o":"m 674 1161 l 715 1161 q 723 1158 721 1161 q 721 1149 725 1154 l 593 993 q 574 982 585 982 l 563 982 q 558 994 551 982 l 653 1149 q 674 1161 658 1161 m 33 0 l 7 0 q 1 13 -6 0 l 494 881 q 514 893 501 893 l 961 893 q 974 882 974 893 l 974 865 q 961 854 974 854 l 582 854 q 569 843 569 854 l 569 486 q 582 475 569 475 l 925 475 q 938 464 938 475 l 938 447 q 925 436 938 436 l 582 436 q 569 425 569 436 l 569 50 q 582 39 569 39 l 961 39 q 974 28 974 39 l 974 11 q 961 0 974 0 l 539 0 q 528 13 528 0 l 528 254 l 188 254 l 50 13 q 33 0 43 0 m 528 296 l 528 843 l 522 843 l 211 296 l 528 296 z "},"ǽ":{"ha":1119,"x_min":97,"x_max":1022,"o":"m 674 976 l 715 976 q 723 973 721 976 q 721 964 725 969 l 593 808 q 574 797 585 797 l 563 797 q 558 810 551 797 l 653 964 q 674 976 658 976 m 581 281 l 581 190 q 618 79 581 119 q 725 39 656 39 l 1010 39 q 1022 28 1022 39 l 1022 11 q 1010 0 1022 0 l 725 0 q 558 96 599 0 q 386 0 515 0 l 283 0 q 148 51 199 0 q 97 189 97 103 l 97 228 q 148 365 97 314 q 283 417 199 417 l 526 417 q 539 428 539 417 l 539 518 q 501 629 539 589 q 394 669 464 669 l 183 669 q 171 681 171 669 l 171 697 q 183 708 171 708 l 394 708 q 561 613 519 708 q 733 708 606 708 l 836 708 q 972 657 921 708 q 1022 519 1022 606 l 1022 306 q 1010 292 1022 292 l 593 292 q 581 281 581 292 m 981 342 l 981 518 q 943 629 981 589 q 836 669 906 669 l 736 669 q 624 632 667 669 q 581 525 581 594 l 581 342 q 593 331 581 331 l 968 331 q 981 342 981 331 m 539 183 l 539 367 q 526 378 539 378 l 283 378 q 176 338 214 378 q 139 226 139 297 l 139 190 q 176 79 139 119 q 283 39 214 39 l 383 39 q 496 76 453 39 q 539 183 539 114 z "},"Ǿ":{"ha":767,"x_min":68,"x_max":699,"o":"m 657 704 l 657 189 q 606 51 657 103 q 471 0 556 0 l 297 0 q 142 78 189 0 l 99 18 q 81 14 90 8 l 68 22 q 68 42 60 29 l 122 117 q 111 189 111 153 l 111 704 q 162 842 111 790 q 297 893 213 893 l 471 893 q 626 817 576 893 l 668 874 q 686 879 676 885 l 699 871 q 699 851 708 864 l 646 778 q 657 704 657 742 m 153 703 l 153 190 q 154 161 153 171 l 600 781 q 471 854 568 854 l 297 854 q 190 814 228 854 q 153 703 153 774 m 615 190 l 615 703 q 614 733 615 724 l 168 114 q 297 39 200 39 l 471 39 q 578 79 540 39 q 615 190 615 119 m 376 982 l 365 982 q 361 994 354 982 l 456 1149 q 476 1161 461 1161 l 518 1161 q 526 1158 524 1161 q 524 1149 528 1154 l 396 993 q 376 982 388 982 z "},"ǿ":{"ha":724,"x_min":46,"x_max":678,"o":"m 607 519 l 607 189 q 556 51 607 103 q 421 0 506 0 l 303 0 q 135 99 181 0 l 76 39 q 60 39 67 29 l 46 51 q 46 68 38 60 l 121 143 q 117 189 117 164 l 117 519 q 167 657 117 606 q 303 708 218 708 l 421 708 q 589 611 543 708 l 647 669 q 664 671 656 678 l 678 657 q 676 640 686 650 l 603 567 q 607 519 607 544 m 158 518 l 158 181 l 557 579 q 421 669 528 669 l 303 669 q 196 629 233 669 q 158 518 158 589 m 565 190 l 565 529 l 167 129 q 303 39 196 39 l 421 39 q 528 79 490 39 q 565 190 565 119 m 374 797 l 363 797 q 358 810 351 797 l 453 964 q 474 976 458 976 l 515 976 q 523 973 521 976 q 521 964 525 969 l 393 808 q 374 797 385 797 z "},"Ș":{"ha":789,"x_min":125,"x_max":664,"o":"m 438 -57 l 438 -122 q 401 -322 438 -143 q 393 -331 400 -331 q 386 -322 386 -331 l 386 -57 q 397 -44 386 -44 l 426 -44 q 438 -57 438 -44 m 125 189 l 125 244 q 136 257 125 257 l 156 257 q 167 244 167 257 l 167 190 q 204 79 167 119 q 311 39 242 39 l 478 39 q 585 79 547 39 q 622 190 622 119 l 622 260 q 571 363 622 325 q 447 419 519 401 q 301 453 374 436 q 176 511 228 471 q 125 621 125 551 l 125 704 q 176 842 125 790 q 311 893 226 893 l 478 893 q 613 842 563 893 q 664 704 664 790 l 664 663 q 653 650 664 650 l 633 650 q 622 663 622 650 l 622 703 q 585 814 622 774 q 478 854 547 854 l 311 854 q 204 814 242 854 q 167 703 167 774 l 167 622 q 342 481 167 519 q 488 447 415 465 q 613 383 561 428 q 664 263 664 338 l 664 189 q 613 51 664 103 q 478 0 563 0 l 311 0 q 176 51 226 0 q 125 189 125 103 z "},"ș":{"ha":588,"x_min":75,"x_max":513,"o":"m 340 -57 l 340 -122 q 304 -322 340 -143 q 296 -331 303 -331 q 289 -322 289 -331 l 289 -57 q 300 -44 289 -44 l 329 -44 q 340 -57 340 -44 m 331 0 l 94 0 q 82 11 82 0 l 82 28 q 94 39 82 39 l 331 39 q 471 150 471 39 l 471 192 q 453 275 471 243 q 388 324 435 307 l 204 388 q 103 449 132 413 q 75 553 75 486 q 244 708 75 708 l 468 708 q 481 697 481 708 l 481 681 q 468 669 481 669 l 244 669 q 149 640 181 669 q 118 574 118 611 l 118 536 q 141 467 118 492 q 213 426 164 443 l 394 361 q 490 293 468 340 q 513 161 513 246 q 468 38 513 76 q 331 0 424 0 z "},"ˆ":{"ha":446,"x_min":100,"x_max":344,"o":"m 339 797 l 319 797 q 304 804 308 797 l 222 950 l 140 804 q 125 797 136 797 l 106 797 q 100 813 90 797 l 189 964 q 215 976 197 976 l 229 976 q 256 964 247 976 l 344 813 q 339 797 354 797 z "},"ˇ":{"ha":446,"x_min":100,"x_max":344,"o":"m 215 797 q 189 810 197 797 l 100 961 q 106 976 90 976 l 125 976 q 140 969 136 976 l 222 824 l 304 969 q 319 976 308 976 l 339 976 q 344 961 354 976 l 256 810 q 229 797 247 797 l 215 797 z "},"ˉ":{"ha":503,"x_min":97,"x_max":406,"o":"m 393 871 l 110 871 q 97 882 97 871 l 97 894 q 110 906 97 906 l 393 906 q 406 894 406 906 l 406 882 q 393 871 406 871 z "},"˘":{"ha":460,"x_min":97,"x_max":363,"o":"m 97 964 q 108 976 97 976 l 122 976 q 133 964 133 976 l 133 947 q 154 855 133 882 q 226 828 175 828 l 232 828 q 308 855 286 828 q 329 947 329 882 l 329 963 q 340 975 329 975 l 351 975 q 363 963 363 975 l 363 946 q 331 833 363 868 q 232 797 299 797 l 226 797 q 128 833 160 797 q 97 946 97 868 l 97 964 z "},"˙":{"ha":236,"x_min":97,"x_max":139,"o":"m 97 818 l 97 956 q 108 968 97 968 l 128 968 q 139 956 139 968 l 139 818 q 128 806 139 806 l 108 806 q 97 818 97 806 z "},"˚":{"ha":422,"x_min":71,"x_max":299,"o":"m 104 921 l 104 865 q 120 814 104 828 q 174 800 136 800 l 193 800 q 248 814 232 800 q 264 865 264 828 l 264 921 q 248 971 264 957 q 193 985 232 985 l 174 985 q 120 971 136 985 q 104 921 104 957 m 71 864 l 71 922 q 96 995 71 974 q 174 1017 121 1017 l 193 1017 q 299 922 299 1017 l 299 864 q 193 768 299 768 l 174 768 q 96 790 121 768 q 71 864 71 813 z "},"˛":{"ha":338,"x_min":99,"x_max":240,"o":"m 193 -103 q 233 -117 233 -103 q 200 -143 233 -133 q 138 -153 167 -153 q 99 -131 108 -153 q 107 -92 90 -110 l 201 28 l 240 28 l 140 -103 l 193 -103 z "},"˜":{"ha":519,"x_min":97,"x_max":383,"o":"m 97 910 l 97 964 q 108 976 97 976 l 118 976 q 129 964 129 976 l 129 911 q 138 848 129 865 q 171 831 147 831 q 203 844 194 831 q 227 905 213 858 q 258 966 242 951 q 313 981 274 981 q 367 956 351 981 q 383 872 383 932 l 383 814 q 372 801 383 801 l 363 801 q 351 814 351 801 l 351 871 q 342 934 351 917 q 307 951 333 951 q 269 926 281 951 q 254 877 267 919 q 224 818 242 835 q 168 801 207 801 q 113 826 129 801 q 97 910 97 850 z "},"˝":{"ha":510,"x_min":100,"x_max":413,"o":"m 213 976 l 243 976 q 251 973 249 976 q 249 964 253 969 l 135 808 q 117 797 126 797 l 104 797 q 100 810 93 797 l 192 964 q 213 976 199 976 m 374 976 l 404 976 q 412 973 410 976 q 410 964 414 969 l 296 808 q 278 797 288 797 l 265 797 q 261 810 254 797 l 353 964 q 374 976 360 976 z "},"Μ":{"ha":719,"x_min":118,"x_max":601,"o":"m 160 -172 q 149 -185 160 -185 l 129 -185 q 118 -172 118 -185 l 118 696 q 129 708 118 708 l 149 708 q 160 696 160 708 l 160 190 q 197 79 160 119 q 304 39 235 39 l 404 39 q 517 76 474 39 q 560 183 560 114 l 560 696 q 571 708 560 708 l 590 708 q 601 696 601 708 l 601 13 q 590 0 601 0 l 571 0 q 560 13 560 0 l 560 72 l 554 72 q 407 0 515 0 q 360 -1 397 0 q 312 -1 324 -1 q 272 3 300 0 q 228 13 243 6 q 160 61 182 35 l 160 -172 z "},"Π":{"ha":819,"x_min":56,"x_max":764,"o":"m 239 0 l 219 0 q 208 13 208 0 l 208 840 q 196 851 208 851 l 68 851 q 56 863 56 851 l 56 882 q 68 893 56 893 l 751 893 q 764 882 764 893 l 764 863 q 751 851 764 851 l 624 851 q 611 840 611 851 l 611 13 q 600 0 611 0 l 581 0 q 569 13 569 0 l 569 840 q 557 851 569 851 l 263 851 q 250 840 250 851 l 250 13 q 239 0 250 0 z "},"Σ":{"ha":664,"x_min":83,"x_max":581,"o":"m 83 868 l 83 882 q 96 893 83 893 l 568 893 q 581 882 581 893 l 581 864 q 568 853 581 853 l 135 853 l 135 847 l 371 469 q 371 425 385 447 l 133 44 l 133 39 l 568 39 q 581 25 581 39 l 581 8 q 568 0 581 0 l 96 0 q 83 11 83 0 l 83 24 q 86 38 83 32 l 335 446 l 335 451 l 86 854 q 83 868 83 860 z "},"ँ":{"ha":0,"x_min":-368,"x_max":50,"o":"m -133 1167 q -144 1154 -133 1154 l -172 1154 q -183 1167 -183 1154 l -183 1206 q -172 1218 -183 1218 l -144 1218 q -133 1206 -133 1218 l -133 1167 m -117 950 l -201 950 q -368 1118 -368 950 l -368 1126 q -357 1139 -368 1139 l -337 1139 q -326 1126 -326 1139 l -326 1118 q -299 1018 -326 1047 q -201 989 -271 989 l -117 989 q -19 1018 -47 989 q 8 1118 8 1047 l 8 1126 q 19 1139 8 1139 l 39 1139 q 50 1126 50 1139 l 50 1118 q -117 950 50 950 z "},"ं":{"ha":0,"x_min":-189,"x_max":-139,"o":"m -139 1029 q -150 1017 -139 1017 l -178 1017 q -189 1029 -189 1017 l -189 1068 q -178 1081 -189 1081 l -150 1081 q -139 1068 -139 1081 l -139 1029 z "},"ः":{"ha":340,"x_min":146,"x_max":196,"o":"m 196 117 q 185 104 196 104 l 157 104 q 146 117 146 104 l 146 156 q 157 168 146 168 l 185 168 q 196 156 196 168 l 196 117 m 196 543 q 185 531 196 531 l 157 531 q 146 543 146 531 l 146 582 q 157 594 146 594 l 185 594 q 196 582 196 594 l 196 543 z "},"अ":{"ha":826,"x_min":50,"x_max":840,"o":"m 668 865 l 828 865 q 840 854 840 865 l 840 842 q 828 831 840 831 l 700 831 q 688 819 688 831 l 688 13 q 676 0 688 0 l 657 0 q 646 13 646 0 l 646 351 q 633 363 646 363 l 422 363 q 429 306 429 332 l 429 244 q 378 107 429 158 q 243 56 328 56 l 63 56 q 50 67 50 56 l 50 83 q 63 94 50 94 l 243 94 q 350 135 313 94 q 388 246 388 175 l 388 304 q 350 413 388 375 q 243 451 313 451 l 150 451 q 138 463 138 451 l 138 479 q 150 490 138 490 l 243 490 q 350 528 313 490 q 388 638 388 567 l 388 679 q 350 790 388 750 q 243 831 313 831 l 113 831 q 100 842 100 831 l 100 854 q 113 865 100 865 l 243 865 q 378 816 328 865 q 429 681 429 767 l 429 636 q 332 475 429 510 l 332 469 q 408 401 382 450 l 633 401 q 646 413 646 401 l 646 840 q 668 865 646 865 z "},"आ":{"ha":1143,"x_min":47,"x_max":1157,"o":"m 665 865 l 1144 865 q 1157 854 1157 865 l 1157 842 q 1144 831 1157 831 l 1017 831 q 1004 819 1004 831 l 1004 13 q 993 0 1004 0 l 974 0 q 963 13 963 0 l 963 819 q 950 831 963 831 l 697 831 q 685 819 685 831 l 685 13 q 674 0 685 0 l 654 0 q 643 13 643 0 l 643 351 q 631 363 643 363 l 419 363 q 426 306 426 332 l 426 244 q 376 107 426 158 q 240 56 325 56 l 60 56 q 47 67 47 56 l 47 83 q 60 94 47 94 l 240 94 q 347 135 310 94 q 385 246 385 175 l 385 304 q 347 413 385 375 q 240 451 310 451 l 147 451 q 135 463 135 451 l 135 479 q 147 490 135 490 l 240 490 q 347 528 310 490 q 385 638 385 567 l 385 679 q 347 790 385 750 q 240 831 310 831 l 110 831 q 97 842 97 831 l 97 854 q 110 865 97 865 l 240 865 q 376 816 325 865 q 426 681 426 767 l 426 636 q 329 475 426 510 l 329 469 q 406 401 379 450 l 631 401 q 643 413 643 401 l 643 840 q 665 865 643 865 z "},"इ":{"ha":668,"x_min":-14,"x_max":682,"o":"m 401 342 l 281 342 q 108 488 108 342 l 108 511 q 281 657 108 657 l 478 657 q 490 668 490 657 l 490 819 q 478 831 490 831 l -1 831 q -14 842 -14 831 l -14 854 q -1 865 -14 865 l 669 865 q 682 854 682 865 l 682 842 q 669 831 682 831 l 544 831 q 532 819 532 831 l 532 643 q 510 618 532 618 l 281 618 q 180 594 210 618 q 150 510 150 569 l 150 489 q 180 405 150 429 q 281 381 210 381 l 401 381 q 574 236 574 381 l 574 172 q 401 25 574 25 l 275 25 q 150 75 182 25 l 144 75 l 144 -40 q 133 -53 144 -53 l 117 -53 q 106 -40 106 -53 l 106 224 q 117 236 106 236 l 133 236 q 144 224 144 236 l 144 188 q 275 64 144 64 l 401 64 q 502 89 472 64 q 532 174 532 114 l 532 235 q 502 318 532 294 q 401 342 472 342 z "},"ई":{"ha":668,"x_min":-14,"x_max":682,"o":"m 407 1026 l 407 938 q 424 879 407 893 q 493 865 440 865 l 669 865 q 682 854 682 865 l 682 842 q 669 831 682 831 l 544 831 q 532 819 532 831 l 532 643 q 510 618 532 618 l 281 618 q 180 594 210 618 q 150 510 150 569 l 150 489 q 180 405 150 429 q 281 381 210 381 l 401 381 q 574 236 574 381 l 574 172 q 401 25 574 25 l 275 25 q 150 75 182 25 l 144 75 l 144 -40 q 133 -53 144 -53 l 117 -53 q 106 -40 106 -53 l 106 224 q 117 236 106 236 l 133 236 q 144 224 144 236 l 144 188 q 275 64 144 64 l 401 64 q 502 89 472 64 q 532 174 532 114 l 532 235 q 502 318 532 294 q 401 342 472 342 l 281 342 q 108 488 108 342 l 108 511 q 281 657 108 657 l 478 657 q 490 668 490 657 l 490 819 q 478 831 490 831 l -1 831 q -14 842 -14 831 l -14 854 q -1 865 -14 865 l 393 865 l 393 871 q 365 946 365 888 l 365 1026 q 412 1163 365 1119 q 539 1207 458 1207 l 617 1207 q 629 1196 629 1207 l 629 1179 q 617 1168 629 1168 l 538 1168 q 407 1026 407 1168 z "},"उ":{"ha":658,"x_min":-14,"x_max":672,"o":"m 554 286 l 554 189 q 503 51 554 103 q 368 0 453 0 l 261 0 q 126 51 176 0 q 75 189 75 103 l 75 286 q 86 299 75 299 l 106 299 q 117 286 117 299 l 117 190 q 154 79 117 119 q 261 39 192 39 l 368 39 q 475 79 438 39 q 513 190 513 119 l 513 285 q 475 394 513 356 q 368 432 438 432 l 275 432 q 263 443 263 432 l 263 460 q 275 471 263 471 l 361 471 q 468 509 431 471 q 506 618 506 547 l 506 679 q 469 790 506 749 q 368 831 433 831 l -1 831 q -14 842 -14 831 l -14 854 q -1 865 -14 865 l 660 865 q 672 854 672 865 l 672 842 q 660 831 672 831 l 478 831 l 478 825 q 547 681 547 790 l 547 617 q 461 457 547 496 l 461 451 q 554 286 554 406 z "},"ऊ":{"ha":919,"x_min":-14,"x_max":933,"o":"m -1 865 l 921 865 q 933 854 933 865 l 933 842 q 921 831 933 831 l 478 831 l 478 825 q 547 681 547 790 l 547 617 q 461 457 547 496 l 461 451 l 464 450 l 683 450 q 819 401 768 450 q 869 265 869 351 l 869 201 q 819 66 869 115 q 683 17 768 17 l 663 17 q 650 28 650 17 l 650 44 q 663 56 650 56 l 683 56 q 790 94 753 56 q 828 203 828 132 l 828 264 q 790 373 828 335 q 683 411 753 411 l 514 411 q 554 286 554 363 l 554 189 q 503 51 554 103 q 368 0 453 0 l 261 0 q 126 51 176 0 q 75 189 75 103 l 75 286 q 86 299 75 299 l 106 299 q 117 286 117 299 l 117 190 q 154 79 117 119 q 261 39 192 39 l 368 39 q 475 79 438 39 q 513 190 513 119 l 513 285 q 475 394 513 356 q 368 432 438 432 l 275 432 q 263 443 263 432 l 263 460 q 275 471 263 471 l 361 471 q 468 509 431 471 q 506 618 506 547 l 506 679 q 469 790 506 749 q 368 831 433 831 l -1 831 q -14 842 -14 831 l -14 854 q -1 865 -14 865 z "},"ऋ":{"ha":1032,"x_min":-14,"x_max":1046,"o":"m -1 865 l 1033 865 q 1046 854 1046 865 l 1046 842 q 1033 831 1046 831 l 551 831 q 539 819 539 831 l 539 351 l 831 578 q 879 597 858 597 l 910 597 q 921 585 921 597 l 921 315 q 900 297 921 297 l 857 297 q 756 273 786 297 q 726 189 726 249 l 726 147 q 756 63 726 88 q 857 39 786 39 l 926 39 q 939 28 939 39 l 939 11 q 926 0 939 0 l 857 0 q 685 146 685 0 l 685 190 q 728 301 685 267 q 867 336 772 336 q 879 347 879 336 l 879 565 l 539 303 l 539 13 q 528 0 539 0 l 508 0 q 497 13 497 0 l 497 265 l 171 14 q 142 0 154 0 l 124 0 q 113 8 113 0 q 136 36 113 17 l 497 314 l 497 429 q 461 528 497 499 q 353 558 425 558 l 283 558 q 175 528 211 558 q 139 429 139 499 l 139 335 q 128 322 139 322 l 108 322 q 97 335 97 322 l 97 431 q 147 556 97 514 q 283 597 196 597 l 353 597 q 492 542 453 597 l 497 542 l 497 819 q 485 831 497 831 l -1 831 q -14 842 -14 831 l -14 854 q -1 865 -14 865 z "},"ऌ":{"ha":953,"x_min":-14,"x_max":967,"o":"m -1 865 l 954 865 q 967 854 967 865 l 967 842 q 954 831 967 831 l 826 831 q 814 819 814 831 l 814 28 q 801 17 814 17 l 739 17 q 645 -13 671 17 q 619 -113 619 -43 q 655 -212 619 -183 q 772 -242 690 -242 q 926 -176 854 -242 q 938 -171 933 -171 q 952 -180 943 -171 q 961 -194 961 -189 q 953 -207 961 -199 q 764 -281 883 -281 q 626 -243 675 -281 q 578 -115 578 -206 q 616 16 578 -24 q 739 56 654 56 l 772 56 l 772 429 q 736 542 772 508 q 628 576 700 576 q 519 544 556 576 q 483 431 483 511 l 483 297 q 472 285 483 285 l 453 285 q 442 297 442 285 l 442 431 q 406 542 442 508 q 297 576 369 576 q 189 542 225 576 q 153 429 153 508 l 153 243 q 189 130 153 164 q 297 96 225 96 l 379 96 q 392 85 392 96 l 392 68 q 379 57 392 57 l 297 57 q 160 103 210 57 q 111 242 111 149 l 111 431 q 160 569 111 524 q 297 615 210 615 q 460 518 429 615 l 465 518 q 628 615 496 615 q 767 551 732 615 l 772 551 l 772 819 q 760 831 772 831 l -1 831 q -14 842 -14 831 l -14 854 q -1 865 -14 865 z "},"ऍ":{"ha":725,"x_min":-14,"x_max":746,"o":"m -1 865 l 733 865 q 746 854 746 865 l 746 842 q 733 831 746 831 l 640 831 q 628 819 628 831 l 628 588 q 581 451 628 494 q 454 407 535 407 l 392 407 q 379 418 379 407 l 379 435 q 392 446 379 446 l 456 446 q 586 588 586 446 l 586 819 q 574 831 586 831 l 193 831 q 181 819 181 831 l 181 235 q 218 124 181 164 q 325 83 256 83 l 581 83 q 593 72 593 83 l 593 56 q 581 44 593 44 l 325 44 q 190 96 240 44 q 139 233 139 147 l 139 819 q 126 831 139 831 l -1 831 q -14 842 -14 831 l -14 854 q -1 865 -14 865 m 428 1017 l 343 1017 q 176 1185 176 1017 l 176 1193 q 188 1206 176 1206 l 207 1206 q 218 1193 218 1206 l 218 1185 q 246 1085 218 1114 q 343 1056 274 1056 l 428 1056 q 525 1085 497 1056 q 553 1185 553 1114 l 553 1193 q 564 1206 553 1206 l 583 1206 q 594 1193 594 1206 l 594 1185 q 428 1017 594 1017 z "},"ऎ":{"ha":725,"x_min":-14,"x_max":746,"o":"m 640 865 l 733 865 q 746 854 746 865 l 746 842 q 733 831 746 831 l 640 831 q 628 819 628 831 l 628 588 q 581 451 628 494 q 454 407 535 407 l 392 407 q 379 418 379 407 l 379 435 q 392 446 379 446 l 456 446 q 586 588 586 446 l 586 819 q 574 831 586 831 l 193 831 q 181 819 181 831 l 181 235 q 218 124 181 164 q 325 83 256 83 l 581 83 q 593 72 593 83 l 593 56 q 581 44 593 44 l 325 44 q 190 96 240 44 q 139 233 139 147 l 139 819 q 126 831 139 831 l -1 831 q -14 842 -14 831 l -14 854 q -1 865 -14 865 l 574 865 q 586 876 586 865 q 568 922 586 903 q 490 974 550 942 l 394 1024 q 315 1088 339 1053 q 292 1181 292 1122 l 292 1192 q 303 1204 292 1204 l 322 1204 q 333 1192 333 1204 l 333 1181 q 347 1118 333 1143 q 375 1083 361 1093 q 521 1003 390 1072 q 600 947 572 975 q 628 876 628 919 q 640 865 628 865 z "},"ए":{"ha":732,"x_min":-14,"x_max":746,"o":"m -1 865 l 733 865 q 746 854 746 865 l 746 842 q 733 831 746 831 l 640 831 q 628 819 628 831 l 628 588 q 581 451 628 494 q 454 407 535 407 l 392 407 q 379 418 379 407 l 379 435 q 392 446 379 446 l 456 446 q 586 588 586 446 l 586 819 q 574 831 586 831 l 193 831 q 181 819 181 831 l 181 235 q 218 124 181 164 q 325 83 256 83 l 581 83 q 593 72 593 83 l 593 56 q 581 44 593 44 l 325 44 q 190 96 240 44 q 139 233 139 147 l 139 819 q 126 831 139 831 l -1 831 q -14 842 -14 831 l -14 854 q -1 865 -14 865 z "},"ऐ":{"ha":732,"x_min":-14,"x_max":746,"o":"m 650 865 l 733 865 q 746 854 746 865 l 746 842 q 733 831 746 831 l 640 831 q 628 819 628 831 l 628 588 q 581 451 628 494 q 454 407 535 407 l 392 407 q 379 418 379 407 l 379 435 q 392 446 379 446 l 456 446 q 586 588 586 446 l 586 819 q 574 831 586 831 l 193 831 q 181 819 181 831 l 181 235 q 218 124 181 164 q 325 83 256 83 l 581 83 q 593 72 593 83 l 593 56 q 581 44 593 44 l 325 44 q 190 96 240 44 q 139 233 139 147 l 139 819 q 126 831 139 831 l -1 831 q -14 842 -14 831 l -14 854 q -1 865 -14 865 l 594 865 q 364 1186 529 946 q 361 1194 361 1192 q 372 1204 361 1204 l 390 1204 q 410 1192 401 1204 l 618 883 q 650 865 629 865 z "},"ऑ":{"ha":1146,"x_min":50,"x_max":1160,"o":"m 668 865 l 1147 865 q 1160 854 1160 865 l 1160 842 q 1147 831 1160 831 l 1019 831 q 1007 819 1007 831 l 1007 13 q 996 0 1007 0 l 976 0 q 965 13 965 0 l 965 819 q 953 831 965 831 l 700 831 q 688 819 688 831 l 688 13 q 676 0 688 0 l 657 0 q 646 13 646 0 l 646 351 q 633 363 646 363 l 422 363 q 429 306 429 332 l 429 244 q 378 107 429 158 q 243 56 328 56 l 63 56 q 50 67 50 56 l 50 83 q 63 94 50 94 l 243 94 q 350 135 313 94 q 388 246 388 175 l 388 304 q 350 413 388 375 q 243 451 313 451 l 150 451 q 138 463 138 451 l 138 479 q 150 490 138 490 l 243 490 q 350 528 313 490 q 388 638 388 567 l 388 679 q 350 790 388 750 q 243 831 313 831 l 113 831 q 100 842 100 831 l 100 854 q 113 865 100 865 l 243 865 q 378 816 328 865 q 429 681 429 767 l 429 636 q 332 475 429 510 l 332 469 q 408 401 382 450 l 633 401 q 646 413 646 401 l 646 840 q 668 865 646 865 m 874 950 l 789 950 q 622 1118 622 950 l 622 1126 q 633 1139 622 1139 l 653 1139 q 664 1126 664 1139 l 664 1118 q 692 1018 664 1047 q 789 989 719 989 l 874 989 q 971 1018 943 989 q 999 1118 999 1047 l 999 1126 q 1010 1139 999 1139 l 1029 1139 q 1040 1126 1040 1139 l 1040 1118 q 874 950 1040 950 z "},"ऒ":{"ha":1146,"x_min":50,"x_max":1160,"o":"m 1019 865 l 1147 865 q 1160 854 1160 865 l 1160 842 q 1147 831 1160 831 l 1019 831 q 1007 819 1007 831 l 1007 13 q 996 0 1007 0 l 976 0 q 965 13 965 0 l 965 819 q 953 831 965 831 l 700 831 q 688 819 688 831 l 688 13 q 676 0 688 0 l 657 0 q 646 13 646 0 l 646 351 q 633 363 646 363 l 422 363 q 429 306 429 332 l 429 244 q 378 107 429 158 q 243 56 328 56 l 63 56 q 50 67 50 56 l 50 83 q 63 94 50 94 l 243 94 q 350 135 313 94 q 388 246 388 175 l 388 304 q 350 413 388 375 q 243 451 313 451 l 150 451 q 138 463 138 451 l 138 479 q 150 490 138 490 l 243 490 q 350 528 313 490 q 388 638 388 567 l 388 679 q 350 790 388 750 q 243 831 313 831 l 113 831 q 100 842 100 831 l 100 854 q 113 865 100 865 l 243 865 q 378 816 328 865 q 429 681 429 767 l 429 636 q 332 475 429 510 l 332 469 q 408 401 382 450 l 633 401 q 646 413 646 401 l 646 840 q 668 865 646 865 l 953 865 q 965 876 965 865 q 947 922 965 903 q 869 974 929 942 l 774 1024 q 694 1088 718 1053 q 671 1181 671 1122 l 671 1192 q 682 1204 671 1204 l 701 1204 q 713 1192 713 1204 l 713 1181 q 726 1118 713 1143 q 753 1083 740 1093 q 900 1003 769 1072 q 979 947 951 975 q 1007 876 1007 919 q 1019 865 1007 865 z "},"ओ":{"ha":1146,"x_min":50,"x_max":1160,"o":"m 1029 865 l 1147 865 q 1160 854 1160 865 l 1160 842 q 1147 831 1160 831 l 1019 831 q 1007 819 1007 831 l 1007 13 q 996 0 1007 0 l 976 0 q 965 13 965 0 l 965 819 q 953 831 965 831 l 700 831 q 688 819 688 831 l 688 13 q 676 0 688 0 l 657 0 q 646 13 646 0 l 646 351 q 633 363 646 363 l 422 363 q 429 306 429 332 l 429 244 q 378 107 429 158 q 243 56 328 56 l 63 56 q 50 67 50 56 l 50 83 q 63 94 50 94 l 243 94 q 350 135 313 94 q 388 246 388 175 l 388 304 q 350 413 388 375 q 243 451 313 451 l 150 451 q 138 463 138 451 l 138 479 q 150 490 138 490 l 243 490 q 350 528 313 490 q 388 638 388 567 l 388 679 q 350 790 388 750 q 243 831 313 831 l 113 831 q 100 842 100 831 l 100 854 q 113 865 100 865 l 243 865 q 378 816 328 865 q 429 681 429 767 l 429 636 q 332 475 429 510 l 332 469 q 408 401 382 450 l 633 401 q 646 413 646 401 l 646 840 q 668 865 646 865 l 965 865 l 965 871 q 828 1057 914 931 l 739 1186 q 736 1194 736 1192 q 747 1204 736 1204 l 769 1204 q 789 1192 781 1204 l 997 883 q 1029 865 1008 865 z "},"औ":{"ha":1146,"x_min":50,"x_max":1160,"o":"m 1015 865 l 1147 865 q 1160 854 1160 865 l 1160 842 q 1147 831 1160 831 l 1019 831 q 1007 819 1007 831 l 1007 13 q 996 0 1007 0 l 976 0 q 965 13 965 0 l 965 819 q 953 831 965 831 l 700 831 q 688 819 688 831 l 688 13 q 676 0 688 0 l 657 0 q 646 13 646 0 l 646 351 q 633 363 646 363 l 422 363 q 429 306 429 332 l 429 244 q 378 107 429 158 q 243 56 328 56 l 63 56 q 50 67 50 56 l 50 83 q 63 94 50 94 l 243 94 q 350 135 313 94 q 388 246 388 175 l 388 304 q 350 413 388 375 q 243 451 313 451 l 150 451 q 138 463 138 451 l 138 479 q 150 490 138 490 l 243 490 q 350 528 313 490 q 388 638 388 567 l 388 679 q 350 790 388 750 q 243 831 313 831 l 113 831 q 100 842 100 831 l 100 854 q 113 865 100 865 l 243 865 q 378 816 328 865 q 429 681 429 767 l 429 636 q 332 475 429 510 l 332 469 q 408 401 382 450 l 633 401 q 646 413 646 401 l 646 840 q 668 865 646 865 l 965 865 l 965 871 q 822 1057 906 935 l 735 1186 q 732 1194 732 1192 q 743 1204 732 1204 l 763 1204 q 782 1192 774 1204 l 975 903 l 979 904 q 965 1104 965 989 l 965 1192 q 976 1204 965 1204 l 996 1204 q 1007 1192 1007 1204 l 1007 876 q 1015 865 1007 865 z "},"क":{"ha":1006,"x_min":-14,"x_max":1019,"o":"m 524 819 l 524 607 l 529 607 q 668 675 558 675 l 722 675 q 858 626 807 675 q 908 490 908 576 l 908 319 q 858 184 908 233 q 722 135 807 135 l 649 135 q 636 146 636 135 l 636 163 q 649 174 636 174 l 722 174 q 829 212 792 174 q 867 321 867 250 l 867 489 q 829 598 867 560 q 722 636 792 636 l 668 636 q 561 600 599 636 q 524 496 524 564 l 524 13 q 513 0 524 0 l 493 0 q 482 13 482 0 l 482 201 l 476 201 q 338 135 442 135 l 283 135 q 148 184 199 135 q 97 319 97 233 l 97 490 q 148 626 97 576 q 283 675 199 675 l 357 675 q 369 664 369 675 l 369 647 q 357 636 369 636 l 283 636 q 176 598 214 636 q 139 489 139 560 l 139 321 q 176 212 139 250 q 283 174 214 174 l 338 174 q 444 210 406 174 q 482 314 482 247 l 482 819 q 469 831 482 831 l -1 831 q -14 842 -14 831 l -14 854 q -1 865 -14 865 l 1007 865 q 1019 854 1019 865 l 1019 842 q 1007 831 1019 831 l 536 831 q 524 819 524 831 z "},"ख":{"ha":956,"x_min":-14,"x_max":969,"o":"m 775 276 l 769 276 q 631 207 729 207 l 625 207 q 494 256 540 207 q 447 392 447 306 l 447 450 q 494 585 447 536 q 625 635 540 635 l 650 635 q 663 624 663 635 l 663 607 q 650 596 663 596 l 625 596 q 489 449 489 596 l 489 393 q 625 246 489 246 l 631 246 q 738 284 700 246 q 775 393 775 322 l 775 819 q 763 831 775 831 l 357 831 q 344 819 344 831 l 344 594 q 298 457 344 501 q 172 413 251 413 l 103 413 l 369 22 q 375 10 375 14 q 364 0 375 0 l 346 0 q 325 14 335 0 l 72 382 l 49 411 l 49 440 q 61 451 49 451 l 174 451 q 303 594 303 451 l 303 819 q 290 831 303 831 l -1 831 q -14 842 -14 831 l -14 854 q -1 865 -14 865 l 957 865 q 969 854 969 865 l 969 842 q 957 831 969 831 l 829 831 q 817 819 817 831 l 817 13 q 806 0 817 0 l 786 0 q 775 13 775 0 l 775 276 z "},"ग":{"ha":675,"x_min":-14,"x_max":689,"o":"m -1 865 l 676 865 q 689 854 689 865 l 689 842 q 676 831 689 831 l 549 831 q 536 819 536 831 l 536 13 q 525 0 536 0 l 506 0 q 494 13 494 0 l 494 819 q 482 831 494 831 l 243 831 q 231 819 231 831 l 231 497 q 184 360 231 404 q 57 317 138 317 l 36 317 q 24 328 24 317 l 24 344 q 36 356 24 356 l 58 356 q 189 497 189 356 l 189 819 q 176 831 189 831 l -1 831 q -14 842 -14 831 l -14 854 q -1 865 -14 865 z "},"घ":{"ha":783,"x_min":-14,"x_max":797,"o":"m 113 654 l 113 694 q 167 825 113 794 l 167 831 l -1 831 q -14 842 -14 831 l -14 854 q -1 865 -14 865 l 785 865 q 797 854 797 865 l 797 842 q 785 831 797 831 l 657 831 q 644 819 644 831 l 644 13 q 633 0 644 0 l 614 0 q 603 13 603 0 l 603 185 l 597 185 q 458 115 564 115 l 296 115 q 161 160 210 115 q 113 290 113 206 l 113 351 q 203 501 113 471 l 203 507 q 113 654 113 540 m 590 831 l 278 831 q 183 797 213 831 q 154 693 154 764 l 154 656 q 285 522 154 522 l 371 522 q 383 511 383 522 l 383 494 q 371 483 383 483 l 285 483 q 154 350 154 483 l 154 292 q 296 154 154 154 l 458 154 q 565 194 528 154 q 603 306 603 235 l 603 819 q 590 831 603 831 z "},"ङ":{"ha":688,"x_min":-14,"x_max":701,"o":"m -1 865 l 689 865 q 701 854 701 865 l 701 842 q 689 831 701 831 l 543 831 q 531 819 531 831 l 531 629 q 508 604 531 604 l 288 604 q 187 580 217 604 q 157 496 157 556 l 157 475 q 187 391 157 415 q 288 367 217 367 l 400 367 q 572 222 572 367 l 572 147 q 400 0 572 0 l 267 0 q 147 38 186 0 q 108 161 108 76 l 108 175 q 119 188 108 188 l 139 188 q 150 175 150 188 l 150 163 q 176 65 150 92 q 267 39 201 39 l 400 39 q 501 64 471 39 q 531 149 531 89 l 531 221 q 501 304 531 281 q 400 328 471 328 l 288 328 q 115 474 115 328 l 115 497 q 288 643 115 643 l 478 643 q 490 654 490 643 l 490 819 q 478 831 490 831 l -1 831 q -14 842 -14 831 l -14 854 q -1 865 -14 865 m 635 456 q 624 443 635 443 l 596 443 q 585 456 585 443 l 585 490 q 596 503 585 503 l 624 503 q 635 490 635 503 l 635 456 z "},"च":{"ha":772,"x_min":-14,"x_max":786,"o":"m 217 557 l 43 557 q 31 568 31 557 l 31 585 q 43 596 31 596 l 425 596 q 438 585 438 596 l 438 568 q 425 557 438 557 l 331 557 q 228 518 264 557 q 193 410 193 479 l 193 342 q 231 233 193 271 q 338 194 268 194 l 447 194 q 553 231 515 194 q 592 335 592 268 l 592 819 q 579 831 592 831 l -1 831 q -14 842 -14 831 l -14 854 q -1 865 -14 865 l 774 865 q 786 854 786 865 l 786 842 q 774 831 786 831 l 646 831 q 633 819 633 831 l 633 13 q 622 0 633 0 l 603 0 q 592 13 592 0 l 592 222 l 586 222 q 447 156 551 156 l 338 156 q 202 205 253 156 q 151 340 151 254 l 151 411 q 217 551 151 511 l 217 557 z "},"छ":{"ha":817,"x_min":-14,"x_max":831,"o":"m -1 865 l 818 865 q 831 854 831 865 l 831 842 q 818 831 831 831 l 674 831 q 661 819 661 831 l 661 622 q 651 578 661 593 q 706 440 706 536 l 706 250 q 655 113 706 164 q 519 61 604 61 l 288 61 q 115 236 115 61 l 115 307 q 206 457 115 426 l 206 463 q 115 610 115 496 l 115 694 q 169 825 115 794 l 169 831 l -1 831 q -14 842 -14 831 l -14 854 q -1 865 -14 865 m 479 611 l 533 611 q 614 599 581 611 q 619 626 619 608 l 619 819 q 607 831 619 831 l 281 831 q 186 797 215 831 q 157 693 157 764 l 157 611 q 288 478 157 478 l 349 478 q 361 467 361 478 l 361 450 q 349 439 361 439 l 288 439 q 157 306 157 439 l 157 238 q 188 133 157 167 q 288 100 218 100 l 519 100 q 626 140 589 100 q 664 251 664 181 l 664 439 q 633 543 664 510 q 533 576 603 576 l 479 576 q 467 588 467 576 l 467 600 q 479 611 467 611 z "},"ज":{"ha":754,"x_min":-14,"x_max":768,"o":"m 319 538 l 319 532 q 379 396 379 499 l 379 286 q 333 149 379 193 q 206 106 286 106 l 56 106 q 43 117 43 106 l 43 133 q 56 144 43 144 l 207 144 q 338 286 338 144 l 338 396 q 207 538 338 538 l 114 538 q 101 549 101 538 l 101 565 q 114 576 101 576 l 561 576 q 574 588 574 576 l 574 819 q 561 831 574 831 l -1 831 q -14 842 -14 831 l -14 854 q -1 865 -14 865 l 756 865 q 768 854 768 865 l 768 842 q 756 831 768 831 l 628 831 q 615 819 615 831 l 615 13 q 604 0 615 0 l 585 0 q 574 13 574 0 l 574 526 q 561 538 574 538 l 319 538 z "},"झ":{"ha":929,"x_min":-14,"x_max":943,"o":"m 736 831 l 497 831 q 485 819 485 831 l 485 671 q 463 646 485 646 l 283 646 q 183 622 213 646 q 153 539 153 599 l 153 518 q 183 435 153 458 q 283 411 213 411 l 736 411 q 749 422 749 411 l 749 819 q 736 831 749 831 m 431 831 l -1 831 q -14 842 -14 831 l -14 854 q -1 865 -14 865 l 931 865 q 943 854 943 865 l 943 842 q 931 831 943 831 l 803 831 q 790 819 790 831 l 790 13 q 779 0 790 0 l 760 0 q 749 13 749 0 l 749 361 q 736 372 749 372 l 485 372 q 526 267 526 344 l 526 215 q 354 68 526 68 l 274 68 q 149 118 181 68 l 143 118 l 143 -7 q 132 -19 143 -19 l 115 -19 q 104 -7 104 -19 l 104 272 q 115 285 104 285 l 132 285 q 143 272 143 285 l 143 231 q 274 107 143 107 l 354 107 q 455 132 425 107 q 485 217 485 157 l 485 265 q 458 347 485 322 q 368 372 431 372 l 283 372 q 111 518 111 372 l 111 539 q 283 685 111 685 l 431 685 q 443 696 443 685 l 443 819 q 431 831 443 831 z "},"ञ":{"ha":836,"x_min":-14,"x_max":850,"o":"m 643 385 l 415 385 q 403 374 403 385 l 403 318 q 356 181 403 225 q 229 138 310 138 l 79 138 q 67 149 67 138 l 67 165 q 79 176 67 176 l 231 176 q 361 318 361 176 l 361 476 q 231 618 361 618 l 100 618 q 88 629 88 618 l 88 646 q 100 657 88 657 l 229 657 q 356 613 310 657 q 403 476 403 569 l 403 435 q 415 424 403 424 l 643 424 q 656 435 656 424 l 656 819 q 643 831 656 831 l -1 831 q -14 842 -14 831 l -14 854 q -1 865 -14 865 l 838 865 q 850 854 850 865 l 850 842 q 838 831 850 831 l 710 831 q 697 819 697 831 l 697 13 q 686 0 697 0 l 667 0 q 656 13 656 0 l 656 374 q 643 385 656 385 z "},"ट":{"ha":681,"x_min":-14,"x_max":694,"o":"m 290 611 l 467 611 q 479 622 479 611 l 479 819 q 467 831 479 831 l -1 831 q -14 842 -14 831 l -14 854 q -1 865 -14 865 l 682 865 q 694 854 694 865 l 694 842 q 682 831 694 831 l 533 831 q 521 819 521 831 l 521 597 q 499 572 521 572 l 290 572 q 183 532 221 572 q 146 421 146 492 l 146 247 q 183 136 146 176 q 290 96 221 96 l 415 96 q 522 136 485 96 q 560 247 560 176 l 560 315 q 571 328 560 328 l 590 328 q 601 315 601 328 l 601 246 q 551 108 601 160 q 415 57 500 57 l 290 57 q 155 108 206 57 q 104 246 104 160 l 104 422 q 155 560 104 508 q 290 611 206 611 z "},"ठ":{"ha":717,"x_min":-14,"x_max":731,"o":"m 414 572 l 289 572 q 182 532 219 572 q 144 421 144 492 l 144 247 q 182 136 144 176 q 289 96 219 96 l 414 96 q 521 136 483 96 q 558 247 558 176 l 558 421 q 521 532 558 492 q 414 572 483 572 m 718 831 l 553 831 q 540 819 540 831 l 540 725 q 527 644 540 672 q 483 599 514 617 l 483 593 q 568 533 536 579 q 600 422 600 486 l 600 246 q 549 108 600 160 q 414 57 499 57 l 289 57 q 153 108 204 57 q 103 246 103 160 l 103 422 q 153 560 103 508 q 289 611 204 611 l 392 611 q 472 635 446 611 q 499 725 499 658 l 499 819 q 486 831 499 831 l -1 831 q -14 842 -14 831 l -14 854 q -1 865 -14 865 l 718 865 q 731 854 731 865 l 731 842 q 718 831 731 831 z "},"ड":{"ha":667,"x_min":-14,"x_max":681,"o":"m -1 865 l 668 865 q 681 854 681 865 l 681 842 q 668 831 681 831 l 543 831 q 531 819 531 831 l 531 629 q 508 604 531 604 l 288 604 q 187 580 217 604 q 157 496 157 556 l 157 468 q 187 384 157 408 q 288 360 217 360 l 396 360 q 572 215 572 360 l 572 147 q 525 37 572 74 q 397 0 478 0 l 269 0 q 108 161 108 0 l 108 175 q 119 188 108 188 l 139 188 q 150 175 150 188 l 150 163 q 179 67 150 94 q 269 39 208 39 l 397 39 q 497 65 464 39 q 531 149 531 90 l 531 214 q 499 297 531 274 q 396 321 467 321 l 288 321 q 115 467 115 321 l 115 497 q 288 643 115 643 l 478 643 q 490 654 490 643 l 490 819 q 478 831 490 831 l -1 831 q -14 842 -14 831 l -14 854 q -1 865 -14 865 z "},"ढ":{"ha":674,"x_min":-14,"x_max":688,"o":"m 429 57 l 290 57 q 155 108 206 57 q 104 246 104 160 l 104 422 q 155 560 104 508 q 290 611 206 611 l 467 611 q 479 622 479 611 l 479 819 q 467 831 479 831 l -1 831 q -14 842 -14 831 l -14 854 q -1 865 -14 865 l 675 865 q 688 854 688 865 l 688 842 q 675 831 688 831 l 533 831 q 521 819 521 831 l 521 597 q 499 572 521 572 l 290 572 q 183 532 221 572 q 146 421 146 492 l 146 247 q 183 136 146 176 q 290 96 221 96 l 429 96 q 529 129 499 96 q 560 233 560 163 l 560 253 q 542 344 560 318 q 471 371 524 371 q 400 345 418 371 q 382 254 382 319 l 382 235 q 371 222 382 222 l 351 222 q 340 235 340 222 l 340 254 q 370 372 340 335 q 470 410 400 410 q 571 372 540 410 q 601 253 601 335 l 601 232 q 429 57 601 57 z "},"ण":{"ha":951,"x_min":-14,"x_max":965,"o":"m 453 831 l 179 831 q 167 819 167 831 l 167 442 q 297 300 167 300 l 335 300 q 465 442 465 300 l 465 819 q 453 831 465 831 m 758 831 l 515 831 q 507 819 507 829 l 507 442 q 460 305 507 349 q 333 261 414 261 l 299 261 q 172 305 218 261 q 125 442 125 349 l 125 819 q 113 831 125 831 l -1 831 q -14 842 -14 831 l -14 854 q -1 865 -14 865 l 953 865 q 965 854 965 865 l 965 842 q 953 831 965 831 l 825 831 q 813 819 813 831 l 813 13 q 801 0 813 0 l 782 0 q 771 13 771 0 l 771 819 q 758 831 771 831 z "},"त":{"ha":683,"x_min":-14,"x_max":697,"o":"m 142 388 l 142 181 q 183 72 142 104 q 286 39 224 39 l 307 39 q 319 28 319 39 l 319 11 q 307 0 319 0 l 288 0 q 153 44 206 0 q 100 181 100 89 l 100 388 q 147 524 100 481 q 274 568 193 568 l 490 568 q 503 579 503 568 l 503 819 q 490 831 503 831 l -1 831 q -14 842 -14 831 l -14 854 q -1 865 -14 865 l 685 865 q 697 854 697 865 l 697 842 q 685 831 697 831 l 557 831 q 544 819 544 831 l 544 13 q 533 0 544 0 l 514 0 q 503 13 503 0 l 503 518 q 490 529 503 529 l 272 529 q 142 388 142 529 z "},"थ":{"ha":818,"x_min":90,"x_max":832,"o":"m 638 231 l 632 231 q 479 156 596 156 l 290 156 q 145 209 200 156 q 90 354 90 263 l 90 486 q 103 497 90 497 l 271 497 q 401 639 401 497 l 401 708 q 285 826 401 826 q 168 710 168 826 l 168 649 q 157 636 168 636 l 138 636 q 126 649 126 636 l 126 710 q 168 826 126 788 q 284 865 210 865 q 401 826 358 865 q 443 708 443 786 l 443 639 q 397 502 443 546 q 269 458 350 458 l 132 458 l 132 356 q 174 237 132 279 q 290 194 215 194 l 479 194 q 595 235 553 194 q 638 349 638 276 l 638 840 q 660 865 638 865 l 819 865 q 832 854 832 865 l 832 842 q 819 831 832 831 l 692 831 q 679 819 679 831 l 679 13 q 668 0 679 0 l 649 0 q 638 13 638 0 l 638 231 z "},"द":{"ha":681,"x_min":-14,"x_max":694,"o":"m 290 643 l 490 643 q 503 654 503 643 l 503 819 q 490 831 503 831 l -1 831 q -14 842 -14 831 l -14 854 q -1 865 -14 865 l 682 865 q 694 854 694 865 l 694 842 q 682 831 694 831 l 556 831 q 543 819 543 831 l 543 629 q 521 604 543 604 l 290 604 q 183 564 221 604 q 146 453 146 524 l 146 319 q 183 208 146 249 q 290 168 221 168 l 399 168 q 529 292 529 168 l 529 333 q 540 346 529 346 l 557 346 q 568 333 568 346 l 568 13 q 557 0 568 0 l 540 0 q 529 13 529 0 l 529 179 l 524 179 q 399 129 492 129 l 290 129 q 155 181 206 129 q 104 318 104 232 l 104 454 q 155 592 104 540 q 290 643 206 643 z "},"ध":{"ha":783,"x_min":-14,"x_max":797,"o":"m 311 831 l 278 831 q 183 797 213 831 q 154 693 154 764 l 154 649 q 285 515 154 515 l 371 515 q 383 504 383 515 l 383 488 q 371 476 383 476 l 285 476 q 154 343 154 476 l 154 276 q 296 139 154 139 l 458 139 q 565 179 528 139 q 603 290 603 219 l 603 819 q 590 831 603 831 l 464 831 q 451 842 451 831 l 451 854 q 464 865 451 865 l 785 865 q 797 854 797 865 l 797 842 q 785 831 797 831 l 657 831 q 644 819 644 831 l 644 13 q 633 0 644 0 l 614 0 q 603 13 603 0 l 603 169 l 597 169 q 458 100 564 100 l 296 100 q 161 145 210 100 q 113 275 113 190 l 113 344 q 203 494 113 464 l 203 500 q 113 647 113 533 l 113 694 q 167 825 113 794 l 167 831 l -1 831 q -14 842 -14 831 l -14 854 q -1 865 -14 865 l 311 865 q 324 854 324 865 l 324 842 q 311 831 324 831 z "},"न":{"ha":650,"x_min":-14,"x_max":664,"o":"m 457 831 l -1 831 q -14 842 -14 831 l -14 854 q -1 865 -14 865 l 651 865 q 664 854 664 865 l 664 842 q 651 831 664 831 l 524 831 q 511 819 511 831 l 511 13 q 500 0 511 0 l 481 0 q 469 13 469 0 l 469 463 q 457 474 469 474 l 196 474 q 132 449 153 474 q 111 390 111 425 q 122 323 111 356 q 132 283 132 290 q 122 276 132 276 l 104 276 q 89 289 93 276 q 69 395 69 347 q 101 477 69 443 q 194 511 133 511 l 457 511 q 469 522 469 511 l 469 819 q 457 831 469 831 z "},"ऩ":{"ha":650,"x_min":-14,"x_max":664,"o":"m 457 831 l -1 831 q -14 842 -14 831 l -14 854 q -1 865 -14 865 l 651 865 q 664 854 664 865 l 664 842 q 651 831 664 831 l 524 831 q 511 819 511 831 l 511 13 q 500 0 511 0 l 481 0 q 469 13 469 0 l 469 463 q 457 474 469 474 l 196 474 q 132 449 153 474 q 111 390 111 425 q 122 323 111 356 q 132 283 132 290 q 122 276 132 276 l 104 276 q 89 289 93 276 q 69 395 69 347 q 101 477 69 443 q 194 511 133 511 l 457 511 q 469 522 469 511 l 469 819 q 457 831 469 831 m 274 -15 q 263 -28 274 -28 l 235 -28 q 224 -15 224 -28 l 224 19 q 235 32 224 32 l 263 32 q 274 19 274 32 l 274 -15 z "},"प":{"ha":700,"x_min":-14,"x_max":715,"o":"m 311 294 l 375 294 q 482 333 444 294 q 519 442 519 371 l 519 819 q 507 831 519 831 l 179 831 q 167 819 167 831 l 167 442 q 204 333 167 371 q 311 294 242 294 m -1 865 l 703 865 q 715 854 715 865 l 715 842 q 703 831 715 831 l 574 831 q 561 819 561 831 l 561 13 q 550 0 561 0 l 531 0 q 519 13 519 0 l 519 324 l 514 324 q 375 256 478 256 l 311 256 q 176 305 226 256 q 125 440 125 354 l 125 819 q 115 831 125 829 l -1 831 q -14 842 -14 831 l -14 854 q -1 865 -14 865 z "},"फ":{"ha":1024,"x_min":-14,"x_max":1038,"o":"m 542 496 l 542 13 q 531 0 542 0 l 513 0 q 501 13 501 0 l 501 333 l 496 333 q 357 267 461 267 l 311 267 q 176 316 226 267 q 125 451 125 365 l 125 819 q 115 831 125 829 l -1 831 q -14 842 -14 831 l -14 854 q -1 865 -14 865 l 1025 865 q 1038 854 1038 865 l 1038 842 q 1025 831 1038 831 l 554 831 q 542 819 542 831 l 542 607 l 547 607 q 686 675 576 675 l 740 675 q 876 626 825 675 q 926 490 926 576 l 926 319 q 876 184 926 233 q 740 135 825 135 l 667 135 q 654 146 654 135 l 654 163 q 667 174 654 174 l 740 174 q 847 212 810 174 q 885 321 885 250 l 885 489 q 847 598 885 560 q 740 636 810 636 l 686 636 q 579 600 617 636 q 542 496 542 564 m 311 306 l 357 306 q 463 342 425 306 q 501 446 501 379 l 501 819 q 489 831 501 831 l 179 831 q 167 819 167 831 l 167 453 q 204 344 167 382 q 311 306 242 306 z "},"ब":{"ha":669,"x_min":-14,"x_max":683,"o":"m -1 865 l 671 865 q 683 854 683 865 l 683 842 q 671 831 683 831 l 543 831 q 531 819 531 831 l 531 13 q 519 0 531 0 l 500 0 q 489 13 489 0 l 489 194 l 483 194 q 344 128 449 128 l 283 128 q 148 177 199 128 q 97 313 97 226 l 97 499 q 148 634 97 585 q 283 683 199 683 l 364 683 q 376 672 376 683 l 376 656 q 364 644 376 644 l 283 644 q 176 607 214 644 l 488 279 q 489 307 489 288 l 489 819 q 476 831 489 831 l -1 831 q -14 842 -14 831 l -14 854 q -1 865 -14 865 m 283 167 l 344 167 q 475 236 440 167 l 154 574 q 139 497 139 540 l 139 314 q 176 205 139 243 q 283 167 214 167 z "},"भ":{"ha":675,"x_min":-14,"x_max":689,"o":"m 482 433 l 172 433 q 160 422 160 433 l 160 268 q 149 256 160 256 l 129 256 q 118 268 118 256 l 118 721 q 8 831 118 831 l -1 831 q -14 842 -14 831 l -14 854 q -1 865 -14 865 l 8 865 q 120 828 81 865 q 160 721 160 790 l 160 483 q 171 471 160 471 l 482 471 q 494 482 494 471 l 494 819 q 482 831 494 831 l 358 831 q 346 842 346 831 l 346 854 q 358 865 346 865 l 676 865 q 689 854 689 865 l 689 842 q 676 831 689 831 l 549 831 q 536 819 536 831 l 536 13 q 525 0 536 0 l 506 0 q 494 13 494 0 l 494 422 q 482 433 494 433 z "},"म":{"ha":675,"x_min":-14,"x_max":689,"o":"m 494 482 l 494 819 q 482 831 494 831 l 172 831 q 160 819 160 831 l 160 483 q 171 471 160 471 l 482 471 q 494 482 494 471 m 482 433 l 172 433 q 160 422 160 433 l 160 268 q 149 256 160 256 l 129 256 q 118 268 118 256 l 118 819 q 106 831 118 831 l -1 831 q -14 842 -14 831 l -14 854 q -1 865 -14 865 l 676 865 q 689 854 689 865 l 689 842 q 676 831 689 831 l 549 831 q 536 819 536 831 l 536 13 q 525 0 536 0 l 506 0 q 494 13 494 0 l 494 422 q 482 433 494 433 z "},"य":{"ha":776,"x_min":-14,"x_max":790,"o":"m 583 831 l 303 831 l 303 825 q 353 700 353 794 l 353 683 q 179 508 353 508 l 146 508 l 146 356 q 188 237 146 279 q 304 194 229 194 l 438 194 q 553 235 511 194 q 596 349 596 276 l 596 819 q 583 831 596 831 m 311 683 l 311 699 q 281 799 311 768 q 181 831 251 831 l -1 831 q -14 842 -14 831 l -14 854 q -1 865 -14 865 l 778 865 q 790 854 790 865 l 790 842 q 778 831 790 831 l 650 831 q 638 819 638 831 l 638 13 q 626 0 638 0 l 607 0 q 596 13 596 0 l 596 231 l 590 231 q 438 156 554 156 l 304 156 q 159 209 214 156 q 104 354 104 263 l 104 536 q 117 547 104 547 l 181 547 q 281 577 250 547 q 311 683 311 607 z "},"र":{"ha":468,"x_min":-14,"x_max":482,"o":"m 303 594 l 303 819 q 290 831 303 831 l -1 831 q -14 842 -14 831 l -14 854 q -1 865 -14 865 l 469 865 q 482 854 482 865 l 482 842 q 469 831 482 831 l 357 831 q 344 819 344 831 l 344 594 q 298 457 344 501 q 172 413 251 413 l 101 413 l 367 18 q 369 10 369 13 q 358 0 369 0 l 342 0 q 322 13 331 0 l 72 382 l 49 411 l 49 440 q 61 451 49 451 l 174 451 q 303 594 303 451 z "},"ऱ":{"ha":468,"x_min":-14,"x_max":482,"o":"m 303 594 l 303 819 q 290 831 303 831 l -1 831 q -14 842 -14 831 l -14 854 q -1 865 -14 865 l 469 865 q 482 854 482 865 l 482 842 q 469 831 482 831 l 357 831 q 344 819 344 831 l 344 594 q 298 457 344 501 q 172 413 251 413 l 101 413 l 367 18 q 369 10 369 13 q 358 0 369 0 l 342 0 q 322 13 331 0 l 72 382 l 49 411 l 49 440 q 61 451 49 451 l 174 451 q 303 594 303 451 m 76 -31 q 65 -43 76 -43 l 38 -43 q 26 -31 26 -43 l 26 4 q 38 17 26 17 l 65 17 q 76 4 76 17 l 76 -31 z "},"ल":{"ha":953,"x_min":-14,"x_max":967,"o":"m 628 615 q 767 551 732 615 l 772 551 l 772 819 q 760 831 772 831 l -1 831 q -14 842 -14 831 l -14 854 q -1 865 -14 865 l 954 865 q 967 854 967 865 l 967 842 q 954 831 967 831 l 826 831 q 814 819 814 831 l 814 13 q 803 0 814 0 l 783 0 q 772 13 772 0 l 772 429 q 736 542 772 508 q 628 576 700 576 q 519 544 556 576 q 483 431 483 511 l 483 297 q 472 285 483 285 l 453 285 q 442 297 442 285 l 442 431 q 406 542 442 508 q 297 576 369 576 q 189 542 225 576 q 153 429 153 508 l 153 243 q 189 130 153 164 q 297 96 225 96 l 379 96 q 392 85 392 96 l 392 68 q 379 57 392 57 l 297 57 q 160 103 210 57 q 111 242 111 149 l 111 431 q 160 569 111 524 q 297 615 210 615 q 460 518 429 615 l 465 518 q 628 615 496 615 z "},"ळ":{"ha":936,"x_min":-14,"x_max":950,"o":"m -1 865 l 938 865 q 950 854 950 865 l 950 842 q 938 831 950 831 l 669 831 q 657 819 657 831 l 657 625 q 668 614 657 615 q 785 560 743 604 q 826 436 826 515 l 826 235 q 776 103 826 150 q 640 57 726 57 l 631 57 q 465 154 503 57 q 300 57 428 57 l 290 57 q 154 103 204 57 q 104 235 104 150 l 104 436 q 154 568 104 521 q 290 615 204 615 l 300 615 q 465 517 426 615 q 604 614 499 601 q 615 625 615 615 l 615 819 q 603 831 615 831 l -1 831 q -14 842 -14 831 l -14 854 q -1 865 -14 865 m 444 236 l 444 436 q 300 576 444 576 l 290 576 q 146 436 146 576 l 146 236 q 290 96 146 96 l 300 96 q 444 236 444 96 m 785 236 l 785 436 q 640 576 785 576 l 631 576 q 486 436 486 576 l 486 236 q 631 96 486 96 l 640 96 q 785 236 785 96 z "},"ऴ":{"ha":936,"x_min":-14,"x_max":950,"o":"m -1 865 l 938 865 q 950 854 950 865 l 950 842 q 938 831 950 831 l 669 831 q 657 819 657 831 l 657 625 q 668 614 657 615 q 785 560 743 604 q 826 436 826 515 l 826 235 q 776 103 826 150 q 640 57 726 57 l 631 57 q 465 154 503 57 q 300 57 428 57 l 290 57 q 154 103 204 57 q 104 235 104 150 l 104 436 q 154 568 104 521 q 290 615 204 615 l 300 615 q 465 517 426 615 q 604 614 499 601 q 615 625 615 615 l 615 819 q 603 831 615 831 l -1 831 q -14 842 -14 831 l -14 854 q -1 865 -14 865 m 444 236 l 444 436 q 300 576 444 576 l 290 576 q 146 436 146 576 l 146 236 q 290 96 146 96 l 300 96 q 444 236 444 96 m 785 236 l 785 436 q 640 576 785 576 l 631 576 q 486 436 486 576 l 486 236 q 631 96 486 96 l 640 96 q 785 236 785 96 m 274 0 l 301 0 q 313 -12 313 0 l 313 -47 q 301 -60 313 -60 l 274 -60 q 263 -47 263 -60 l 263 -12 q 274 0 263 0 z "},"व":{"ha":661,"x_min":-14,"x_max":675,"o":"m 522 819 l 522 13 q 511 0 522 0 l 493 0 q 482 13 482 0 l 482 201 l 476 201 q 338 135 442 135 l 283 135 q 148 184 199 135 q 97 319 97 233 l 97 490 q 148 626 97 576 q 283 675 199 675 l 357 675 q 369 664 369 675 l 369 647 q 357 636 369 636 l 283 636 q 176 598 214 636 q 139 489 139 560 l 139 321 q 176 212 139 250 q 283 174 214 174 l 338 174 q 444 210 406 174 q 482 314 482 247 l 482 819 q 469 831 482 831 l -1 831 q -14 842 -14 831 l -14 854 q -1 865 -14 865 l 663 865 q 675 854 675 865 l 675 842 q 663 831 675 831 l 535 831 q 522 819 522 831 z "},"श":{"ha":840,"x_min":56,"x_max":854,"o":"m 660 13 l 660 840 q 682 865 660 865 l 842 865 q 854 854 854 865 l 854 842 q 842 831 854 831 l 714 831 q 701 819 701 831 l 701 13 q 690 0 701 0 l 671 0 q 660 13 660 0 m 364 8 q 353 0 364 0 l 335 0 q 315 13 324 0 l 79 361 l 56 390 l 56 419 q 68 431 56 431 l 276 431 q 406 574 406 431 l 406 697 q 376 797 406 768 q 275 826 346 826 q 174 797 204 826 q 144 697 144 768 l 144 626 q 133 614 144 614 l 114 614 q 103 626 103 614 l 103 699 q 275 865 103 865 q 447 699 447 865 l 447 574 q 401 436 447 481 q 275 392 354 392 l 107 392 l 360 18 q 364 8 364 13 z "},"ष":{"ha":700,"x_min":-14,"x_max":715,"o":"m 519 819 q 507 831 519 831 l 164 831 l 519 419 l 519 819 m 311 294 l 375 294 q 507 372 472 294 l 167 767 l 167 442 q 204 333 167 371 q 311 294 242 294 m -1 865 l 703 865 q 715 854 715 865 l 715 842 q 703 831 715 831 l 574 831 q 561 819 561 831 l 561 13 q 550 0 561 0 l 531 0 q 519 13 519 0 l 519 321 l 514 321 q 375 256 479 256 l 311 256 q 176 305 226 256 q 125 440 125 354 l 125 819 q 115 831 125 829 l -1 831 q -14 842 -14 831 l -14 854 q -1 865 -14 865 z "},"स":{"ha":789,"x_min":-14,"x_max":803,"o":"m 249 446 l 596 446 q 608 457 608 446 l 608 819 q 596 831 608 831 l 319 831 q 307 819 307 831 l 307 589 q 249 451 307 483 l 249 446 m 332 8 q 321 0 332 0 l 301 0 q 282 13 290 0 l 89 346 l 49 407 l 49 435 q 61 446 49 446 l 139 446 q 230 481 194 446 q 265 589 265 515 l 265 819 q 253 831 265 831 l -1 831 q -14 842 -14 831 l -14 854 q -1 865 -14 865 l 790 865 q 803 854 803 865 l 803 842 q 790 831 803 831 l 663 831 q 650 819 650 831 l 650 13 q 639 0 650 0 l 619 0 q 608 13 608 0 l 608 396 q 596 407 608 407 l 100 407 l 325 25 q 332 8 332 11 z "},"ह":{"ha":675,"x_min":-14,"x_max":689,"o":"m 485 831 l -1 831 q -14 842 -14 831 l -14 854 q -1 865 -14 865 l 676 865 q 689 854 689 865 l 689 842 q 676 831 689 831 l 551 831 q 539 819 539 831 l 539 643 q 517 618 539 618 l 293 618 q 194 590 225 618 q 163 496 163 561 q 193 402 163 431 q 293 374 224 374 l 390 374 q 563 199 563 374 l 563 163 q 551 150 563 150 l 532 150 q 521 163 521 150 l 521 197 q 490 301 521 268 q 390 335 460 335 l 293 335 q 192 294 228 335 q 156 183 156 254 l 156 135 q 193 24 156 64 q 300 -17 231 -17 l 535 -17 q 547 -28 547 -17 l 547 -44 q 535 -56 547 -56 l 300 -56 q 165 -4 215 -56 q 114 133 114 47 l 114 185 q 208 347 114 307 l 208 353 q 121 496 121 383 q 293 657 121 657 l 485 657 q 497 668 497 657 l 497 819 q 485 831 497 831 z "},"़":{"ha":0,"x_min":-150,"x_max":-100,"o":"m -100 -112 q -111 -125 -100 -125 l -139 -125 q -150 -112 -150 -125 l -150 -78 q -139 -65 -150 -65 l -111 -65 q -100 -78 -100 -65 l -100 -112 z "},"ऽ":{"ha":728,"x_min":133,"x_max":599,"o":"m 599 281 l 599 181 q 558 46 599 92 q 424 0 518 0 l 368 0 q 274 26 322 0 q 203 72 225 51 q 133 151 133 138 q 140 164 133 157 q 153 171 147 171 q 169 160 158 171 q 273 67 231 94 q 371 39 315 39 l 422 39 q 529 75 501 39 q 557 181 557 111 l 557 281 q 517 369 557 333 q 364 465 476 406 q 217 576 251 525 q 182 708 182 628 q 213 827 182 789 q 344 865 244 865 l 525 865 q 538 854 538 865 l 538 842 q 525 831 538 831 l 346 831 q 245 802 267 831 q 224 720 224 774 q 231 642 224 667 q 276 578 238 618 q 417 483 314 539 q 560 387 521 428 q 599 281 599 346 z "},"ा":{"ha":319,"x_min":-12,"x_max":333,"o":"m 169 0 l 150 0 q 139 13 139 0 l 139 819 q 126 831 139 831 l 0 831 q -12 842 -12 831 l -12 854 q 0 865 -12 865 l 321 865 q 333 854 333 865 l 333 842 q 321 831 333 831 l 193 831 q 181 819 181 831 l 181 13 q 169 0 181 0 z "},"ि":{"ha":319,"x_min":-12,"x_max":849,"o":"m 319 1211 l 668 1211 q 849 1044 849 1211 l 849 972 q 838 960 849 960 l 818 960 q 807 972 807 960 l 807 1043 q 773 1142 807 1113 q 668 1172 739 1172 l 319 1172 q 215 1142 249 1172 q 181 1043 181 1113 l 181 876 q 193 865 181 865 l 321 865 q 333 854 333 865 l 333 842 q 321 831 333 831 l 193 831 q 181 819 181 831 l 181 13 q 169 0 181 0 l 150 0 q 139 13 139 0 l 139 819 q 126 831 139 831 l 0 831 q -12 842 -12 831 l -12 854 q 0 865 -12 865 l 126 865 q 139 876 139 865 l 139 1044 q 319 1211 139 1211 z "},"ी":{"ha":319,"x_min":-181,"x_max":333,"o":"m 193 865 l 321 865 q 333 854 333 865 l 333 842 q 321 831 333 831 l 193 831 q 181 819 181 831 l 181 13 q 169 0 181 0 l 150 0 q 139 13 139 0 l 139 819 q 126 831 139 831 l 0 831 q -12 842 -12 831 l -12 854 q 0 865 -12 865 l 126 865 q 139 876 139 865 l 139 1043 q 105 1142 139 1113 q 0 1172 71 1172 q -105 1142 -71 1172 q -139 1043 -139 1113 l -139 972 q -150 960 -139 960 l -169 960 q -181 972 -181 960 l -181 1044 q 0 1211 -181 1211 q 181 1044 181 1211 l 181 876 q 193 865 181 865 z "}}}
